<?xml version="1.0" standalone="no"?>
<!DOCTYPE svg PUBLIC "-//W3C//DTD SVG 1.1//EN" "http://www.w3.org/Graphics/SVG/1.1/DTD/svg11.dtd" >
<svg>
<metadata>
Created by FontForge 20090914 at Tue May 14 08:32:42 2013
 By www-data
2006 H. A. Simon published by FSI FontShop International GmbH
</metadata>
<defs>
<font id="MarketOT-Bold" horiz-adv-x="334" >
  <font-face 
    font-family="MarketOT-Bold"
    font-weight="700"
    font-stretch="normal"
    units-per-em="1000"
    panose-1="3 1 8 4 2 1 1 1 1 1"
    ascent="800"
    descent="-200"
    x-height="452.999"
    cap-height="638.998"
    bbox="-643.001 -438 1731.99 929.002"
    underline-thickness="64"
    underline-position="-64"
    unicode-range="U+000D-U+FEFF"
  />
<missing-glyph horiz-adv-x="420" 
d="M21 0v700h378v-700h-378zM85 64h250v572h-250v-572z" />
    <glyph glyph-name="f_i" unicode="fi" horiz-adv-x="488" 
d="M411 431c12.667 8 22.6729 18.0029 30.0059 30.0029c12 20 31 30 57 30c19.333 0 34.666 -4 45.999 -12c7.33301 -4.66699 11 -13 11 -25s-4.5 -26.167 -13.5 -42.5s-19.167 -32.333 -30.5 -48s-18 -25.834 -20 -30.501l-58 -139c-15.333 -38 -23 -70.333 -23 -97
c0 -13.333 2.66699 -20 8 -20c8 0 27 10.667 57 32c21.333 15.333 39 23 53 23c31.333 0 47 -9.66699 47 -29c0 -10.667 -5.33301 -21 -16 -31l-41 -38c-34 -32 -67.667 -48 -101 -48c-26 0 -48.333 10.667 -67 32c-24.667 28 -37 60 -37 96c0 23.333 5.33301 50.333 16 81
c2 5.33301 4.83301 13.5 8.5 24.5s6.5 19.167 8.5 24.5l25 58c5.33301 11.333 8 18.333 8 21s-1.33301 4 -4 4c-3.33301 0 -8.33301 -1.66699 -15 -5c-16 -8 -30.333 -13.333 -43 -16c-6.66699 -1.33301 -13.667 -4 -21 -8c-2.66699 -1.33301 -10.167 -4 -22.5 -8
s-22.833 -8.33301 -31.5 -13s-14 -10 -16 -16l-25.5 -73.5c-14.333 -41 -23.833 -69.667 -28.5 -86l-21.5 -73.5c-9.66699 -32.667 -16.834 -62.667 -21.501 -90s-8 -55 -10 -83c-1.33301 -14 -11.666 -24.667 -30.999 -32c-20.667 -7.33301 -34 -11 -40 -11
c-10 0 -19.667 4 -29 12c-10.667 9.33301 -16 24.333 -16 45c0 18 5.16699 42.333 15.5 73s17.5 56 21.5 76c3.33301 18.667 17.666 65.667 42.999 141c22.667 68 34 107 34 117c0 5.33301 -7 15.166 -21 29.499s-22.333 25.833 -25 34.5
c-3.33301 11.333 -5 19.666 -5 24.999c0 16 7.66699 24 23 24c7.33301 0 13.333 -1 18 -3c20 -7.33301 32.667 -11 38 -11s10.666 6.33301 15.999 19c63.333 151.333 114.666 259 153.999 323c4 6.66699 11.667 12.5 23 17.5s23.333 7.5 36 7.5
c15.333 0 28.833 -4.83301 40.5 -14.5s17.5 -20.5 17.5 -32.5c0 -8 -4.66699 -17.667 -14 -29s-14.333 -20.333 -15 -27s-2.33398 -13 -5.00098 -19c-7.33301 -16 -25.333 -42.167 -54 -78.5s-46 -65.833 -52 -88.5c-2.66699 -10 -6.33398 -20.333 -11.001 -31
c-1.33301 -4 -3.83301 -9.66699 -7.5 -17l-9 -18.5c-2.33301 -5 -3.5 -8.16699 -3.5 -9.5c0 -2.66699 1 -4 3 -4c13.333 0 41.333 9 84 27c30 12.667 51 23 63 31zM585.006 704.003c26 0 45.332 -6.33301 57.999 -19c8.66699 -8.66699 13 -20.334 13 -35.001
c0 -10 -2 -17 -6 -21c-0.666992 -0.666992 -4.16699 -4.66699 -10.5 -12s-12 -13.166 -17 -17.499s-11.5 -8.83301 -19.5 -13.5s-15.667 -7 -23 -7c-14 0 -26 3 -36 9s-16.667 12 -20 18c-5.33301 10 -8 22 -8 36c0 18 4.33301 32.333 13 43
c10.667 12.667 29.334 19 56.001 19z" />
    <glyph glyph-name="f_l" unicode="fl" horiz-adv-x="500" 
d="M315 717c8 13.333 26.6699 20.0039 56.0029 20.0039c17.333 0 31.833 -4.5 43.5 -13.5s17.5 -21.167 17.5 -36.5c0 -26 -15 -56 -45 -90c-18.667 -20.667 -37 -45.334 -55 -74.001s-30 -50.667 -36 -66c-5.33301 -14.667 -10.333 -26.334 -15 -35.001
c-13.333 -23.333 -20 -38.333 -20 -45c0 -2.66699 1 -4 3 -4c12.667 0 38.334 8 77.001 24c50 20.667 84 46 102 76l103 169c0.666992 1.33301 4.16699 10.666 10.5 27.999s14 31.5 23 42.5s20.5 16.5 34.5 16.5c4.66699 0 10.667 0.166992 18 0.5s12.666 0.5 15.999 0.5
c22.667 0 36.667 -5.66699 42 -17c6 -13.333 9 -23.666 9 -30.999c0 -12.667 -3.66699 -24.667 -11 -36l-67.5 -103.5l-71 -109c-17.667 -27.667 -37.167 -61.334 -58.5 -101.001s-39 -77.5 -53 -113.5c-2 -5.33301 -6.16699 -15.333 -12.5 -30s-10.666 -25.5 -12.999 -32.5
s-4.83301 -17.333 -7.5 -31s-4 -27.834 -4 -42.501s3 -22 9 -22c2.66699 0 5.33398 1 8.00098 3c14 9.33301 30.167 23.833 48.5 43.5s34.833 35.667 49.5 48s29.667 18.5 45 18.5c10 0 20.833 -2.83301 32.5 -8.5s17.5 -13.5 17.5 -23.5c0 -3.33301 -0.666992 -6.5 -2 -9.5
s-2.5 -5.16699 -3.5 -6.5s-3.33301 -3.66602 -7 -6.99902s-5.83398 -5.33301 -6.50098 -6c-1.33301 -2 -9.33301 -11.833 -24 -29.5s-28 -33 -40 -46s-27.833 -25.5 -47.5 -37.5s-38.167 -18 -55.5 -18c-6 0 -12 0.666992 -18 2c-34.667 7.33301 -62.334 22 -83.001 44
c-16 16.667 -24 39 -24 67c0 8.66699 0.666992 18 2 28s2.5 17.833 3.5 23.5s3.66699 14.834 8 27.501s7 20.167 8 22.5s4.5 11.5 10.5 27.5l9 23l16 38c8.66699 18.667 13 29.667 13 33c0 2.66699 -1.33301 4 -4 4c-4 0 -9.33301 -1.66699 -16 -5
s-16.167 -6.83301 -28.5 -10.5s-20.833 -6.5 -25.5 -8.5c-2.66699 -1.33301 -10.167 -4 -22.5 -8s-22.833 -8.33301 -31.5 -13s-14 -10 -16 -16l-25.5 -73.5c-14.333 -41 -23.833 -69.667 -28.5 -86l-21.5 -73.5c-9.66699 -32.667 -16.834 -62.667 -21.501 -90
s-8 -55 -10 -83c-1.33301 -14 -11.666 -24.667 -30.999 -32c-20.667 -7.33301 -34 -11 -40 -11c-10 0 -19.667 4 -29 12c-10.667 9.33301 -16 24.333 -16 45c0 18 5.16699 42.333 15.5 73s17.5 56 21.5 76c3.33301 18.667 17.666 65.667 42.999 141c22.667 68 34 107 34 117
c0 5.33301 -7 15.166 -21 29.499s-22.333 25.833 -25 34.5c-3.33301 11.333 -5 19.666 -5 24.999c0 16 7.66699 24 23 24c7.33301 0 13.333 -1 18 -3c20 -7.33301 32.667 -11 38 -11s10.666 6.33301 15.999 19c63.333 151.333 114.666 259 153.999 323z" />
    <glyph glyph-name="f_r" unicode="fr" horiz-adv-x="556" 
d="M249 320c-40 -107.333 -73.335 -208.665 -100.002 -303.998c-23.333 -82.667 -38 -129.334 -44 -140.001c-8 -14.667 -14.667 -24.667 -20 -30s-12.666 -8 -21.999 -8c-24.667 0 -40.334 8 -47.001 24c-1.33301 3.33301 -4.16602 7.83301 -8.49902 13.5
s-7.16602 11.167 -8.49902 16.5c-2 12 -3 18.333 -3 19c0 10.667 5 26 15 46c16 32.667 28 63 36 91c2.66699 10 7.33398 24.333 14.001 43s10.334 29.667 11.001 33c11.333 36.667 25.666 78.667 42.999 126c16 44.667 24 70 24 76c0 4 -10.833 9 -32.5 15
s-35.167 14.667 -40.5 26c-1.33301 2.66699 -3.33301 5.5 -6 8.5s-4.5 6.16699 -5.5 9.5s-1.5 8.33301 -1.5 15c0 17.333 14.333 26 43 26c4.66699 0 12.5 -0.166992 23.5 -0.5s19.5 -0.5 25.5 -0.5c14.667 0 24 0.666992 28 2s7 4.66602 9 9.99902
c43.333 118.667 90.333 215 141 289c4.66699 6.66699 13.334 12.667 26.001 18s25.667 8 39 8c20 0 35 -6.33301 45 -19c6 -8 9 -16.333 9 -25s-4.33301 -20.334 -13 -35.001s-13.667 -23.667 -15 -27c-8 -20 -23.833 -45.333 -47.5 -76s-38.834 -52.667 -45.501 -66
c-12.667 -26 -21.334 -44.667 -26.001 -56c-2.66699 -6.66699 -4 -10.334 -4 -11.001c0 -2.66699 1.33301 -4 4 -4c0.666992 0 10 1.33301 28 4s32.667 4 44 4c26.667 0 50.334 -6 71.001 -18c26 -14.667 40.667 -31.667 44 -51c0.666992 -4 2 -6 4 -6s5 2 9 6
c16.667 16.667 41.5 35.167 74.5 55.5s60.5 30.5 82.5 30.5c33.333 0 60 -8.66699 80 -26c6 -5.33301 9 -14 9 -26c0 -11.333 -3.5 -22 -10.5 -32s-17.833 -15 -32.5 -15c-9.33301 0 -17.166 1.33301 -23.499 4s-12.833 4 -19.5 4c-2.66699 0 -7.33398 -1.66699 -14.001 -5
c-50 -25.333 -96.333 -63.5 -139 -114.5s-75.667 -115.167 -99 -192.5c-8 -26.667 -15.333 -44 -22 -52c-13.333 -16 -28.666 -24 -45.999 -24c-6.66699 0 -12.667 1 -18 3s-10.333 4.5 -15 7.5s-8 4.83301 -10 5.5c-14.667 5.33301 -22 15.333 -22 30
c0 14 6.66699 32.667 20 56c18 32 31 59 39 81c1.33301 4.66699 4.16602 12.334 8.49902 23.001s7.83301 20.334 10.5 29.001c19.333 60.667 29 101.667 29 123c0 14.667 -5.33301 22 -16 22c-6 0 -15 -1.5 -27 -4.5s-18.333 -4.5 -19 -4.5
c-4 -0.666992 -11.333 -2.16699 -22 -4.5s-19.334 -3.83301 -26.001 -4.5c-4.66699 -0.666992 -8 -2.16699 -10 -4.5s-4.66699 -7.83301 -8 -16.5z" />
    <glyph glyph-name="f_r_period" unicode="fr&#x2e;" horiz-adv-x="730" 
d="M249 320c-40 -107.333 -73.335 -208.665 -100.002 -303.998c-23.333 -82.667 -38 -129.334 -44 -140.001c-8 -14.667 -14.667 -24.667 -20 -30s-12.666 -8 -21.999 -8c-24.667 0 -40.334 8 -47.001 24c-1.33301 3.33301 -4.16602 7.83301 -8.49902 13.5
s-7.16602 11.167 -8.49902 16.5c-2 12 -3 18.333 -3 19c0 10.667 5 26 15 46c16 32.667 28 63 36 91c2.66699 10 7.33398 24.333 14.001 43s10.334 29.667 11.001 33c11.333 36.667 25.666 78.667 42.999 126c16 44.667 24 70 24 76c0 4 -10.833 9 -32.5 15
s-35.167 14.667 -40.5 26c-1.33301 2.66699 -3.33301 5.5 -6 8.5s-4.5 6.16699 -5.5 9.5s-1.5 8.33301 -1.5 15c0 17.333 14.333 26 43 26c4.66699 0 12.5 -0.166992 23.5 -0.5s19.5 -0.5 25.5 -0.5c14.667 0 24 0.666992 28 2s7 4.66602 9 9.99902
c43.333 118.667 90.333 215 141 289c4.66699 6.66699 13.334 12.667 26.001 18s25.667 8 39 8c20 0 35 -6.33301 45 -19c6 -8 9 -16.333 9 -25s-4.33301 -20.334 -13 -35.001s-13.667 -23.667 -15 -27c-8 -20 -23.833 -45.333 -47.5 -76s-38.834 -52.667 -45.501 -66
c-12.667 -26 -21.334 -44.667 -26.001 -56c-2.66699 -6.66699 -4 -10.334 -4 -11.001c0 -2.66699 1.33301 -4 4 -4c0.666992 0 10 1.33301 28 4s32.667 4 44 4c26.667 0 50.334 -6 71.001 -18c26 -14.667 40.667 -31.667 44 -51c0.666992 -4 2 -6 4 -6s5 2 9 6
c16.667 16.667 41.5 35.167 74.5 55.5s60.5 30.5 82.5 30.5c33.333 0 60 -8.66699 80 -26c6 -5.33301 9 -14 9 -26c0 -11.333 -3.5 -22 -10.5 -32s-17.833 -15 -32.5 -15c-9.33301 0 -17.166 1.33301 -23.499 4s-12.833 4 -19.5 4c-2.66699 0 -7.33398 -1.66699 -14.001 -5
c-50 -25.333 -96.333 -63.5 -139 -114.5s-75.667 -115.167 -99 -192.5c-8 -26.667 -15.333 -44 -22 -52c-13.333 -16 -28.666 -24 -45.999 -24c-6.66699 0 -12.667 1 -18 3s-10.333 4.5 -15 7.5s-8 4.83301 -10 5.5c-14.667 5.33301 -22 15.333 -22 30
c0 14 6.66699 32.667 20 56c18 32 31 59 39 81c1.33301 4.66699 4.16602 12.334 8.49902 23.001s7.83301 20.334 10.5 29.001c19.333 60.667 29 101.667 29 123c0 14.667 -5.33301 22 -16 22c-6 0 -15 -1.5 -27 -4.5s-18.333 -4.5 -19 -4.5
c-4 -0.666992 -11.333 -2.16699 -22 -4.5s-19.334 -3.83301 -26.001 -4.5c-4.66699 -0.666992 -8 -2.16699 -10 -4.5s-4.66699 -7.83301 -8 -16.5zM668.998 101.001c5.33301 -10.667 7.99902 -19.666 7.99902 -26.999c0 -4.66699 -1 -11.167 -3 -19.5
s-3.33301 -15.166 -4 -20.499c-1.33301 -10.667 -7.5 -20.834 -18.5 -30.501s-24.5 -14.5 -40.5 -14.5c-12 0 -23.667 2.66699 -35 8l-23 10c-15.333 6 -23 18.333 -23 37c0 12 2.66699 23.333 8 34c7.33301 13.333 11.666 21.666 12.999 24.999
c8.66699 24 25.334 36 50.001 36c15.333 0 29.333 -4 42 -12s21.334 -16.667 26.001 -26z" />
    <glyph glyph-name="f_r_period_b_period" unicode="fr&#x2e;b&#x2e;" horiz-adv-x="1374" 
d="M249 320c-40 -107.333 -73.335 -208.665 -100.002 -303.998c-23.333 -82.667 -38 -129.334 -44 -140.001c-8 -14.667 -14.667 -24.667 -20 -30s-12.666 -8 -21.999 -8c-24.667 0 -40.334 8 -47.001 24c-1.33301 3.33301 -4.16602 7.83301 -8.49902 13.5
s-7.16602 11.167 -8.49902 16.5c-2 12 -3 18.333 -3 19c0 10.667 5 26 15 46c16 32.667 28 63 36 91c2.66699 10 7.33398 24.333 14.001 43s10.334 29.667 11.001 33c11.333 36.667 25.666 78.667 42.999 126c16 44.667 24 70 24 76c0 4 -10.833 9 -32.5 15
s-35.167 14.667 -40.5 26c-1.33301 2.66699 -3.33301 5.5 -6 8.5s-4.5 6.16699 -5.5 9.5s-1.5 8.33301 -1.5 15c0 17.333 14.333 26 43 26c4.66699 0 12.5 -0.166992 23.5 -0.5s19.5 -0.5 25.5 -0.5c14.667 0 24 0.666992 28 2s7 4.66602 9 9.99902
c43.333 118.667 90.333 215 141 289c4.66699 6.66699 13.334 12.667 26.001 18s25.667 8 39 8c20 0 35 -6.33301 45 -19c6 -8 9 -16.333 9 -25s-4.33301 -20.334 -13 -35.001s-13.667 -23.667 -15 -27c-8 -20 -23.833 -45.333 -47.5 -76s-38.834 -52.667 -45.501 -66
c-12.667 -26 -21.334 -44.667 -26.001 -56c-2.66699 -6.66699 -4 -10.334 -4 -11.001c0 -2.66699 1.33301 -4 4 -4c0.666992 0 10 1.33301 28 4s32.667 4 44 4c26.667 0 50.334 -6 71.001 -18c26 -14.667 40.667 -31.667 44 -51c0.666992 -4 2 -6 4 -6s5 2 9 6
c16.667 16.667 41.5 35.167 74.5 55.5s60.5 30.5 82.5 30.5c33.333 0 60 -8.66699 80 -26c6 -5.33301 9 -14 9 -26c0 -11.333 -3.5 -22 -10.5 -32s-17.833 -15 -32.5 -15c-9.33301 0 -17.166 1.33301 -23.499 4s-12.833 4 -19.5 4c-2.66699 0 -7.33398 -1.66699 -14.001 -5
c-50 -25.333 -96.333 -63.5 -139 -114.5s-75.667 -115.167 -99 -192.5c-8 -26.667 -15.333 -44 -22 -52c-13.333 -16 -28.666 -24 -45.999 -24c-6.66699 0 -12.667 1 -18 3s-10.333 4.5 -15 7.5s-8 4.83301 -10 5.5c-14.667 5.33301 -22 15.333 -22 30
c0 14 6.66699 32.667 20 56c18 32 31 59 39 81c1.33301 4.66699 4.16602 12.334 8.49902 23.001s7.83301 20.334 10.5 29.001c19.333 60.667 29 101.667 29 123c0 14.667 -5.33301 22 -16 22c-6 0 -15 -1.5 -27 -4.5s-18.333 -4.5 -19 -4.5
c-4 -0.666992 -11.333 -2.16699 -22 -4.5s-19.334 -3.83301 -26.001 -4.5c-4.66699 -0.666992 -8 -2.16699 -10 -4.5s-4.66699 -7.83301 -8 -16.5zM844.998 23.001c-1.33301 0 -4.16699 -0.332031 -8.5 -0.999023s-7.5 -1 -9.5 -1c-7.33301 0 -13.5 1.16699 -18.5 3.5
s-8.5 4.5 -10.5 6.5s-5 5.83301 -9 11.5l-8 11.5c-3.33301 4 -5 10 -5 18s2.33301 18.667 7 32c34 96 64 174 90 234l163 379c5.33301 12.667 10 22.334 14 29.001s9.83301 12.5 17.5 17.5s16.834 7.5 27.501 7.5c6 0 10.833 -0.333008 14.5 -1s8.16699 -2 13.5 -4
s11.333 -3.66699 18 -5c20.667 -5.33301 31 -15 31 -29c0 -9.33301 -4.33301 -20.5 -13 -33.5s-13.334 -20.833 -14.001 -23.5c-2 -7.33301 -8 -17.5 -18 -30.5s-16.333 -22.167 -19 -27.5c-12.667 -24 -34.667 -71 -66 -141c-4 -8.66699 -6 -13.667 -6 -15
c0 -2.66699 1.66699 -4 5 -4l5 1c4 1.33301 9 2.5 15 3.5s11.667 1.5 17 1.5c14 0 27 -2.66699 39 -8c15.333 -6.66699 27.666 -18.334 36.999 -35.001c1.33301 -2.66699 3.83301 -6.83398 7.5 -12.501l9 -14c2.33301 -3.66699 4.5 -8.5 6.5 -14.5s3 -11.667 3 -17
c0 -49.333 -18.667 -113 -56 -191s-81 -135.667 -131 -173c-18 -13.333 -37.667 -20 -59 -20c-27.333 0 -51.666 11.667 -72.999 35c-6 6.66699 -11.333 10 -16 10zM1067 380.002c-8 0 -17.666 -5.00098 -28.999 -15.001c-34.667 -30 -59.334 -62 -74.001 -96l-25 -57
c-12.667 -28.667 -19 -48.667 -19 -60c0 -2 1 -4.83301 3 -8.5s3 -7.5 3 -11.5c0 -3.33301 -1 -9.16602 -3 -17.499s-3 -16.5 -3 -24.5c0 -12.667 1.66699 -19 5 -19s9 4.66699 17 14c39.333 46.667 70.833 95.167 94.5 145.5s35.5 91.833 35.5 124.5
c0 16.667 -1.66699 25 -5 25zM1313 105.001c6 -10 9 -18.998 9 -26.998c0 -4 -1.16699 -10.167 -3.5 -18.5s-3.83301 -15.5 -4.5 -21.5c-0.666992 -10 -6.5 -20 -17.5 -30s-24.833 -15 -41.5 -15c-10.667 0 -22.334 2.66699 -35.001 8l-23 10c-15.333 6 -23 18.333 -23 37
c0 8.66699 1.16699 16.167 3.5 22.5s5.33301 12.666 9 18.999s6.5 12.166 8.5 17.499c8.66699 24 25.334 36 50.001 36c30 0 52.667 -12.667 68 -38zM668.998 101.003c5.33301 -10.667 7.99902 -19.666 7.99902 -26.999c0 -4.66699 -1 -11.167 -3 -19.5
s-3.33301 -15.166 -4 -20.499c-1.33301 -10.667 -7.5 -20.834 -18.5 -30.501s-24.5 -14.5 -40.5 -14.5c-12 0 -23.667 2.66699 -35 8l-23 10c-15.333 6 -23 18.333 -23 37c0 12 2.66699 23.333 8 34c7.33301 13.333 11.666 21.666 12.999 24.999
c8.66699 24 25.334 36 50.001 36c15.333 0 29.333 -4 42 -12s21.334 -16.667 26.001 -26z" />
    <glyph glyph-name=".notdef" horiz-adv-x="420" 
d="M21 0v700h378v-700h-378zM85 64h250v572h-250v-572z" />
    <glyph glyph-name=".null" horiz-adv-x="0" 
 />
    <glyph glyph-name=".null" horiz-adv-x="0" 
 />
    <glyph glyph-name="CR" unicode="&#xd;" horiz-adv-x="246" 
 />
    <glyph glyph-name="space" unicode=" " horiz-adv-x="246" 
 />
    <glyph glyph-name="exclam" unicode="!" horiz-adv-x="320" 
d="M350 624c20 -8 29.9971 -21.0039 29.9971 -39.0039c0 -11.333 -4.83301 -27.5 -14.5 -48.5s-14.834 -33.167 -15.501 -36.5l-22 -76l-25 -85.5c-4.66699 -15.667 -12.167 -38.167 -22.5 -67.5s-20.5 -55.666 -30.5 -78.999c-4.66699 -11.333 -12.667 -17 -24 -17
c-4.66699 0 -11 1.66699 -19 5c-9.33301 4.66699 -14.666 10.334 -15.999 17.001c-1.33301 8 -6.16602 15.833 -14.499 23.5s-12.5 14.834 -12.5 21.501c0 2 1.33301 7.66699 4 17c2 6.66699 3.83301 14.334 5.5 23.001s2.83398 15 3.50098 19
c5.33301 22 13.333 51.667 24 89s19.667 70.5 27 99.5s12.333 54.833 15 77.5c6.66699 55.333 23.334 83 50.001 83c6 0 12.167 -1.66699 18.5 -5s9.83301 -5 10.5 -5c6.66699 -2 12.5 -5 17.5 -9s8.5 -6.33301 10.5 -7zM199.997 93.9961
c19.333 -2 29.001 -11.998 29.001 -29.998c0 -8 -2.66699 -20 -8 -36c-9.33301 -26 -22.333 -39 -39 -39c-4 0 -9.5 -0.166992 -16.5 -0.5s-11.833 -0.5 -14.5 -0.5c-15.333 0 -27 4.33301 -35 13c-13.333 15.333 -20 32.666 -20 51.999c0 12 3 23.667 9 35l3 10
c2 6.66699 4.83301 11.167 8.5 13.5s9.5 3.5 17.5 3.5c11.333 0 23.166 -3.33301 35.499 -10s22.5 -10.334 30.5 -11.001z" />
    <glyph glyph-name="quotedbl" unicode="&#x22;" horiz-adv-x="356" 
d="M319 460l22.999 95.001c13.333 55.333 20 86.333 20 93c0 15.333 12 23 36 23c22 0 37.667 -6 47 -18c2 -2.66699 5.5 -6.33398 10.5 -11.001s8.33301 -8.66699 10 -12s2.5 -7.66602 2.5 -12.999c0 -10 -1.66699 -21.5 -5 -34.5s-7.33301 -26 -12 -39
s-7.33398 -21.5 -8.00098 -25.5l-35 -139c-3.33301 -13.333 -14.666 -20 -33.999 -20c-11.333 0 -23.666 2.33301 -36.999 7c-9.33301 3.33301 -16.833 8.66602 -22.5 15.999s-8.5 13.666 -8.5 18.999c0 4.66699 4.33301 24.334 13 59.001zM156.999 435.001l34.999 138.997
c6 22.667 10.333 49.667 13 81c2 16 11.333 24 28 24c8 0 17.167 -2.33301 27.5 -7s16.5 -7.33398 18.5 -8.00098c24 -5.33301 36 -17.666 36 -36.999c0 -4 -1.33301 -11 -4 -21l-10.5 -39c-4.33301 -16 -7.83301 -29.667 -10.5 -41l-31 -133
c-4.66699 -16 -17.334 -24 -38.001 -24c-3.33301 0 -9.66602 1.16699 -18.999 3.5s-14.666 3.5 -15.999 3.5c-8 0 -16 4.16699 -24 12.5s-12 14.833 -12 19.5c0 2.66699 0.333008 5.33398 1 8.00098s1.66699 5.83398 3 9.50098s2.33301 6.83398 3 9.50098z" />
    <glyph glyph-name="numbersign" unicode="#" horiz-adv-x="650" 
d="M503 260l39.0098 0.00292969c56 0 84.667 -5 86 -15c0 -2 2 -4.83301 6 -8.5s6 -7.83398 6 -12.501c0 -4 -1.33301 -9 -4 -15s-4.33398 -10 -5.00098 -12c-2.66699 -14.667 -11.334 -22 -26.001 -22c-8.66699 0 -22.334 0.5 -41.001 1.5s-32.334 1.5 -41.001 1.5
c-28.667 0 -45.667 -0.666992 -51 -2c-2.66699 -0.666992 -5.66699 -5.33398 -9 -14.001c-8.66699 -23.333 -19.5 -49.166 -32.5 -77.499s-21.5 -47.166 -25.5 -56.499c-16.667 -39.333 -28.667 -61.333 -36 -66c-3.33301 -2 -8.33301 -3 -15 -3
c-20.667 0 -34.667 3.66699 -42 11c-0.666992 0.666992 -2.5 2.16699 -5.5 4.5s-5.66699 4.5 -8 6.5s-4.5 4.83301 -6.5 8.5s-3 7.5 -3 11.5s2.66699 13.333 8 28c2 6.66699 5.5 13.5 10.5 20.5s7.83301 11.833 8.5 14.5l38 98c0 4.66699 -1.66699 7 -5 7
c-15.333 0 -32.666 -1 -51.999 -3c-6.66699 -0.666992 -11.334 -4.66699 -14.001 -12c-28 -72.667 -51 -126.667 -69 -162c-7.33301 -14.667 -13 -23.834 -17 -27.501s-8.66699 -5.5 -14 -5.5c-2.66699 0 -7.33398 0.833008 -14.001 2.5s-12.334 2.83398 -17.001 3.50098
c-25.333 2.66699 -38 13 -38 31c0 7.33301 2.5 17.5 7.5 30.5s11.5 27.667 19.5 44s13 27.166 15 32.499l22 57c0 4 -2 6 -6 6c-0.666992 0 -11.834 -0.833008 -33.501 -2.5s-37.167 -2.5 -46.5 -2.5c-22 0 -33 8.66699 -33 26c0 2 0.5 4.5 1.5 7.5s1.5 4.83301 1.5 5.5
c0 2.66699 -0.166992 6 -0.5 10s-0.5 6.66699 -0.5 8c0 2.66699 1.16699 6.16699 3.5 10.5s6.66602 9 12.999 14s13.833 7.5 22.5 7.5h90c15.333 0 24.666 4 27.999 12l29 67c0 4 -1.66699 6 -5 6h-67c-22.667 0 -37 1.66699 -43 5c-9.33301 5.33301 -14 11.666 -14 18.999
c0 5.33301 1.66699 12.166 5 20.499s5 13.5 5 15.5c0 19.333 16.333 29 49 29c7.33301 0 22 -0.666992 44 -2s33.333 -2 34 -2c12.667 0 20.667 0.833008 24 2.5s6.66602 7.16699 9.99902 16.5l53 135c0 0.666992 1.5 5 4.5 13s5.5 14 7.5 18s4.83301 9.33301 8.5 16
s7.83398 12 12.501 16s10 6.66699 16 8c5.33301 1.33301 10.333 2 15 2c5.33301 0 10.833 -1 16.5 -3s8.83398 -3 9.50098 -3c14.667 0 25.167 -4.5 31.5 -13.5s9.5 -19.167 9.5 -30.5c0 -3.33301 -1.66699 -7.66602 -5 -12.999c-3.33301 -6 -7.83301 -12.833 -13.5 -20.5
s-9.5 -13.5 -11.5 -17.5c-8.66699 -16 -26.334 -55.333 -53.001 -118c0 -2.66699 1.33301 -4 4 -4c37.333 0 57.666 1 60.999 3c2.66699 2.66699 5.66699 8.33398 9 17.001l53 130c3.33301 7.33301 8.5 17.166 15.5 29.499s10.833 22.5 11.5 30.5
c0.666992 8.66699 10 13 28 13c19.333 0 37.333 -5.33301 54 -16c15.333 -10 23 -19.333 23 -28c0 -6.66699 -2 -13 -6 -19c-20.667 -32.667 -31.334 -49.667 -32.001 -51c-23.333 -46.667 -38 -79.667 -44 -99c0 -2.66699 1.33301 -4 4 -4c0.666992 0 5 0.333008 13 1
s17.833 1.16699 29.5 1.5s22.167 0.5 31.5 0.5c19.333 0 31.333 -0.5 36 -1.5s8.33398 -4.5 11.001 -10.5c5.33301 -12 8 -21 8 -27c0 -6.66699 -2.5 -11.834 -7.5 -15.501s-8.16699 -7.16699 -9.5 -10.5c-3.33301 -10 -8 -16 -14 -18s-20.667 -3 -44 -3
c-58 0 -88.333 -1.33301 -91 -4c-2 -2 -4 -5 -6 -9c-8 -16.667 -17.667 -40 -29 -70c0 -2.66699 1.33301 -4 4 -4zM326.01 253.003c0.666992 0 3.99805 0.166016 9.99805 0.499023s13.167 0.833008 21.5 1.5s15.5 1 21.5 1s9.83301 0.833008 11.5 2.5
s3.83398 5.83398 6.50098 12.501l25 63c0 4 -2 6 -6 6c-31.333 0 -50.666 -1 -57.999 -3c-3.33301 -0.666992 -6.33301 -4.66699 -9 -12l-26 -69c0 -2 1 -3 3 -3z" />
    <glyph glyph-name="dollar" unicode="$" horiz-adv-x="462" 
d="M399 513c-0.666992 -1.33301 -2.50098 -7.16699 -5.50098 -17.5s-7.16699 -23.166 -12.5 -38.499l-17 -50c-8 -22.667 -12 -37 -12 -43c0 -4.66699 2.33301 -12 7 -22l25 -56c0.666992 -0.666992 2.66699 -4.83398 6 -12.501l9.5 -21.5l11.5 -26
c4.66699 -10.667 8.66699 -21 12 -31l10 -31.5c3.33301 -11 5.83301 -22 7.5 -33s2.5 -21.167 2.5 -30.5c0 -46.667 -21 -82.334 -63 -107.001c-12.667 -7.33301 -35 -11 -67 -11c-12.667 0 -24.5 0.666992 -35.5 2s-19.5 2.5 -25.5 3.5s-9.33301 1.5 -10 1.5
c-2.66699 0 -4.33398 -6 -5.00098 -18c-1.33301 -13.333 -2.5 -23.333 -3.5 -30s-5 -14.167 -12 -22.5s-16.833 -12.5 -29.5 -12.5c-3.33301 0 -11.666 1.33301 -24.999 4c-3.33301 0.666992 -6.83301 1.16699 -10.5 1.5s-6.5 0.666016 -8.5 0.999023s-4 1 -6 2
s-3.33301 2.5 -4 4.5c-3.33301 7.33301 -5 15.666 -5 24.999c0 18 4.66699 37.667 14 59c2.66699 6 4 10.667 4 14c0 2 -2.66699 4.66699 -8 8c-25.333 14.667 -49.666 35.334 -72.999 62.001c-3.33301 4 -8.83301 9.66699 -16.5 17s-14.167 14.333 -19.5 21
c-15.333 19.333 -23 41.333 -23 66c0 15.333 4.33301 27.333 13 36c2.66699 2.66699 5 4.33398 7 5.00098s4.33301 1.33398 7 2.00098h3c9.33301 2 17.666 3 24.999 3c6 0 11.833 -0.833008 17.5 -2.5s10.834 -3.5 15.501 -5.5l7 -3
c13.333 -3.33301 23.833 -8.83301 31.5 -16.5s11.5 -15.834 11.5 -24.501c0 -2 -0.666992 -5.33301 -2 -10s-2 -8.66699 -2 -12c0 -18 8.66699 -34 26 -48c4.66699 -4 8 -6 10 -6c1.33301 0 3 3.33301 5 10c5.33301 18.667 14.666 48.167 27.999 88.5s23 71.166 29 92.499
c2 6.66699 3 11.667 3 15c0 6.66699 -4 18.334 -12 35.001c-1.33301 3.33301 -5.16602 11.5 -11.499 24.5s-10.5 22 -12.5 27s-5.5 13 -10.5 24s-8.5 19.833 -10.5 26.5l-7.5 24c-3 9.33301 -5 18 -6 26s-1.5 15.667 -1.5 23c0 29.333 5 52 15 68s25 31.667 45 47
c18.667 14.667 42.667 22 72 22c13.333 0 25.166 -0.833008 35.499 -2.5s15.833 -2.5 16.5 -2.5c2.66699 0 5 2.66699 7 8c9.33301 26 14 41.667 14 47c0 16 15.333 24 46 24c13.333 0 25.333 -2.33301 36 -7s16 -11 16 -19c0 -4.66699 -1.5 -11 -4.5 -19s-4.5 -14 -4.5 -18
c0 -4.66699 -5.66699 -16 -17 -34c-6 -8.66699 -9 -14 -9 -16c0 -1.33301 4.66699 -5 14 -11c20 -13.333 39.333 -29.666 58 -48.999s28 -34.333 28 -45c0 -4.66699 -0.666992 -8.5 -2 -11.5s-3.33301 -5.5 -6 -7.5l-3 -3c-2 -3.33301 -6.83301 -7.33301 -14.5 -12
s-11.834 -7.33398 -12.501 -8.00098c-2.66699 -2.66699 -7 -4 -13 -4c-2 0 -7 1 -15 3c-0.666992 0 -2.16699 0.5 -4.5 1.5s-5.83301 1.83301 -10.5 2.5c-5.33301 0.666992 -9.83301 2.33398 -13.5 5.00098s-8.16699 7 -13.5 13s-8.66602 9.66699 -9.99902 11
c-3.33301 3.33301 -7.66602 9.33301 -12.999 18c-0.666992 2 -2 3 -4 3s-4.66699 -5.33301 -8 -16zM292.999 179.999l-30 -98c-2.66699 -8 -4 -13.333 -4 -16c0 -5.33301 9.66699 -8 29 -8c27.333 0 41 11 41 33c0 30 -5 59.667 -15 89c-4.66699 14 -8.66699 21 -12 21
c-2 0 -5 -7 -9 -21zM299.999 478.999c2 8 6.50195 21.834 13.502 41.501s11.167 31.167 12.5 34.5c4.66699 13.333 7 20.666 7 21.999c0 2 -1.66699 4 -5 6c-4.66699 2.66699 -10.334 4 -17.001 4c-21.333 0 -32 -19.333 -32 -58c0 -11.333 3.66699 -27.333 11 -48
c2.66699 -7.33301 4.66699 -11 6 -11s2.66602 3 3.99902 9z" />
    <glyph glyph-name="percent" unicode="%" horiz-adv-x="780" 
d="M456 548c-3.33301 0 -5.00195 -2.00098 -5.00195 -6.00098c0 -66 -21.333 -125 -64 -177c-29.333 -36 -62 -54 -98 -54c-47.333 0 -87.333 21.667 -120 65c-18.667 24.667 -28 50.667 -28 78s13 65.666 39 114.999c33.333 62.667 78.666 94 135.999 94
c23.333 0 42 -5.66699 56 -17c6 -5.33301 12 -8.66602 18 -9.99902c40.667 -10 68.667 -15 84 -15c68.667 0 109.667 8.66699 123 26c7.33301 9.33301 15.666 14 24.999 14c22.667 0 39.334 -4 50.001 -12c14 -10 21 -23 21 -39c0 -15.333 -6.33301 -28.666 -19 -39.999
c-15.333 -13.333 -31.666 -33.333 -48.999 -60l-275 -435l-34 -52c-13.333 -20 -21 -31.333 -23 -34c-6.66699 -10.667 -19.667 -16 -39 -16c-18.667 0 -34.667 5.33301 -48 16c-8.66699 7.33301 -13 19 -13 35c0 17.333 4.33301 27.666 13 30.999
c6.66699 2.66699 12.334 8 17.001 16c8.66699 13.333 15.667 21.333 21 24c4.66699 2.66699 14.334 15.667 29.001 39l104 168l129 206c12.667 18.667 19 29.334 19 32.001s-1.66699 4 -5 4c-0.666992 0 -3.33398 -0.166992 -8.00098 -0.5s-8 -0.5 -10 -0.5
c-9.33301 0 -24.666 1.66699 -45.999 5zM702.998 296.999c32.667 -19.333 48.999 -47.667 48.999 -85c0 -57.333 -18.667 -114.666 -56 -171.999c-22.667 -35.333 -59.667 -53 -111 -53c-46.667 0 -82 12 -106 36c-8 8 -16.333 20.167 -25 36.5s-13 30.166 -13 41.499
c0 43.333 13.667 88.333 41 135c20.667 34 39.334 57.833 56.001 71.5s39.334 20.5 68.001 20.5c29.333 0 61.666 -10.333 96.999 -31zM343.997 568.998c-11.333 4.66699 -17 12 -17 22c0 1.33301 -0.666992 2 -2 2c-3.33301 0 -8.33301 -4.33301 -15 -13
c-44.667 -59.333 -67 -110.333 -67 -153c0 -13.333 2.66699 -25.333 8 -36c4 -8 10 -12 18 -12s17.333 8.66699 28 26c36.667 62 55 107.667 55 137c0 16 -2.66699 25 -8 27zM643.997 243.998c-6 2.66699 -10.666 7 -13.999 13c-1.33301 3.33301 -3 5 -5 5
c-2.66699 0 -7.33398 -4.66699 -14.001 -14c-44 -63.333 -66 -116.333 -66 -159c0 -12.667 1.83301 -23.167 5.5 -31.5s7.5 -12.5 11.5 -12.5c18 0 37.333 23.833 58 71.5s31 83.167 31 106.5c0 11.333 -2.33301 18.333 -7 21z" />
    <glyph glyph-name="ampersand" unicode="&#x26;" horiz-adv-x="528" 
d="M420 199c26.667 24 49.0029 36 67.0029 36c10 0 17.333 -1.66699 22 -5c9.33301 -6 14 -21 14 -45c0 -15.333 -2.16699 -26.833 -6.5 -34.5s-12.166 -14.834 -23.499 -21.501c-4 -2.66699 -10 -7 -18 -13s-19.333 -13.667 -34 -23c-6.66699 -4 -10 -8 -10 -12
c0 -2 0.666992 -4.66699 2 -8s4.16602 -11 8.49902 -23s8.16602 -22 11.499 -30c4 -9.33301 6 -17 6 -23c0 -8.66699 -5 -13 -15 -13c-6.66699 0 -11.667 0.666992 -15 2s-6 2 -8 2c-0.666992 0 -3 -0.5 -7 -1.5s-7 -1.5 -9 -1.5c-10.667 0 -21.834 3 -33.501 9
s-18.167 12.333 -19.5 19c-0.666992 4.66699 -2.33398 9.33398 -5.00098 14.001c-2.66699 5.33301 -5 8 -7 8s-10.667 -3.16699 -26 -9.5s-26.666 -10.5 -33.999 -12.5c-37.333 -9.33301 -69 -14 -95 -14c-18.667 0 -36.334 2.66699 -53.001 8
c-11.333 3.33301 -20.5 8.33301 -27.5 15s-13.333 14.334 -19 23.001s-10.167 14.667 -13.5 18c-12 10.667 -18 27.667 -18 51c0 14 3 27.333 9 40c7.33301 16.667 16.5 32.667 27.5 48s20.833 27.833 29.5 37.5s21.667 23.167 39 40.5l12 11.5l22.5 20.5l29.5 27
c8 8 12 14.667 12 20c0 4 -0.666992 8.66699 -2 14c-6 26 -9 53.333 -9 82c0 25.333 1.66699 44 5 56c4 17.333 9.33301 31.666 16 42.999c27.333 50 67.333 75 120 75c19.333 0 37.333 -3.66699 54 -11c5.33301 -2.66699 9.16602 -5 11.499 -7s4.83301 -4.5 7.5 -7.5
s5.66699 -5.83301 9 -8.5c22 -18 33 -39.333 33 -64c0 -16.667 -5.33301 -39 -16 -67c-7.33301 -20 -43 -62 -107 -126c-4.66699 -4.66699 -7 -8.66699 -7 -12c0 -2.66699 1 -7.66699 3 -15c4.66699 -16.667 11.667 -39.167 21 -67.5l16 -48.5
c2.66699 -8.66699 5.33398 -13 8.00098 -13s10 5.66699 22 17zM248.003 230c-12.667 -12.667 -30.668 -35 -54.001 -67c-20.667 -26.667 -31 -48.667 -31 -66c0 -9.33301 5.66699 -14 17 -14c26.667 0 66.334 11.667 119.001 35c6 2.66699 9 5 9 7
c0 3.33301 -1.33301 9 -4 17l-32 95c-2 5.33301 -3.66699 8 -5 8c-2.66699 0 -9 -5 -19 -15zM342.002 453c10 12 17.666 23.1699 22.999 33.5029s9 18.833 11 25.5s3.33301 10.667 4 12c4.66699 9.33301 7 17.666 7 24.999c0 6.66699 -1.66699 10 -5 10
s-8.66602 -2 -15.999 -6s-13.333 -10 -18 -18c-11.333 -18.667 -19 -33.334 -23 -44.001s-6 -24.334 -6 -41.001c0 -12 1 -18 3 -18s8.66699 7 20 21z" />
    <glyph glyph-name="quotesingle" unicode="'" horiz-adv-x="232" 
d="M171 446l31.002 128.999c5.33301 24 9.33301 51 12 81c2 16 11.667 24 29 24c9.33301 0 17.166 -1.33301 23.499 -4s11.5 -5.66699 15.5 -9s7 -5.33301 9 -6c23.333 -6.66699 35 -19.667 35 -39c0 -8 -1 -15.333 -3 -22s-5.16699 -16.667 -9.5 -30
s-8.5 -28.666 -12.5 -45.999l-27 -125c-4.66699 -20.667 -18.334 -31 -41.001 -31c-6.66699 0 -14 1.33301 -22 4s-13 4 -15 4c-8 0 -16 4.66699 -24 14s-12 16.333 -12 21c0 4 1.66699 10 5 18s5.33301 13.667 6 17z" />
    <glyph glyph-name="parenleft" unicode="(" horiz-adv-x="330" 
d="M151 -83c-16.667 2.66699 -29.5029 16.666 -38.5029 41.999s-14 45.833 -15 61.5s-1.5 30.167 -1.5 43.5c0 72 8 140.333 24 205c14 57.333 39.333 125 76 203s83.667 151.333 141 220c3.33301 4 9.33301 8.83301 18 14.5s14.667 10.167 18 13.5
c8.66699 8.66699 19.334 13 32.001 13s24.667 -4.66699 36 -14s17 -23.666 17 -42.999c0 -20.667 -4.33301 -41 -13 -61c-6 -13.333 -17.667 -20 -35 -20c-7.33301 0 -12.666 -1 -15.999 -3s-8 -7 -14 -15c-49.333 -61.333 -93.666 -139 -132.999 -233
c-36 -86.667 -54 -173.667 -54 -261c0 -32.667 1 -53.334 3 -62.001c2 -7.33301 7.33301 -18.166 16 -32.499s13 -30.166 13 -47.499c0 -8.66699 -3.16699 -16.834 -9.5 -24.501s-17.166 -11.5 -32.499 -11.5c-6.66699 0 -13.334 2 -20.001 6s-10.667 6 -12 6z" />
    <glyph glyph-name="parenright" unicode=")" horiz-adv-x="330" 
d="M259 494c0 69.333 -2.66895 113.668 -8.00195 133.001c-1.33301 6 -5.83301 15.5 -13.5 28.5s-11.5 23.833 -11.5 32.5c0 15.333 5 23.666 15 24.999c0.666992 0 5.83398 3.16699 15.501 9.5s19.167 9.5 28.5 9.5c21.333 0 40.333 -9.66699 57 -29
c7.33301 -8.66699 13.333 -32.667 18 -72c4 -32.667 6 -67 6 -103c0 -166.667 -38.667 -310.334 -116 -431.001c-44.667 -70.667 -98 -129.667 -160 -177c-10.667 -8 -22.667 -12 -36 -12c-10 0 -18.5 1.83301 -25.5 5.5s-11.667 7.33398 -14 11.001
s-5.16602 9.16699 -8.49902 16.5s-5.33301 12 -6 14c-5.33301 9.33301 -8 16 -8 20s1.66699 7.33301 5 10s7.83301 5.5 13.5 8.5s10.167 6.16699 13.5 9.5c21.333 21.333 37 32 47 32c3.33301 0 9.66602 4.66699 18.999 14c20.667 20.667 37.334 39.834 50.001 57.501
s29 45.5 49 83.5c46.667 87.333 70 188.666 70 303.999z" />
    <glyph glyph-name="asterisk" unicode="*" horiz-adv-x="414" 
d="M481 546c11.333 0 19.998 -0.999023 25.998 -2.99902c5.33301 -1.33301 9.5 -3.5 12.5 -6.5s4.83301 -5.33301 5.5 -7s1.33398 -4.5 2.00098 -8.5s1.33398 -6.66699 2.00098 -8c0.666992 -2 1 -4.33301 1 -7c0 -0.666992 -3 -8 -9 -22
c-4 -9.33301 -9.16699 -15 -15.5 -17s-18.833 -3 -37.5 -3c-6 0 -27.667 -3 -65 -9c-8 -1.33301 -12 -2.66602 -12 -3.99902c0 -2 2 -5.66699 6 -11c1.33301 -2 5.33301 -9.5 12 -22.5s13.334 -23.167 20.001 -30.5c8.66699 -9.33301 13 -17.333 13 -24
c0 -8.66699 -3 -15.667 -9 -21c-0.666992 -0.666992 -2.66699 -2.5 -6 -5.5l-9 -8c-2.66699 -2.33301 -6.16699 -4.5 -10.5 -6.5s-8.83301 -3 -13.5 -3c-12.667 0 -22.667 5 -30 15c-14 18 -25.667 36 -35 54c-5.33301 10 -8.66602 15 -9.99902 15
s-5.33301 -5.66699 -12 -17c-8 -13.333 -13.667 -24.666 -17 -33.999c-3.33301 -8 -11.666 -16 -24.999 -24c-7.33301 -4 -16 -6 -26 -6c-13.333 0 -25.833 3.16699 -37.5 9.5s-17.5 14.166 -17.5 23.499c0 3.33301 2.33301 8.33301 7 15l47 70c6 8 9 12.667 9 14s-1 2 -3 2
c-32 0 -56.333 1.33301 -73 4c-12.667 2 -21.834 5.16699 -27.501 9.5s-8.5 11.166 -8.5 20.499c0 4 0.833008 9.66699 2.5 17s2.5 12.333 2.5 15s2.66699 6.66699 8 12c7.33301 7.33301 15.666 11 24.999 11c4 0 6.66699 -0.166992 8 -0.5s2.66602 -0.833008 3.99902 -1.5
s3.33301 -1.33398 6 -2.00098c12 -2 25 -3 39 -3c3.33301 0 7.33301 -0.166992 12 -0.5s8.66699 -0.833008 12 -1.5h5c2 0 3 1 3 3s-2.66699 9.66699 -8 23l-10.5 24.5l-8 18c-1.66699 3.66699 -3.16699 7.66699 -4.5 12s-2 8.16602 -2 11.499c0 8 2.66699 14 8 18l16.5 13
c5.66699 4.66699 9.66699 7.83398 12 9.50098s5 3 8 4s6.5 1.5 10.5 1.5c14.667 0 24.667 -5 30 -15c4.66699 -8.66699 10.667 -27 18 -55c3.33301 -11.333 5.66602 -17 6.99902 -17s5 3.66699 11 11c2.66699 4 7 9.5 13 16.5s9.66699 11.5 11 13.5
c0.666992 0.666992 2.33398 3 5.00098 7l6.5 9.5c1.66699 2.33301 4.16699 5 7.5 8s7 5.33301 11 7s8.33301 2.5 13 2.5c22.667 0 38.667 -2 48 -6c16.667 -6.66699 25 -13.334 25 -20.001c0 -7.33301 -3.66699 -16 -11 -26c-4 -5.33301 -9.66699 -11.666 -17 -18.999
l-13 -13c-20 -22.667 -30 -35 -30 -37c0 -1.33301 0.666992 -2 2 -2c0.666992 0 8.16699 1.16699 22.5 3.5s26.833 3.5 37.5 3.5z" />
    <glyph glyph-name="plus" unicode="+" horiz-adv-x="590" 
d="M392 315c0 -2 1.33398 -3.00293 4.00098 -3.00293c12 0 30.167 1.5 54.5 4.5s42.833 4.5 55.5 4.5c18 0 32.333 -3.66699 43 -11s16 -15.333 16 -24c0 -4 -0.833008 -8.66699 -2.5 -14s-3.83398 -10.666 -6.50098 -15.999l-5 -10c-3.33301 -8.66699 -9 -13 -17 -13
c-1.33301 0 -4 0.333008 -8 1s-6.66699 1 -8 1c-6 0 -14.667 -0.666992 -26 -2c-16 -2 -37.5 -4 -64.5 -6s-45.5 -3.66699 -55.5 -5c-8 -0.666992 -12.667 -3.33398 -14 -8.00098c-10 -29.333 -20.667 -76.666 -32 -141.999c-2 -9.33301 -3.66699 -15.833 -5 -19.5
s-4.66602 -7.16699 -9.99902 -10.5s-13.333 -5 -24 -5c-2 0 -5.16699 -0.833008 -9.5 -2.5s-7.83301 -2.5 -10.5 -2.5c-10.667 0 -19.667 1.66699 -27 5s-12.166 6.66602 -14.499 9.99902s-3.5 6 -3.5 8c0 15.333 1.33301 29.5 4 42.5s6.5 28 11.5 45
s8.83301 31.5 11.5 43.5c2.66699 12.667 4 19.667 4 21c0 3.33301 -1.66699 5 -5 5c-62.667 0 -102 3.66699 -118 11c-17.333 8 -26 29.667 -26 65c0 4.66699 3.33301 9.66699 10 15c8 6 16.333 9 25 9c4.66699 0 11.667 -1 21 -3c20 -3.33301 48 -5 84 -5
c18 0 29 0.666992 33 2c3.33301 0.666992 5.66602 3.33398 6.99902 8.00098c14 40.667 23.333 70.667 28 90c8 35.333 16.667 54.333 26 57c3.33301 0.666992 8.16602 2.33398 14.499 5.00098s12.333 4.83398 18 6.50098s11.5 2.5 17.5 2.5c8 0 17.5 -1.83301 28.5 -5.5
s16.5 -9.5 16.5 -17.5c0 -4 -3 -15 -9 -33l-13 -41c-12.667 -38 -19 -59 -19 -63z" />
    <glyph glyph-name="comma" unicode="," horiz-adv-x="260" 
d="M-18 -102l64.0029 108.999c1.33301 2 5.33301 9.33301 12 22l22.5 43l17.5 33c9.33301 16.667 21.666 25 36.999 25c22.667 0 40 -9.33301 52 -28c2 -2.66699 5.16699 -6.5 9.5 -11.5s7.66602 -9.5 9.99902 -13.5s3.5 -7.66699 3.5 -11
c0 -4.66699 -1.33301 -8.66699 -4 -12l-128 -194c-10 -15.333 -22 -23 -36 -23c-2.66699 0 -8.33398 1.16699 -17.001 3.5s-14.334 3.5 -17.001 3.5c-11.333 1.33301 -19.666 5.5 -24.999 12.5s-8 14.167 -8 21.5c0 4.66699 2.33301 11.334 7 20.001z" />
    <glyph glyph-name="hyphen" unicode="-" horiz-adv-x="456" 
d="M445 294c0 -34 -8.00195 -54 -24.002 -60c-3.33301 -1.33301 -10.833 -2.83301 -22.5 -4.5s-19.5 -3.16699 -23.5 -4.5c-7.33301 -2 -23.666 -3 -48.999 -3h-24c-23.333 0 -53.166 1.16699 -89.499 3.5s-56.166 3.5 -59.499 3.5c-9.33301 0 -16.333 2.33301 -21 7
s-10 14.667 -16 30c-3.33301 8.66699 -5 16.667 -5 24c0 21.333 14.667 32 44 32c19.333 0 46.666 -0.666992 81.999 -2s63 -2 83 -2c3.33301 0 13.5 0.5 30.5 1.5s31.5 1.5 43.5 1.5c34 0 51 -9 51 -27z" />
    <glyph glyph-name="period" unicode="." horiz-adv-x="284" 
d="M221 101c5.33301 -10 8 -20.333 8 -31c0 -14 -2.83301 -28.167 -8.5 -42.5s-12.5 -23.833 -20.5 -28.5c-10.667 -6.66699 -23.334 -10 -38.001 -10c-26.667 0 -50.334 13.667 -71.001 41c-6 8 -9 16 -9 24c0 6 3 13.5 9 22.5s9.66699 17.167 11 24.5
c4 25.333 18.333 38 43 38c14.667 0 29.334 -3.33301 44.001 -10s25.334 -16 32.001 -28z" />
    <glyph glyph-name="slash" unicode="/" horiz-adv-x="400" 
d="M466 695c13.333 0 27.5 -6.16602 42.5 -18.499s22.5 -22.833 22.5 -31.5c0 -12 -4.33301 -22.667 -13 -32c-2.66699 -2.66699 -10.167 -9.5 -22.5 -20.5s-20.5 -19.5 -24.5 -25.5c-29.333 -44 -62.333 -97.5 -99 -160.5l-124 -218l-98 -174.5
c-35.333 -61.333 -60 -92 -74 -92c-18.667 0 -33.667 3.66699 -45 11c-18 12 -27 23 -27 33c0 7.33301 6.33301 23 19 47c1.33301 2.66699 6.16602 9.66699 14.499 21s14.5 20.666 18.5 27.999l311 538c9.33301 16 20.5 32.5 33.5 49.5s22.167 27.5 27.5 31.5
c10.667 9.33301 23.334 14 38.001 14z" />
    <glyph glyph-name="zero" unicode="0" horiz-adv-x="440" 
d="M361 573c1.33301 0 3.33496 0.833984 6.00195 2.50098s6 2.5 10 2.5c12.667 0 28.334 -4.66699 47.001 -14c24 -12.667 38.667 -24 44 -34c16 -32 24 -68 24 -108c0 -56 -15.667 -120.667 -47 -194c0 -0.666992 -1.83301 -6.16699 -5.5 -16.5s-7.5 -20.333 -11.5 -30
s-11.667 -24.834 -23 -45.501s-25.333 -43.667 -42 -69c-19.333 -30 -43 -54.167 -71 -72.5s-54.667 -27.5 -80 -27.5c-20.667 0 -47 9.83301 -79 29.5s-54.333 42.167 -67 67.5c-2.66699 4 -5.83398 14.5 -9.50098 31.5s-5.5 33.833 -5.5 50.5c0 60 18 129.667 54 209
c28 61.333 80.667 137.333 158 228c6.66699 7.33301 20.667 11 42 11c12.667 0 22.667 -1.66699 30 -5c3.33301 -1.33301 8.16602 -4.33301 14.499 -9s10.166 -7 11.499 -7zM174.002 47.001c12.667 0 29.502 9.66797 50.502 29.001s41.833 47.333 62.5 84
c1.33301 2.66699 5.5 9.16699 12.5 19.5s11.833 18.833 14.5 25.5c1.33301 3.33301 7 16.5 17 39.5s18.5 43.833 25.5 62.5s13.833 41 20.5 67s10 48.667 10 68c0 33.333 -10 56.666 -30 69.999c-0.666992 0 -1.83398 0.5 -3.50098 1.5s-3.16699 1.5 -4.5 1.5
c-3.33301 0 -7 -3 -11 -9c-74 -83.333 -127.667 -170.666 -161 -261.999c-3.33301 -8.66699 -5.83301 -16.334 -7.5 -23.001s-2.83398 -12.334 -3.50098 -17.001s-1.33398 -8 -2.00098 -10c-7.33301 -29.333 -11 -61.666 -11 -96.999c0 -11.333 1.66699 -21.333 5 -30
c0.666992 -1.33301 1.83398 -3.33301 3.50098 -6s3 -5 4 -7s2.33301 -3.66699 4 -5s3.16699 -2 4.5 -2z" />
    <glyph glyph-name="one" unicode="1" horiz-adv-x="440" 
d="M263 111l70.001 272.001c0 2 -1 3 -3 3c-0.666992 0 -4 -3.33301 -10 -10c-49.333 -60.667 -90.5 -108.834 -123.5 -144.501s-54.667 -58 -65 -67s-16.166 -14.5 -17.499 -16.5c-3.33301 -6.66699 -13.666 -10 -30.999 -10c-13.333 0 -23.333 3.33301 -30 10
c-2 2 -5.83301 4.66699 -11.5 8s-9.5 6.33301 -11.5 9c-10 10.667 -15 19 -15 25c0 4.66699 6 13 18 25c14 14.667 34 31 60 49c14.667 11.333 29.334 24.333 44.001 39c44.667 48.667 109 123 193 223c22.667 27.333 47.667 64 75 110c4 6 12.667 9 26 9
c17.333 0 34.666 -4.66699 51.999 -14s26 -21 26 -35c0 -4.66699 -1 -9 -3 -13c-14.667 -36.667 -29 -78 -43 -124s-25 -85 -33 -117l-32.5 -133.5l-29.5 -122.5c-6.66699 -20 -10 -40 -10 -60c0 -32 -10.667 -48 -32 -48c-3.33301 0 -7.83301 -0.333008 -13.5 -1
s-10.167 -1 -13.5 -1c-22.667 0 -41.334 6.33301 -56.001 19c-4 4 -6 11 -6 21c0 0.666992 2 13 6 37c1.33301 10 4.66602 21 9.99902 33s8.66602 20.333 9.99902 25z" />
    <glyph glyph-name="two" unicode="2" horiz-adv-x="440" 
d="M376 565c-34 0 -69.668 -26.6689 -107.001 -80.002c-0.666992 -1.33301 -4.66699 -5.66602 -12 -12.999s-12.333 -13.666 -15 -18.999c-5.33301 -12 -14.666 -19 -27.999 -21c-4.66699 -0.666992 -9.66699 -1.5 -15 -2.5s-8.33301 -1.5 -9 -1.5
c-17.333 0 -30.666 4.66699 -39.999 14c-12.667 12.667 -19 27.667 -19 45c0 6 1.5 12.167 4.5 18.5s7.33301 12.833 13 19.5s8.83398 10.667 9.50098 12c15.333 22 45.333 46.333 90 73c22 13.333 41.333 21.833 58 25.5s39.667 5.5 69 5.5c23.333 0 48.333 -11.333 75 -34
s40 -41.667 40 -57c0 -83.333 -44.333 -172.666 -133 -267.999c-10 -10.667 -34.667 -35.334 -74 -74.001l-94 -95c-23.333 -24.667 -35 -39.667 -35 -45c1.33301 -1.33301 3.66602 -2.66602 6.99902 -3.99902c8 -2 27 -3 57 -3c42 0 70.5 3.5 85.5 10.5
s26.833 21.167 35.5 42.5c8.66699 20.667 14 32 16 34c10 10 25 15 45 15c19.333 0 35.666 -7.66699 48.999 -23c4.66699 -6 7 -13 7 -21c0 -16.667 -4.33301 -37 -13 -61s-16 -39.667 -22 -47c-10.667 -12.667 -29 -21.167 -55 -25.5s-68.667 -6.5 -128 -6.5
c-102 0 -162.667 7.66699 -182 23c-27.333 22 -41 44.667 -41 68c0 8 11.333 25 34 51c14 15.333 49.333 51.333 106 108c155.333 155.333 233 261.666 233 318.999c0 11.333 -4 17 -12 17z" />
    <glyph glyph-name="three" unicode="3" horiz-adv-x="440" 
d="M340 543c-19.333 -10 -37.8262 -21.5 -55.4932 -34.5s-26.5 -22.833 -26.5 -29.5c0 -6 -1.33301 -10.5 -4 -13.5s-6.5 -6 -11.5 -9s-8.83301 -6.16699 -11.5 -9.5c-4.66699 -6 -16.667 -9 -36 -9c-15.333 0 -25.666 3 -30.999 9c-4.66699 4.66699 -9.83398 12 -15.501 22
s-8.5 16.667 -8.5 20c0 12 2.5 22 7.5 30s14.833 17.833 29.5 29.5s23.667 19.167 27 22.5c2.66699 2.66699 9.16699 5.33398 19.5 8.00098s16.5 4.66699 18.5 6c49.333 30.667 91.333 46 126 46c22.667 0 40 -4.66699 52 -14
c5.33301 -2.66699 9.66602 -4.33398 12.999 -5.00098c17.333 -5.33301 29.666 -15.666 36.999 -30.999c4 -6.66699 6 -14 6 -22c0 -10 -3.33301 -21.667 -10 -35c-6 -15.333 -9.33301 -23.333 -10 -24c-31.333 -55.333 -65.333 -102 -102 -140
c62.667 -12.667 94 -52.334 94 -119.001c0 -33.333 -12 -75.333 -36 -126c-22 -46 -47 -82.5 -75 -109.5s-64.667 -40.5 -110 -40.5c-58 0 -120.667 39.333 -188 118c-10 11.333 -15 23 -15 35c0 15.333 10.667 23 32 23c9.33301 0 17.666 0.5 24.999 1.5
s12.666 1.5 15.999 1.5c12 0 21.667 -4 29 -12c2.66699 -3.33301 7.33398 -8 14.001 -14s11.667 -11.333 15 -16s5 -9.33398 5 -14.001c0 -6 6.66699 -14.167 20 -24.5s25.666 -15.5 36.999 -15.5c5.33301 0 11 1.66699 17 5c33.333 22 61.333 58 84 108
c17.333 40.667 26 67.667 26 81s-3.66699 25.666 -11 36.999c-3.33301 5.33301 -9 8 -17 8c-4.66699 0 -11.667 -2 -21 -6c-2.66699 -1.33301 -7.33398 -2.66602 -14.001 -3.99902s-11.667 -3 -15 -5c-1.33301 -0.666992 -5.33301 -3 -12 -7s-12.334 -7.16699 -17.001 -9.5
s-10.667 -5.16602 -18 -8.49902s-14.666 -5.83301 -21.999 -7.5s-14.666 -2.5 -21.999 -2.5c-10 0 -19 1.33301 -27 4c-7.33301 2.66699 -13.833 8.5 -19.5 17.5s-8.5 17.5 -8.5 25.5c0 5.33301 1.66699 9.66602 5 12.999c8 7.33301 22 16.666 42 27.999
c3.33301 2 6.66602 4.33301 9.99902 7s5.66602 4.83398 6.99902 6.50098s2.83301 3.16699 4.5 4.5s2.83398 2.33301 3.50098 3c28 18.667 53.667 40.834 77 66.501s39.666 46.5 48.999 62.5s19.666 34.667 30.999 56c2.66699 6.66699 4 10.667 4 12c0 2 -1 3 -3 3
c-2.66699 0 -6 -1 -10 -3z" />
    <glyph glyph-name="four" unicode="4" horiz-adv-x="440" 
d="M238 148c0 3.33301 -2.32617 5.00781 -6.99316 5.00781c-68.667 0 -118.334 7 -149.001 21c-13.333 5.33301 -26.5 18.166 -39.5 38.499s-19.5 33.833 -19.5 40.5c0 14 4 25.333 12 34l58.5 67l75.5 85.5c16 17.667 39.333 42 70 73s59.667 58.167 87 81.5
c10.667 8.66699 17.667 15.667 21 21c10 15.333 23 23 39 23c9.33301 0 18.666 -1.66699 27.999 -5c26 -10 39 -24 39 -42c0 -8.66699 -2.83301 -20.334 -8.5 -35.001s-8.5 -24 -8.5 -28c0 -16 -2.66699 -33 -8 -51c-0.666992 -2.66699 -6.83398 -23.5 -18.501 -62.5
l-27.5 -93.5c-9.33301 -36 -14 -57 -14 -63c0 -3.33301 1.33301 -5 4 -5l10 3c6 1.33301 14 2.66602 24 3.99902s20 2 30 2c24.667 0 42 -5.33301 52 -16c2.66699 -1.33301 6 -6.33301 10 -15c5.33301 -11.333 8 -20.666 8 -27.999c0 -4.66699 -1.33301 -8.33398 -4 -11.001
s-7 -4.66699 -13 -6s-11.833 -2.33301 -17.5 -3s-13.334 -1.33398 -23.001 -2.00098s-17.834 -1.33398 -24.501 -2.00098c-30.667 -4.66699 -53.667 -8.66699 -69 -12c-6 -14 -10.667 -29.667 -14 -47s-6 -36.666 -8 -57.999s-4 -37.333 -6 -48
c-2 -14.667 -8.33301 -22 -19 -22c-6.66699 0 -12.834 0.5 -18.501 1.5s-11.334 2.66699 -17.001 5s-9.66699 4.16602 -12 5.49902s-6.83301 4.16602 -13.5 8.49902s-10.667 6.83301 -12 7.5c-9.33301 5.33301 -14 14.666 -14 27.999c0 7.33301 2.66699 26.333 8 57l6 28
c0 2 0.333008 4.16699 1 6.5s1.16699 4.16602 1.5 5.49902s0.5 2.33301 0.5 3zM292.007 431.008l-150.999 -179.002c-2.66699 -3.33301 -4 -6 -4 -8c0 -4 4.66699 -7 14 -9c10 -2 29 -3 57 -3c2 0 5 0.166992 9 0.5s9.16699 0.833008 15.5 1.5s11.166 1 14.499 1l6 1.5
c1.33301 0.333008 2.33301 1 3 2s1.16699 1.83301 1.5 2.5s0.833008 2.33398 1.5 5.00098c4 28 18 81.667 42 161c6 20.667 9 32.334 9 35.001c0 3.33301 -0.333008 5 -1 5c-1.33301 0 -7 -5.33301 -17 -16z" />
    <glyph glyph-name="five" unicode="5" horiz-adv-x="440" 
d="M241 404c19.333 8 42.335 11.9971 69.002 11.9971c54.667 0 94.667 -18.667 120 -56c14 -18.667 21 -44.334 21 -77.001c0 -47.333 -18 -104.666 -54 -171.999c-53.333 -96 -114.666 -144 -183.999 -144c-55.333 0 -114.666 33 -177.999 99
c-17.333 20.667 -26 34.334 -26 41.001s3.33301 11.334 10 14.001c1.33301 0.666992 6.66602 5.33398 15.999 14.001s19.666 13 30.999 13c14.667 0 29.334 -4.33301 44.001 -13c12 -7.33301 22 -18 30 -32s14.333 -23.333 19 -28c20 -20 35.333 -30 46 -30
c5.33301 0 12.666 4.33301 21.999 13c33.333 28.667 62 73 86 133c1.33301 4 3.5 12.167 6.5 24.5s5.83301 21.833 8.5 28.5c7.33301 20 11 40.667 11 62c0 25.333 -6.33301 38 -19 38c-30.667 0 -70.334 -24.333 -119.001 -73c-9.33301 -9.33301 -20.333 -14 -33 -14
c-16 0 -34 6 -54 18c-13.333 7.33301 -20 14 -20 20c0 2 1 5 3 9c9.33301 28 23 72.167 41 132.5s31 102.5 39 126.5c2 6.66699 10.167 14 24.5 22s27.166 12 38.499 12c6 0 11 -0.5 15 -1.5s7 -2 9 -3s3.33301 -1.5 4 -1.5c7.33301 0 17 1 29 3c80 14 138.333 21 175 21
c19.333 0 38.5 -7.16699 57.5 -21.5s28.5 -27.5 28.5 -39.5c0 -7.33301 -3.83301 -14.333 -11.5 -21s-18.5 -10 -32.5 -10c-2 0 -8.33301 0.833008 -19 2.5s-20.667 2.5 -30 2.5c-25.333 0 -58.5 -2.5 -99.5 -7.5s-70.833 -10.167 -89.5 -15.5
c-6.66699 -2 -10.667 -6 -12 -12l-20 -61c-4.66699 -14 -7 -22.333 -7 -25c0 -2 1.33301 -3 4 -3z" />
    <glyph glyph-name="six" unicode="6" horiz-adv-x="440" 
d="M423 537c-2.66699 0 -7.66504 -2.66504 -14.998 -7.99805c-69.333 -55.333 -128 -125.333 -176 -210c-3.33301 -6 -5 -10.667 -5 -14c0 -1.33301 1 -2 3 -2c3.33301 0 7.33301 1.66699 12 5c11.333 6.66699 34.333 15 69 25c18 5.33301 37.667 8 59 8
c19.333 0 37.666 -10.333 54.999 -31c2 -2.66699 6.16699 -7.66699 12.5 -15s10.666 -12.5 12.999 -15.5s4.83301 -7.16699 7.5 -12.5s4 -10.333 4 -15c0 -6.66699 -2.33301 -16.667 -7 -30c-32.667 -92.667 -94 -169 -184 -229c-19.333 -12.667 -43.333 -19 -72 -19
c-38 0 -70 10.333 -96 31c-3.33301 2.66699 -10.666 8.16699 -21.999 16.5s-19 14.5 -23 18.5c-14 14 -21 34 -21 60c0 16.667 2.66699 33 8 49c58 174 130.333 298.667 217 374c4 3.33301 12.833 11.666 26.5 24.999s25 24 34 32s21 15.667 36 23s29.167 11 42.5 11
c16 0 31.667 -4.33301 47 -13s24.333 -16.334 27 -23.001c2.66699 -6 4 -12.667 4 -20c0 -16.667 -10.667 -25 -32 -25c-4 0 -8.83301 0.666992 -14.5 2s-8.83398 2 -9.50098 2zM317.002 235.002c-74.667 -29.333 -122 -59.998 -142 -91.998
c-2.66699 -4.66699 -6.16699 -9.83398 -10.5 -15.501l-9.5 -12.5c-2 -2.66699 -3.83301 -6.83398 -5.5 -12.501s-2.5 -12.167 -2.5 -19.5c0 -8.66699 2 -16.5 6 -23.5s9 -10.5 15 -10.5c18.667 0 46.667 18 84 54c26 24 53.667 62 83 114c4.66699 8 7 13.667 7 17
c0 4 -1.33301 6 -4 6c-5.33301 0 -12.333 -1.66699 -21 -5z" />
    <glyph glyph-name="seven" unicode="7" horiz-adv-x="440" 
d="M187 257c-4 0 -10.002 0.49707 -18.002 1.49707s-18.167 3.5 -30.5 7.5s-20.166 9 -23.499 15c-6 12 -9 25.667 -9 41c0 17.333 7.66699 26 23 26c11.333 0 21.666 -1.66699 30.999 -5c9.33301 -4 24.666 -6 45.999 -6c26 0 40 1.33301 42 4c2 2 6 6.33301 12 13
l23.5 31.5l21.5 29l16 22c8 11 13.5 18.833 16.5 23.5l12.5 20l14 23c4 6.66699 8 14.334 12 23.001c3.33301 6.66699 5 12.334 5 17.001s-9.66699 7 -29 7c-59.333 0 -101 -10 -125 -30c-6 -5.33301 -9.83301 -13.166 -11.5 -23.499s-4.66699 -18.5 -9 -24.5
s-13.166 -9 -26.499 -9c-24 0 -41.333 7 -52 21c-5.33301 6.66699 -8.83301 16.5 -10.5 29.5s-3.83398 21.833 -6.50098 26.5c-3.33301 7.33301 -5 14.333 -5 21c0 10.667 5.66699 19.5 17 26.5s23.166 11.833 35.499 14.5s30.5 5.66699 54.5 9
c21.333 3.33301 39.333 5.66602 54 6.99902c18.667 3.33301 49 5 91 5c50.667 0 82.334 -4 95.001 -12c4.66699 -2.66699 10.834 -6.66699 18.501 -12s16 -13 25 -23s13.5 -18.667 13.5 -26c0 -8 -1.5 -16.333 -4.5 -25s-6 -15.5 -9 -20.5s-8 -12.5 -15 -22.5
s-11.5 -16.667 -13.5 -20c-10.667 -17.333 -29.667 -43 -57 -77c-13.333 -16.667 -20 -25.667 -20 -27c0 -2 2 -3 6 -3c34.667 0 60.334 -8.66699 77.001 -26c7.33301 -8 11 -17 11 -27c0 -16.667 -6 -25 -18 -25c-2.66699 0 -7.5 0.5 -14.5 1.5s-12.167 1.5 -15.5 1.5
c-16.667 0 -31.167 -1 -43.5 -3s-25.166 -4.66699 -38.499 -8s-25.666 -6 -36.999 -8c-89.333 -130 -134 -216.333 -134 -259c0 -10.667 -3.66699 -16 -11 -16c-2 0 -6.16699 -2.83301 -12.5 -8.5s-12.833 -8.5 -19.5 -8.5c-9.33301 0 -18 1.66699 -26 5
c-10.667 6 -19.334 12.667 -26.001 20c-14 16 -21 25.667 -21 29c0 30.667 41 107.334 123 230.001c0 2.66699 -1.33301 4 -4 4z" />
    <glyph glyph-name="eight" unicode="8" horiz-adv-x="440" 
d="M190 341c0 4.66699 -0.164062 11.667 -0.49707 21s-0.5 16.666 -0.5 21.999c0 86.667 13.5 151.834 40.5 195.501s60.167 65.5 99.5 65.5c16.667 0 38 -4.33301 64 -13c9.33301 -3.33301 16.666 -8.16602 21.999 -14.499s8.66602 -9.83301 9.99902 -10.5
c22.667 -9.33301 43.167 -26.5 61.5 -51.5s32.833 -50.833 43.5 -77.5c4 -9.33301 6 -19 6 -29c0 -27.333 -13 -48.333 -39 -63c-108 -54 -174.333 -86.333 -199 -97c-2 -2 -3 -5.33301 -3 -10c0 -3.33301 1.5 -24.333 4.5 -63s4.5 -71.334 4.5 -98.001
c0 -92.667 -15.667 -141 -47 -145c-18 -4 -28 -6 -30 -6c-29.333 0 -52.666 5 -69.999 15c-34.667 20.667 -65.834 47.667 -93.501 81s-41.5 67.666 -41.5 102.999c0 16.667 2.5 31.5 7.5 44.5s13.667 25 26 36s23.166 19.667 32.499 26s24.5 15.5 45.5 27.5l46.5 27
c6.66699 2.66699 10 7.33398 10 14.001zM355.003 555c-20 -14 -35.667 -36.3359 -47 -67.0029c-7.33301 -25.333 -11 -54.666 -11 -87.999c0 -3.33301 0.666992 -5 2 -5c3.33301 0 12 4 26 12c6 3.33301 21 10.333 45 21s41 20 51 28c8.66699 6.66699 13 16.334 13 29.001
c0 14.667 -5.33301 27.334 -16 38.001c-6.66699 6.66699 -11.334 10 -14.001 10c-0.666992 0 -2 -0.5 -4 -1.5s-3.66699 -1.5 -5 -1.5c-14 0 -23.333 8 -28 24c-1.33301 2.66699 -3 4 -5 4c-1.33301 0 -3.66602 -1 -6.99902 -3zM182.003 57.9971
c2 0 3.33203 2.00098 3.99902 6.00098c6.66699 20.667 10 47 10 79c0 15.333 -1.33301 39.666 -4 72.999c-1.33301 8.66699 -3 13 -5 13s-5.66699 -2 -11 -6c-32.667 -20 -49 -44.667 -49 -74c0 -18 4.66699 -34.333 14 -49c11.333 -15.333 20.333 -26 27 -32
c6.66699 -6.66699 11.334 -10 14.001 -10z" />
    <glyph glyph-name="nine" unicode="9" horiz-adv-x="440" 
d="M298 279c-2 0 -4.66992 -1.00098 -8.00293 -3.00098c-8.66699 -5.33301 -17.334 -9.33301 -26.001 -12s-17 -4.66699 -25 -6s-13 -2.33301 -15 -3c-14 -5.33301 -29.333 -8 -46 -8c-15.333 0 -32.666 7.33301 -51.999 22c-3.33301 2.66699 -8 6 -14 10
s-10.167 6.83301 -12.5 8.5s-5.16602 4.5 -8.49902 8.5s-6.33301 9 -9 15c-2 3.33301 -5.16699 8.16602 -9.5 14.499s-7.33301 11.666 -9 15.999s-2.5 9.83301 -2.5 16.5c0 10.667 2 20.667 6 30c10.667 20 22.834 38 36.501 54s30.834 31.333 51.501 46s37.667 26 51 34
s35.666 20.5 66.999 37.5l67 36.5c7.33301 4.66699 20.333 9.83398 39 15.501s36 8.5 52 8.5c17.333 0 29.333 -3.33301 36 -10c4 -4 10.333 -8.66699 19 -14s15.334 -10 20.001 -14c20.667 -14 31 -25 31 -33c0 -18 -7.33301 -37.333 -22 -58
c-4.66699 -5.33301 -9 -12.666 -13 -21.999c-9.33301 -25.333 -27.5 -63.666 -54.5 -114.999s-46.167 -95.333 -57.5 -132l-24 -67.5c-11.333 -31.667 -20.5 -59 -27.5 -82s-11.833 -45.5 -14.5 -67.5c-0.666992 -5.33301 -5.66699 -11.333 -15 -18s-19.666 -10 -30.999 -10
c-10 0 -19.333 3 -28 9c-26.667 18 -40 32 -40 42c0 2.66699 2.66699 11.334 8 26.001l42 112c19.333 51.333 32.666 87.666 39.999 108.999c0 2.66699 -0.666992 4 -2 4zM398.997 521.999c-32.667 -15.333 -57.334 -27.3359 -74.001 -36.0029s-36 -19.667 -58 -33
s-41 -27.666 -57 -42.999s-31 -32.666 -45 -51.999c-7.33301 -10 -11 -16.333 -11 -19c0 -4 3.33301 -6 10 -6s15 1.66699 25 5c50.667 16.667 95 39.667 133 69s66 60 84 92c8 14.667 12 23.334 12 26.001c0 2 -1 3 -3 3c-1.33301 0 -6.66602 -2 -15.999 -6z" />
    <glyph glyph-name="colon" unicode=":" horiz-adv-x="290" 
d="M331 366c0 -2.66699 -0.999023 -13.999 -2.99902 -33.999c-1.33301 -7.33301 -6.5 -18.333 -15.5 -33s-19.167 -22 -30.5 -22s-26 3 -44 9c-30 10 -45 27.667 -45 53c0 10 3 21.667 9 35c1.33301 4 3.66602 8.16699 6.99902 12.5s5.33301 7.16602 6 8.49902
c4 10 8.5 17.167 13.5 21.5s12.833 6.5 23.5 6.5c12 0 21.333 -1.5 28 -4.5s15.667 -9.5 27 -19.5c16 -13.333 24 -24.333 24 -33zM204.001 144.001c6.66699 0 13.665 -1.49707 20.998 -4.49707s13.166 -6.33301 17.499 -10s9 -7.83398 14 -12.501
s7.83301 -7.33398 8.5 -8.00098c14 -10.667 21 -30.334 21 -59.001c0 -22 -4 -35 -12 -39c-18.667 -9.33301 -36.334 -14 -53.001 -14c-8 0 -14.667 1 -20 3s-9.16602 3.83301 -11.499 5.5s-5.16602 4.83398 -8.49902 9.50098s-5.66602 7.66699 -6.99902 9l-11 11
c-5.33301 5.33301 -9 9.66602 -11 12.999s-3 7.33301 -3 12c0 2 0.833008 6.16699 2.5 12.5s2.83398 13.5 3.50098 21.5c0.666992 8.66699 5.5 19.167 14.5 31.5s20.5 18.5 34.5 18.5z" />
    <glyph glyph-name="semicolon" unicode=";" horiz-adv-x="280" 
d="M184 112c17.333 -6.66699 25.999 -19.999 25.999 -39.999c0 -9.33301 -0.833008 -16.333 -2.5 -21s-4.66699 -9 -9 -13s-7.16602 -7.33301 -8.49902 -10c-14 -22 -35.333 -57.333 -64 -106s-52.667 -87.667 -72 -117c-6.66699 -9.33301 -16 -14 -28 -14
c-5.33301 0 -12.666 0.666992 -21.999 2s-15 2 -17 2c-23.333 2 -35 15.333 -35 40c0 5.33301 3.66699 13.666 11 24.999c26 39.333 54.5 88.166 85.5 146.499l54.5 102.5c9.33301 16 20.666 24 33.999 24c6 0 14.667 -3.16699 26 -9.5s18.333 -10.166 21 -11.499z
M297.999 357.001c2.66699 -3.33301 3.99902 -9.66699 3.99902 -19c0 -14 -3.5 -28 -10.5 -42s-16.167 -21 -27.5 -21c-3.33301 0 -9.16602 -0.166992 -17.499 -0.5s-14.833 -0.5 -19.5 -0.5c-27.333 0 -47 5.66699 -59 17c-8 7.33301 -12 17 -12 29
c0 21.333 6.66699 42 20 62c7.33301 10.667 13.5 18 18.5 22s11.833 6 20.5 6c22 0 39.667 -8.33301 53 -25c2.66699 -3.33301 7.66699 -8 15 -14s12.333 -10.667 15 -14z" />
    <glyph glyph-name="less" unicode="&#x3c;" horiz-adv-x="590" 
d="M429 130c6 -2 12.1709 -3.16895 18.5039 -3.50195s11.666 -1.16602 15.999 -2.49902s9.5 -4.66602 15.5 -9.99902c8 -7.33301 12 -14.333 12 -21c0 -4.66699 -1.66699 -9.33398 -5 -14.001s-7.5 -9.16699 -12.5 -13.5s-7.83301 -7.16602 -8.5 -8.49902
c-9.33301 -12.667 -23 -19 -41 -19c-8 0 -16.5 1.33301 -25.5 4s-16.333 5.5 -22 8.5l-23.5 13c-10 5.66699 -17 9.5 -21 11.5c-15.333 8 -29.833 16.167 -43.5 24.5l-64 40.5l-79.5 51c-15.333 10 -23 20.667 -23 32c0 6.66699 2.33301 15.667 7 27
c1.33301 2.66699 3.66602 6 6.99902 10s5.66602 7.66699 6.99902 11c2 6 6 11.167 12 15.5s22.667 14.5 50 30.5l75.5 42.5c39 21.667 67.5 38.167 85.5 49.5c60.667 37.333 95 56.666 103 57.999c0.666992 0 4.66699 1.33301 12 4s13.666 4 18.999 4
c6 0 10.333 -0.333008 13 -1c9.33301 -2.66699 16.5 -6.16699 21.5 -10.5s8.83301 -11.166 11.5 -20.499l5 -14c2.66699 -5.33301 4 -11.666 4 -18.999c0 -8.66699 -3.33301 -15.334 -10 -20.001c-2 -1.33301 -3.66699 -2 -5 -2c-5.33301 0 -21 -7.66699 -47 -23
c-3.33301 -2 -11.5 -5.16699 -24.5 -9.5s-26.167 -10.5 -39.5 -18.5l-137 -79c-25.333 -14.667 -38 -23 -38 -25s5.66699 -6.33301 17 -13l47.5 -29.5l52.5 -31.5c28.667 -16 48 -25.667 58 -29z" />
    <glyph glyph-name="equal" unicode="=" horiz-adv-x="590" 
d="M314 371l76.999 3.99902c2.66699 0 13 1.16699 31 3.5s37.333 4.33301 58 6s37.334 2.5 50.001 2.5s22.834 -1.33301 30.501 -4s13 -6.33398 16 -11.001s4.83301 -8.5 5.5 -11.5s1 -6.83301 1 -11.5c0 -14 -3.33301 -26.667 -10 -38
c-3.33301 -7.33301 -11.333 -11 -24 -11c-20.667 0 -41.334 -1 -62.001 -3l-152 -14c-6 -0.666992 -14 -1 -24 -1c-70.667 0 -122 4 -154 12c-18.667 4.66699 -28 21.334 -28 50.001c0 10.667 1.33301 18.334 4 23.001c6.66699 10.667 17 16 31 16
c2.66699 0 16.167 -2.16699 40.5 -6.5s50.833 -6.5 79.5 -6.5c6 0 16 0.333008 30 1zM285.999 244.999c62 0 116.666 3.33398 163.999 10.001c22 3.33301 41.333 5 58 5c22 0 37 -4 45 -12c9.33301 -9.33301 14 -16.333 14 -21c0 -2.66699 -3.66699 -17.667 -11 -45
c-2 -7.33301 -8.33301 -11 -19 -11c-2 0 -5.83301 0.333008 -11.5 1s-9.16699 1 -10.5 1c-5.33301 0 -17 -1.16699 -35 -3.5s-44.667 -4.83301 -80 -7.5s-76.666 -4 -123.999 -4c-76.667 0 -120 3.33301 -130 10c-9.33301 6.66699 -17.333 15.667 -24 27
s-10 21.666 -10 30.999c0 5.33301 1.5 9.5 4.5 12.5s4.5 4.83301 4.5 5.5c1.33301 7.33301 9 11 23 11l46 -5c31.333 -3.33301 63.333 -5 96 -5z" />
    <glyph glyph-name="greater" unicode="&#x3e;" horiz-adv-x="590" 
d="M417 293c-76 46.667 -118.003 71.666 -126.003 74.999c-8.66699 3.33301 -20.5 9.66602 -35.5 18.999s-23.833 14.666 -26.5 15.999c-17.333 8 -26 20.667 -26 38c0 10 1.66699 17.333 5 22l5 13c3.33301 8.66699 7.33301 15 12 19s11.334 6 20.001 6
c7.33301 0 15.5 -3.33301 24.5 -10s14.167 -10.334 15.5 -11.001c10.667 -5.33301 19.5 -11.166 26.5 -17.499s14.167 -11.5 21.5 -15.5c45.333 -25.333 113.333 -66.333 204 -123c16 -10 24 -22 24 -36c0 -8.66699 -2.66699 -16.667 -8 -24l-9 -10.5
c-2.66699 -3 -4.5 -5 -5.5 -6s-1.83301 -2.16699 -2.5 -3.5c-6.66699 -14 -25.667 -29.333 -57 -46c-89.333 -48.667 -153.333 -85.667 -192 -111c-39.333 -25.333 -73.333 -38 -102 -38c-30.667 0 -48 8.33301 -52 25c-1.33301 6.66699 -3.33301 12.667 -6 18
s-4 9.33301 -4 12c0 6.66699 5 13.334 15 20.001c2 1.33301 4.83301 2.83301 8.5 4.5s8.83398 3.83398 15.501 6.50098s13 5.33398 19 8.00098c0.666992 0 14.334 7.33301 41.001 22c29.333 15.333 85.333 46.333 168 93c24.667 14 37 22.333 37 25s-3.33301 6 -10 10z" />
    <glyph glyph-name="question" unicode="?" horiz-adv-x="360" 
d="M364 262c12 -7.33301 19.3311 -14.3359 21.998 -21.0029c4 -10 6 -17 6 -21c0 -10 -7.66699 -16.333 -23 -19c-0.666992 0 -4.83398 -1.16699 -12.501 -3.5s-14.167 -3.5 -19.5 -3.5c-62.667 0 -111.667 7.33301 -147 22c-10 4 -17.5 8.33301 -22.5 13s-10.5 12 -16.5 22
c-7.33301 12.667 -11 24.334 -11 35.001c0 7.33301 2.33301 13.333 7 18c0.666992 0.666992 1.16699 1.5 1.5 2.5s0.833008 2.33301 1.5 4s1.66699 3.5 3 5.5c7.33301 12.667 15.333 25.167 24 37.5s18.167 24.333 28.5 36l26 29l26.5 28.5l20 21c48 52 72 82.333 72 91
c0 6 -2.5 11.667 -7.5 17s-11.167 8 -18.5 8c-5.33301 0 -10.666 -1.66699 -15.999 -5c-16 -9.33301 -24 -20.666 -24 -33.999c0 -2 0.166992 -5.66699 0.5 -11s0.5 -9.66602 0.5 -12.999c0 -16.667 -10.667 -25 -32 -25c-22.667 0 -41.334 9.33301 -56.001 28
c-4.66699 6 -7 19 -7 39c0 29.333 7.66699 51 23 65c23.333 21.333 53 32 89 32s67.667 -8 95 -24c36.667 -22 55 -49 55 -81c0 -22 -6.5 -42.333 -19.5 -61s-42.833 -50.667 -89.5 -96c-18 -17.333 -34.667 -35 -50 -53s-26.666 -32.333 -33.999 -43s-11 -17 -11 -19
c0 -4 7 -6 21 -6c6 0 12.833 0.333008 20.5 1s11.834 1 12.501 1c22.667 0 43.334 -5.66699 62.001 -17zM182.998 109.997c12.667 0 30.332 -7.83008 52.999 -23.4971s34 -28.5 34 -38.5c0 -18.667 -3.33301 -31.334 -10 -38.001c-18.667 -18.667 -37.667 -28 -57 -28
c-8 0 -16.167 1.66699 -24.5 5s-14.833 6.5 -19.5 9.5s-7.33398 5.16699 -8.00098 6.5c-1.33301 2.66699 -4 6.16699 -8 10.5s-7.16699 8.16602 -9.5 11.499s-3.5 6.66602 -3.5 9.99902c0 10.667 1.33301 20 4 28c3.33301 10.667 6.33301 18.667 9 24
s7.33398 10.5 14.001 15.5s15.334 7.5 26.001 7.5z" />
    <glyph glyph-name="at" unicode="@" horiz-adv-x="700" 
d="M454 186c-6.66699 -9.33301 -17.3301 -18.8369 -31.9971 -28.5039s-30 -14.5 -46 -14.5c-15.333 0 -31.333 5 -48 15l-23 14c-28 17.333 -42 45 -42 83c0 32 8.5 67 25.5 105s32.833 65.333 47.5 82c46 51.333 87.667 77 125 77c16.667 0 35.167 -6.66699 55.5 -20
s33.833 -25.333 40.5 -36c2 -3.33301 3.66699 -8.83301 5 -16.5s5.66602 -13.5 12.999 -17.5c10 -6 15 -14 15 -24c0 -5.33301 -1.66699 -11.333 -5 -18c-32.667 -65.333 -49 -113.666 -49 -144.999c0 -13.333 2.33301 -20 7 -20c4 0 10 3.33301 18 10
c20.667 17.333 39 45.833 55 85.5s24 79.167 24 118.5c0 45.333 -12.167 82.333 -36.5 111s-63.5 43 -117.5 43c-12 0 -25.167 -1.83301 -39.5 -5.5s-31.666 -10.334 -51.999 -20.001s-41.833 -25.667 -64.5 -48s-43.667 -49.5 -63 -81.5c-22 -36 -38.333 -74.333 -49 -115
s-16 -76 -16 -106c0 -49.333 13.5 -87.666 40.5 -114.999s61.5 -41 103.5 -41c47.333 0 93 16 137 48c10 7.33301 22.333 11 37 11c13.333 0 25.5 -3.16699 36.5 -9.5s18.833 -15.166 23.5 -26.499c1.33301 -2.66699 3.16602 -5.16699 5.49902 -7.5s4 -5.16602 5 -8.49902
s1.5 -9 1.5 -17c0 -4.66699 -2.16699 -8 -6.5 -10s-10 -4 -17 -6s-12.167 -4 -15.5 -6c-56.667 -39.333 -120.667 -59 -192 -59c-24.667 0 -52.334 5.16699 -83.001 15.5s-54.667 22.5 -72 36.5c-38.667 30.667 -65.834 62.667 -81.501 96s-23.5 72.333 -23.5 117
c0 48 6.5 93.667 19.5 137s35.5 90 67.5 140c36 56.667 78.5 98.167 127.5 124.5s95.167 39.5 138.5 39.5c44.667 0 83.167 -6.33301 115.5 -19s63.833 -34 94.5 -64c51.333 -50.667 77 -111 77 -181c0 -39.333 -7.33301 -78.333 -22 -117s-33 -71.667 -55 -99
c-30 -37.333 -63 -56 -99 -56c-26.667 0 -52.667 8.33301 -78 25c-12.667 8 -20.667 17.333 -24 28c0 0.666992 -0.333008 1.33398 -1 2.00098c0 1.33301 -0.333008 2 -1 2s-3 -2.66699 -7 -8zM490.004 444.996c-7.33301 0 -17 -4.99805 -29 -14.998
c-21.333 -18 -42.5 -45.167 -63.5 -81.5s-33.5 -64.5 -37.5 -84.5c-2 -10 -3 -19.333 -3 -28c0 -4 0.666992 -6 2 -6c2 0 4.66699 1.66699 8 5l16 15c22 22 41.333 44 58 66s25 36 25 42c0 1.33301 -1 3.16602 -3 5.49902s-3 6.16602 -3 11.499
c0 6.66699 4.66699 14.667 14 24c14.667 14.667 22 26.667 22 36c0 6.66699 -2 10 -6 10z" />
    <glyph glyph-name="A" unicode="A" horiz-adv-x="510" 
d="M325 167c-52 -20 -103.672 -35.6709 -155.005 -47.0039c-6 -1.33301 -10.333 -5 -13 -11c-11.333 -30 -17 -62 -17 -96c0 -4 0.333008 -9.5 1 -16.5s1 -11.167 1 -12.5c0 -4 -2.33301 -7.33301 -7 -10c-2 -1.33301 -5.33301 -4.16602 -10 -8.49902
s-9.66699 -7.83301 -15 -10.5s-10.666 -4 -15.999 -4c-6 0 -12.333 1.66699 -19 5l-12 6c-10.667 5.33301 -18.667 12.333 -24 21s-8.33301 16.334 -9 23.001s-1 16.667 -1 30c0 20 3 43.667 9 71c1.33301 6 2 10 2 12c0 1.33301 -2 3.33301 -6 6
c-20 11.333 -30 22.333 -30 33c0 20 5 38.333 15 55c4 6 10 9 18 9c8.66699 0 19.334 -3.33301 32.001 -10c4 -2 6.66699 -3 8 -3c2 0 5 3.66699 9 11c100 180.667 191.333 331 274 451c7.33301 11.333 22 18 44 20c1.33301 0 4.83301 0.666992 10.5 2s11.5 2.33301 17.5 3
s11.667 1 17 1c17.333 0 30.666 -3.66699 39.999 -11c2.66699 -2 5.33398 -5.83301 8.00098 -11.5s4 -9.5 4 -11.5c0 -5.33301 -2.33301 -21.333 -7 -48s-7 -42 -7 -46c0 -9.33301 -1 -20 -3 -32c-3.33301 -19.333 -6.66602 -47.166 -9.99902 -83.499s-6 -68 -8 -95
s-3 -42.5 -3 -46.5c0 -6 1.66699 -9 5 -9l5 1c3.33301 0 7.33301 0.333008 12 1s9.33398 1 14.001 1c37.333 0 63.333 -8.33301 78 -25c5.33301 -6 8 -11.333 8 -16c0 -4 -1.66699 -8.33301 -5 -13c-14.667 -19.333 -38 -29 -70 -29c-24 0 -40 -4 -48 -12
c-2.66699 -2.66699 -4.66699 -10 -6 -22c-4 -44 -6 -98.333 -6 -163c0 -18 1.66699 -33.667 5 -47s6.5 -23.333 9.5 -30s4.5 -10.667 4.5 -12c0 -9.33301 -4 -18 -12 -26s-16.667 -12 -26 -12c-29.333 0 -51.333 7.33301 -66 22c-5.33301 5.33301 -10 20.833 -14 46.5
s-6 50.834 -6 75.501c0 16 0.833008 39.667 2.5 71s2.5 48 2.5 50c0 6 -1 9 -3 9c-5.33301 0 -12.666 -2 -21.999 -6zM368.995 520.996c-56 -94 -107.334 -187.668 -154.001 -281.001c-4.66699 -9.33301 -7 -15 -7 -17s1.66699 -3 5 -3c12 0 34.667 6.33301 68 19
c0.666992 0 5.33398 1.66699 14.001 5l26.5 10l23.5 9c5.33301 2 8 6 8 12c0 5.33301 4.66699 46.333 14 123s14 117.334 14 122.001c0 8 -0.666992 12 -2 12c-2 0 -5.33301 -3.66699 -10 -11z" />
    <glyph glyph-name="B" unicode="B" horiz-adv-x="574" 
d="M459 386c20 0 34.9951 -2.00391 44.9951 -6.00391c18 -7.33301 34.667 -17.833 50 -31.5s26.333 -26.834 33 -39.501c5.33301 -10.667 8 -23 8 -37c0 -37.333 -12 -79.333 -36 -126c-3.33301 -6.66699 -8.5 -15.5 -15.5 -26.5l-25 -39.5l-22.5 -36
c-14.667 -24 -36.667 -43 -66 -57s-63 -21 -101 -21c-40.667 0 -75 5.33301 -103 16c-13.333 5.33301 -24.5 10.5 -33.5 15.5s-15.167 8.66699 -18.5 11s-6.66602 3.5 -9.99902 3.5c-13.333 0 -24.166 2.16699 -32.499 6.5s-22.166 14.833 -41.499 31.5
c-4.66699 4 -7.5 9.33301 -8.5 16s-2.16699 10.667 -3.5 12l-13.5 13.5c-7.66699 7.66699 -13.667 14 -18 19s-6.5 8.83301 -6.5 11.5c0 5.33301 -2.66699 12.333 -8 21s-8 16.667 -8 24c0 16 16.333 24 49 24c4.66699 0 9.16699 -0.166992 13.5 -0.5
s7.83301 -0.5 10.5 -0.5l4 -1c5.33301 0 9 5 11 15c19.333 94 45 184.667 77 272c6 16.667 9 26.334 9 29.001c0 3.33301 -1.33301 7.33301 -4 12c-4.66699 8.66699 -7 19 -7 31c0 4.66699 3.33301 8.33398 10 11.001c12 5.33301 21 12.833 27 22.5s13.667 26.5 23 50.5
c4.66699 13.333 8.5 22.833 11.5 28.5s7.16699 10.667 12.5 15s12 6.5 20 6.5c12 0 25.833 -4.16699 41.5 -12.5s25.167 -12.5 28.5 -12.5c6 0 12.333 1.66699 19 5c25.333 12 49.333 18 72 18c44 0 80.667 -12.667 110 -38c15.333 -13.333 23 -25.666 23 -36.999
c0 -5.33301 -0.666992 -10.333 -2 -15c-6 -21.333 -15.167 -41.666 -27.5 -60.999s-29.666 -42.333 -51.999 -69s-37.166 -45 -44.499 -55c-6.66699 -9.33301 -10 -14.666 -10 -15.999c0 -2 3.33301 -3 10 -3zM443.995 320.996c-28.667 0 -69.001 -17.3311 -121.001 -51.998
c-34 -22 -61.333 -33 -82 -33c-3.33301 0 -6.33301 -4 -9 -12c-5.33301 -16 -11.166 -40 -17.499 -72s-9.5 -52 -9.5 -60c0 -4 2.66699 -8.33301 8 -13c38.667 -34.667 75.667 -52 111 -52c20.667 0 40 12.167 58 36.5s41 64.833 69 121.5
c16.667 33.333 25 65.666 25 96.999c0 15.333 -2.5 25.666 -7.5 30.999s-13.167 8 -24.5 8zM281.994 358.998c13.333 18.667 21.668 30.0029 25.001 34.0029c2 2.66699 13 14.5 33 35.5s35.667 38.167 47 51.5s20 24.333 26 33c31.333 45.333 47 73.666 47 84.999
c0 3.33301 -2 5 -6 5c-2 0 -7 -0.833008 -15 -2.5s-18.833 -5 -32.5 -10s-25.834 -10.5 -36.501 -16.5c-16.667 -10 -29 -20.667 -37 -32c-4.66699 -6.66699 -10.667 -19.334 -18 -38.001l-37 -100c-14 -36 -21 -57 -21 -63c0 -2 0.666992 -3 2 -3s5 2.66699 11 8
s10 9.66602 12 12.999z" />
    <glyph glyph-name="C" unicode="C" horiz-adv-x="472" 
d="M396 557c-18.667 -18 -33.5 -33.5 -44.5 -46.5s-32.5 -41.167 -64.5 -84.5c-51.333 -69.333 -92.666 -157.666 -123.999 -264.999c-2.66699 -10.667 -4 -25.334 -4 -44.001c0 -20.667 3.66699 -34.667 11 -42c14.667 -14.667 26 -22 34 -22
c11.333 0 26.333 4.66699 45 14c18 9.33301 37.333 22.333 58 39s39.5 33.334 56.5 50.001s26.833 26 29.5 28c10 8 26 12 48 12c23.333 0 40.333 -8.66699 51 -26c4.66699 -7.33301 7 -13.666 7 -18.999c0 -2 -0.5 -3.66699 -1.5 -5s-2.83301 -3 -5.5 -5s-5 -4 -7 -6
c-3.33301 -3.33301 -12 -12.5 -26 -27.5s-25.5 -26.833 -34.5 -35.5s-21.833 -19.834 -38.5 -33.501s-32 -24.5 -46 -32.5s-30.667 -15 -50 -21s-38.333 -9 -57 -9c-36.667 0 -66 5.33301 -88 16c-18.667 9.33301 -36.667 21.5 -54 36.5s-27.666 30.167 -30.999 45.5
c-4 18.667 -6 39 -6 61c0 40 4.66699 73 14 99c74 208 174.333 348.333 301 421c22 12.667 51 19 87 19c17.333 0 33.666 -3 48.999 -9c7.33301 -3.33301 12.666 -6 15.999 -8s6.5 -5 9.5 -9s5.83301 -7.33301 8.5 -10c26 -23.333 39 -43.666 39 -60.999
c0 -8.66699 -5.66699 -25.667 -17 -51c-13.333 -30 -22.333 -51.667 -27 -65c-5.33301 -15.333 -18.333 -23 -39 -23c-2.66699 0 -8.66699 0.666992 -18 2c-18.667 3.33301 -33 9 -43 17c-11.333 8.66699 -17 18.334 -17 29.001c0 9.33301 5.66699 22.166 17 38.499
s17.333 28.166 18 35.499c0.666992 4 3 10 7 18c3.33301 6.66699 5 10.667 5 12c0 2 -1.33301 3 -4 3c-2 0 -5.83301 -1 -11.5 -3s-13.5 -5.83301 -23.5 -11.5s-19.667 -12.834 -29 -21.501z" />
    <glyph glyph-name="D" unicode="D" horiz-adv-x="554" 
d="M93 124c19.333 79.333 49.667 171.661 91 276.994c5.33301 14 8 22.667 8 26c0 2.66699 -1 4 -3 4c-1.33301 0 -4.16602 -0.5 -8.49902 -1.5s-7.5 -1.5 -9.5 -1.5c-9.33301 0 -17.833 3.5 -25.5 10.5s-11.5 17.833 -11.5 32.5c0 18 3.33301 31.333 10 40
c6 8.66699 27 25.334 63 50.001c71.333 50 142.333 75 213 75c32 0 58.333 -4.16699 79 -12.5s43.667 -22.166 69 -41.499c20 -15.333 35.5 -31.166 46.5 -47.499s16.5 -37.5 16.5 -63.5c0 -34 -9.33301 -69.667 -28 -107l-8 -18.5l-10 -22.5
c-18.667 -39.333 -36.167 -73.666 -52.5 -102.999s-35.5 -59.833 -57.5 -91.5s-46.333 -59.167 -73 -82.5s-55 -42 -85 -56c-24 -11.333 -45.333 -17 -64 -17c-10.667 0 -21.334 0.833008 -32.001 2.5s-19 3.16699 -25 4.5s-9.33301 2 -10 2s-3 -1 -7 -3s-13 -3 -27 -3
c-13.333 0 -28 5.66699 -44 17c-7.33301 4.66699 -13.166 9.83398 -17.499 15.501s-9.16602 9.5 -14.499 11.5c-52.667 20.667 -79 44.334 -79 71.001c0 14.667 9.66699 22 29 22c4 0 11.167 -0.5 21.5 -1.5s16.5 -1.5 18.5 -1.5c1.33301 0 3.66602 -0.5 6.99902 -1.5
s6 -1.5 8 -1.5c3.33301 0 5.66602 0.833008 6.99902 2.5s3 6.5 5 14.5zM366.001 535.995l0.00195312 -2.00195c0.666992 -1.33301 1 -3 1 -5c0 -4 -2.83301 -9.33301 -8.5 -16s-9.16699 -11 -10.5 -13c-2.66699 -5.33301 -11.334 -24.166 -26.001 -56.499l-28 -62.5
l-23.5 -54c-11.667 -26.667 -20.167 -47.667 -25.5 -63l-19 -56c-7.33301 -22 -13.333 -42.667 -18 -62c-12 -47.333 -18 -76.666 -18 -87.999c0 -4 6 -6 18 -6c6 0 13 1 21 3c24 4.66699 45.667 16.667 65 36c83.333 83.333 150.333 189.333 201 318
c15.333 38.667 23 64.667 23 78c0 5.33301 -0.5 11 -1.5 17s-3.33301 14 -7 24s-10.334 18.167 -20.001 24.5s-21.5 9.5 -35.5 9.5c-9.33301 0 -19.833 -1.5 -31.5 -4.5s-22.667 -6.5 -33 -10.5s-16.5 -6.33301 -18.5 -7c-3.33301 -0.666992 -5 -2 -5 -4z" />
    <glyph glyph-name="E" unicode="E" horiz-adv-x="508" 
d="M332 416c31.333 12 62 17.998 92 17.998c34 0 63.667 -7.66699 89 -23c13.333 -8 20 -20.333 20 -37c0 -7.33301 -7.33301 -13.166 -22 -17.499s-26 -6.5 -34 -6.5c-4 0 -9.66699 0.5 -17 1.5s-12.333 1.5 -15 1.5c-18 0 -35.667 -2.16699 -53 -6.5
s-36.5 -10.666 -57.5 -18.999s-37.833 -14.166 -50.5 -17.499c-18 -4.66699 -28.333 -10.667 -31 -18c0 -0.666992 -7.5 -17.834 -22.5 -51.501s-26.833 -63.5 -35.5 -89.5s-13 -48 -13 -66c0 -19.333 4 -29 12 -29c19.333 0 42.333 6 69 18
c11.333 5.33301 24 10.666 38 15.999s23 9 27 11c6 2.66699 20 10.667 42 24s43.667 24.833 65 34.5s40 14.5 56 14.5c5.33301 0 10 -0.666992 14 -2c4.66699 -1.33301 9.66699 -4.66602 15 -9.99902c2 -2 6.16699 -5.16699 12.5 -9.5s11.333 -8.5 15 -12.5
s5.5 -8.33301 5.5 -13c0 -6 -4 -10.667 -12 -14c-8.66699 -3.33301 -15 -7 -19 -11c-10 -10 -19 -17 -27 -21l-72 -37.5c-15.333 -7.66699 -38.166 -17.667 -68.499 -30s-60.333 -21 -90 -26s-61.167 -7.5 -94.5 -7.5c-9.33301 0 -24.5 4.66699 -45.5 14
s-36.167 20.666 -45.5 33.999c-6.66699 9.33301 -10 24.333 -10 45c0 32 7.66699 73 23 123c3.33301 10.667 7.16602 21.834 11.499 33.501l15 38.5c5.66699 14 9.83398 25 12.501 33c-8.66699 10 -13 21.333 -13 34c0 5.33301 1.5 9.83301 4.5 13.5
s9.5 6.83398 19.5 9.50098c9.33301 2.66699 15.333 5 18 7s5.66699 7 9 15c13.333 30.667 24.333 58 33 82c3.33301 9.33301 5 15 5 17c0 2.66699 -1 4 -3 4c-0.666992 0 -1.83398 -0.166992 -3.50098 -0.5s-4 -0.666016 -7 -0.999023s-6.16699 -0.5 -9.5 -0.5
c-10.667 0 -21.334 4.33301 -32.001 13c-16 13.333 -24 28.666 -24 45.999c0 7.33301 3.66699 12 11 14c27.333 7.33301 86.333 27.333 177 60c30 10.667 71.667 22 125 34s99.333 18 138 18c24 0 41.333 -2.66699 52 -8c16 -8 29.167 -17.5 39.5 -28.5
s15.5 -21.5 15.5 -31.5c0 -12.667 -7 -19.334 -21 -20.001c-5.33301 -0.666992 -10.666 -2 -15.999 -4s-9 -3 -11 -3c-2.66699 0 -9.66699 2.16699 -21 6.5s-23 6.5 -35 6.5c-42 0 -115.333 -15.667 -220 -47c-5.33301 -1.33301 -9 -5 -11 -11l-32 -84
c-7.33301 -18.667 -11 -29 -11 -31c0 -1.33301 0.666992 -2 2 -2c2 0 9.33301 2.33301 22 7z" />
    <glyph glyph-name="F" unicode="F" horiz-adv-x="446" 
d="M206 476c-25.333 -12 -43.3291 -17.9961 -53.9961 -17.9961c-13.333 0 -25.833 5.33301 -37.5 16s-17.5 19.667 -17.5 27c0 4.66699 2.16699 11 6.5 19s6.83301 13 7.5 15c0.666992 4 4.33398 7 11.001 9c42 10 92.333 27.333 151 52c12.667 5.33301 61.667 19 147 41
c42.667 10.667 82.334 16 119.001 16c74 0 111 -24.667 111 -74c0 -4.66699 -3 -8.33398 -9 -11.001c-16 -8.66699 -30 -13 -42 -13s-22 4.33301 -30 13c-5.33301 6 -13 9 -23 9c-5.33301 0 -15.666 -1.83301 -30.999 -5.5s-25.333 -5.83398 -30 -6.50098
c-16 -2 -36.833 -6.5 -62.5 -13.5s-42.5 -11.167 -50.5 -12.5c-2.66699 -0.666992 -4.33398 -2.5 -5.00098 -5.5s-1.16699 -6.83301 -1.5 -11.5s-1.16602 -8.33398 -2.49902 -11.001c-28 -50.667 -49.667 -96 -65 -136c-4 -10.667 -6 -17.334 -6 -20.001c0 -2 1 -3 3 -3
c3.33301 0 10.666 1.33301 21.999 4c30 7.33301 70.333 15 121 23c1.33301 0 3.33301 0.5 6 1.5s5.5 1.66699 8.5 2s6.16699 0.5 9.5 0.5c6.66699 0 17 -3.33301 31 -10c17.333 -8.66699 28.666 -15.667 33.999 -21s8 -12.333 8 -21c0 -9.33301 -5.66699 -15.333 -17 -18
c-150.667 -30.667 -233.334 -48 -248.001 -52c-7.33301 -2 -12 -5.66699 -14 -11c-4.66699 -11.333 -12.5 -34.333 -23.5 -69s-17.167 -53.667 -18.5 -57c-3.33301 -8.66699 -5 -15 -5 -19c0 -2.66699 -0.833008 -6.5 -2.5 -11.5s-3.16699 -13.5 -4.5 -25.5
s-2 -27.667 -2 -47c0 -18.667 -7 -28 -21 -28c-28.667 0 -54.334 7 -77.001 21c-8 5.33301 -12 11.333 -12 18c0 13.333 1.5 28.833 4.5 46.5s5.66699 31.5 8 41.5s6.66602 26.667 12.999 50s10.166 37 11.499 41c2.66699 10 4 16.333 4 19s-1.66699 4 -5 4
c-10.667 0 -20 4 -28 12s-12 17 -12 27c0 2 -1.16699 5 -3.5 9s-3.5 6.66699 -3.5 8c0 4 3 7 9 9c6.66699 2.66699 17.5 5.5 32.5 8.5s25.833 5.83301 32.5 8.5c3.33301 1.33301 6.66602 5.33301 9.99902 12c6 14 14.833 35.833 26.5 65.5l27.5 68.5c4 9.33301 6 15 6 17
s-0.666992 3 -2 3c-2 0 -7 -2 -15 -6z" />
    <glyph glyph-name="G" unicode="G" horiz-adv-x="596" 
d="M545 425c-14.667 4 -25.5 10.001 -32.5 18.001s-10.5 15.667 -10.5 23c0 5.33301 3.66699 12.5 11 21.5s11.666 15.167 12.999 18.5c2 6 4.83301 11.833 8.5 17.5s5.83398 8.83398 6.50098 9.50098c4.66699 9.33301 7 21 7 35c0 12.667 -4.66699 19 -14 19
c-5.33301 0 -13.666 -1 -24.999 -3c-10.667 -2 -21.167 -5.5 -31.5 -10.5s-21 -11.833 -32 -20.5s-19.667 -15.834 -26 -21.501s-15.166 -14.167 -26.499 -25.5l-20 -20l-26 -25c-42.667 -41.333 -79.667 -90.5 -111 -147.5s-53.333 -113.833 -66 -170.5
c-4.66699 -23.333 -7 -40.333 -7 -51c0 -12 2.66699 -23.333 8 -34c4 -8.66699 7.5 -14.167 10.5 -16.5s7.5 -3.5 13.5 -3.5c9.33301 0 24.5 4.33301 45.5 13s39.167 20 54.5 34c29.333 26.667 55 49 77 67l47.5 38.5c9.66699 7.66699 17.5 14.5 23.5 20.5
c22 22 33 36 33 42c0 1.33301 -1 2 -3 2s-6.33301 -1.33301 -13 -4c-21.333 -8.66699 -40.333 -13 -57 -13c-21.333 0 -36.666 3.66699 -45.999 11c-1.33301 1.33301 -3.33301 2.83301 -6 4.5s-4.5 3 -5.5 4s-2.5 2.33301 -4.5 4s-3.33301 2.83398 -4 3.50098l-3 3l-3 3
c-0.666992 0.666992 -1.33398 1.66699 -2.00098 3s-1 2.5 -1 3.5s-0.166992 2.33301 -0.5 4s-0.5 3.16699 -0.5 4.5c0 11.333 1.16699 18.666 3.5 21.999s9.16602 6 20.499 8c1.33301 0 7.33301 0.833008 18 2.5s19 3.16699 25 4.5c18.667 4 40 10 64 18s42 12 54 12
c19.333 0 38.333 -9 57 -27c16.667 -16 25 -30.667 25 -44c0 -8.66699 -5 -23 -15 -43c-24 -49.333 -41.167 -98 -51.5 -146s-15.5 -86 -15.5 -114c0 -4.66699 -5.16699 -10.334 -15.5 -17.001s-21.5 -10 -33.5 -10c-5.33301 0 -10.833 1 -16.5 3s-8.83398 3 -9.50098 3
c-14.667 2 -24 4.66699 -28 8s-6 10.333 -6 21c0 7.33301 1 16.833 3 28.5s4 21.834 6 30.501l3 14c0 2 -0.666992 3 -2 3s-4.66602 -2.66699 -9.99902 -8c-38 -36.667 -75.667 -62 -113 -76c-32.667 -12 -61.667 -18 -87 -18c-38.667 0 -72.334 14.333 -101.001 43
c-31.333 31.333 -47 60.333 -47 87c0 20.667 2.16699 43.667 6.5 69s12.333 56.833 24 94.5s31.167 79.167 58.5 124.5s60.666 90 99.999 134c23.333 26.667 53.166 53.667 89.499 81s69.833 47 100.5 59c19.333 7.33301 41 11 65 11c18 0 39.667 -4.5 65 -13.5
s44.333 -18.167 57 -27.5c22 -16.667 33 -39.334 33 -68.001c0 -8.66699 -1 -18.167 -3 -28.5s-4 -18.666 -6 -24.999s-5 -15 -9 -26s-6.33301 -17.5 -7 -19.5c-2 -6.66699 -8 -15.334 -18 -26.001s-21.333 -16 -34 -16c-5.33301 0 -11.666 1.83301 -18.999 5.5
s-11.666 5.5 -12.999 5.5z" />
    <glyph glyph-name="H" unicode="H" horiz-adv-x="562" 
d="M343 237l-95.9951 -18.0039c-4.66699 -0.666992 -8 -3 -10 -7c-8.66699 -14.667 -16 -38 -22 -70c-6 -29.333 -10.667 -48 -14 -56s-5 -15 -5 -21c0 -2.66699 1 -9.33398 3 -20.001s3 -20 3 -28c0 -6 -0.5 -11 -1.5 -15s-4.33301 -7.66699 -10 -11s-13.5 -5 -23.5 -5
c-17.333 0 -29.333 3.33301 -36 10c-2 2 -7.5 5.33301 -16.5 10s-14.167 8.33398 -15.5 11.001c-0.666992 2 -2.66699 3.33301 -6 4c-7.33301 1.33301 -11 7 -11 17c0 16.667 1 28 3 34l1 6c0.666992 4.66699 1.66699 8.33398 3 11.001c0.666992 1.33301 1.16699 4 1.5 8
s0.5 6.66699 0.5 8l10 52c2 10 3 17 3 21c0 2.66699 -1 4 -3 4c-0.666992 0 -2.5 -0.166992 -5.5 -0.5s-6.83301 -0.666016 -11.5 -0.999023s-9.33398 -0.5 -14.001 -0.5c-34.667 0 -60.334 9.66699 -77.001 29c-3.33301 3.33301 -6.16602 10.666 -8.49902 21.999
s-3.5 19.333 -3.5 24c0 12.667 7.66699 19 23 19c6.66699 0 16.667 -1.66699 30 -5l6 -2c4 -1.33301 7 -2 9 -2c11.333 0 37.666 4.33301 78.999 13c4 0.666992 7 3.33398 9 8.00098c6 12 12.667 31.333 20 58s13.333 45.667 18 57c41.333 102.667 83.333 193 126 271
c5.33301 10 16.666 15 33.999 15c12 0 22.333 -2.66699 31 -8c3.33301 -2 9.83301 -4.83301 19.5 -8.5s16.5 -7.66699 20.5 -12s6 -10.166 6 -17.499c0 -6 -1.33301 -10.667 -4 -14c-12 -16 -31.167 -51 -57.5 -105s-49.166 -103.667 -68.499 -149
c-13.333 -31.333 -20 -50 -20 -56c0 -3.33301 1.33301 -5 4 -5s9.33398 1 20.001 3c34.667 6 70.667 14.333 108 25c5.33301 1.33301 9 4.33301 11 9c15.333 33.333 43 109.666 83 228.999c2 6 4.66699 10 8 12c14 10 24 15 30 15c1.33301 0 5.5 -0.666992 12.5 -2
s14.833 -2 23.5 -2c13.333 0 24.333 -3.66699 33 -11s13 -14.333 13 -21c0 -11.333 -3.33301 -27 -10 -47c-6 -18 -15.833 -42.667 -29.5 -74l-23.5 -54c-4.66699 -12 -7 -18.333 -7 -19c0 -2 1 -3 3 -3c1.33301 0 4 0.666992 8 2c22 7.33301 40.333 11 55 11
c6.66699 0 12.667 -0.333008 18 -1s9.16602 -1.5 11.499 -2.5s4.66602 -2.16699 6.99902 -3.5s3.83301 -2 4.5 -2l5 -1c3.33301 -0.666992 6.5 -1.5 9.5 -2.5s6.66699 -2.83301 11 -5.5s8.66602 -6.66699 12.999 -12s8.5 -12 12.5 -20c2.66699 -5.33301 4 -10.666 4 -15.999
c0 -12.667 -6 -19 -18 -19c-18.667 0 -36.834 -1.33301 -54.501 -4s-38.167 -6.5 -61.5 -11.5l-50 -10.5c-7.33301 -1.33301 -12 -4 -14 -8c-7.33301 -14 -13.166 -27.5 -17.499 -40.5s-7.83301 -25.333 -10.5 -37s-5 -20.167 -7 -25.5
c-14.667 -41.333 -27.334 -107.666 -38.001 -198.999c-1.33301 -11.333 -12.333 -17 -33 -17c-12.667 0 -28 3.33301 -46 10c-19.333 6 -29 26.333 -29 61c0 10 1 18 3 24c5.33301 18 12.833 48.167 22.5 90.5s17.5 72.5 23.5 90.5c2 6 3 10.333 3 13s-2 4 -6 4
c-6.66699 0 -14.667 -1 -24 -3z" />
    <glyph glyph-name="I" unicode="I" horiz-adv-x="254" 
d="M132 -28c-2 0 -5.49609 -3.00488 -10.4961 -9.00488s-10.5 -9 -16.5 -9c-4.66699 0 -9.5 1.83301 -14.5 5.5s-8.16699 5.5 -9.5 5.5c-3.33301 0.666992 -6.83301 2 -10.5 4s-7.33398 4.33301 -11.001 7s-6.16699 4.33398 -7.5 5.00098l-3 1
c-2 0.666992 -3.83301 1.33398 -5.5 2.00098s-3.16699 2 -4.5 4s-2 4.33301 -2 7c0 4.66699 2 16.667 6 36s8 32.333 12 39c2.66699 4.66699 5.33398 12.334 8.00098 23.001c11.333 46 24.666 92.833 39.999 140.5l52.5 157l46.5 137.5c2.66699 8 7.16699 17.833 13.5 29.5
s14.833 33.5 25.5 65.5c3.33301 10.667 16.666 16 39.999 16c19.333 0 37.833 -3.66699 55.5 -11s26.5 -16.333 26.5 -27c0 -15.333 -1.33301 -26.166 -4 -32.499s-7.33398 -12.833 -14.001 -19.5s-12.334 -14.667 -17.001 -24l-4 -6c-2 -4 -3.66699 -7.66699 -5 -11
l-90 -252.5c-42.667 -121 -64 -187.5 -64 -199.5c0 -1.33301 0.333008 -3.5 1 -6.5s1 -5.83301 1 -8.5c0 -14 -2.5 -28.667 -7.5 -44s-14.167 -23.666 -27.5 -24.999z" />
    <glyph glyph-name="J" unicode="J" horiz-adv-x="400" 
d="M496 544c-70.667 -150 -124.329 -284.666 -160.996 -403.999c-14.667 -48.667 -33.334 -90.667 -56.001 -126c-18 -28.667 -38.5 -52.334 -61.5 -71.001s-46.167 -28 -69.5 -28c-14.667 0 -30.5 4.33301 -47.5 13s-25.833 13 -26.5 13
c-53.333 17.333 -80 72.666 -80 165.999c0 34 2.66699 62.333 8 85c1.33301 5.33301 3.5 11.833 6.5 19.5s8 15.834 15 24.501s14.5 13 22.5 13c7.33301 0 14 -0.666992 20 -2s10.667 -2 14 -2c13.333 0 24.666 -5.33301 33.999 -16s14 -20.334 14 -29.001
c0 -6 -2.83301 -14.5 -8.5 -25.5s-9.16699 -18.833 -10.5 -23.5c-1.33301 -6 -3 -11 -5 -15l-4.5 -9c-1 -2 -1.83301 -6 -2.5 -12s-1 -15 -1 -27c0 -16.667 1.66699 -31.834 5 -45.501s7 -23.5 11 -29.5s7.33301 -9 10 -9c17.333 0 36.666 17.333 57.999 52
c18.667 29.333 38.667 74 60 134c48 139.333 93.667 256.333 137 351c10 22.667 15 34.334 15 35.001c0 2.66699 -1.66699 4 -5 4c-0.666992 0 -25 -6 -73 -18c-2.66699 -0.666992 -7.33398 -3 -14.001 -7c-15.333 -9.33301 -37.666 -14 -66.999 -14
c-36.667 0 -57.334 8.33301 -62.001 25c-0.666992 1.33301 -2.66699 3.66602 -6 6.99902s-5 8 -5 14c0 4 0.333008 8.33301 1 13s1.66699 9.33398 3 14.001s2.33301 8.33398 3 11.001c1.33301 8 7.66602 12 18.999 12c24 0 65 6.33301 123 19c74 16 123 24 147 24
c18.667 0 38.334 -7.33301 59.001 -22c16.667 -12 25 -22.333 25 -31c0 -11.333 -2.5 -21.333 -7.5 -30s-11.5 -17.667 -19.5 -27s-13.667 -18 -17 -26z" />
    <glyph glyph-name="K" unicode="K" horiz-adv-x="532" 
d="M297 396c3.33301 0 9.66602 2.33203 18.999 6.99902c72.667 36 126.334 67.5 161.001 94.5s85.667 74.833 153 143.5c3.33301 3.33301 8.66602 5 15.999 5c12.667 0 25.667 -3.33301 39 -10c4 -2 8.83301 -4.83301 14.5 -8.5s9.83398 -5.83398 12.501 -6.50098
c5.33301 -1.33301 10 -4.16602 14 -8.49902s6 -8.5 6 -12.5c0 -3.33301 -3.33301 -9 -10 -17c-62.667 -76.667 -139.667 -142 -231 -196c-20.667 -12.667 -69.667 -38.667 -147 -78c-7.33301 -3.33301 -11 -8.66602 -11 -15.999c0 -5.33301 2.33301 -12.666 7 -21.999
c4 -8 7.33301 -16.667 10 -26s5 -16 7 -20c16 -32.667 41.667 -73.334 77 -122.001s68 -85.667 98 -111c4.66699 -4 12.334 -9 23.001 -15s19 -11.833 25 -17.5s9 -12.834 9 -21.501c0 -14.667 -7 -22.667 -21 -24c-4 0 -7.83301 -1.16699 -11.5 -3.5s-9.5 -3.5 -17.5 -3.5
c-44.667 0 -87 23.667 -127 71c-2.66699 3.33301 -8.33398 9.66602 -17.001 18.999l-26 28.5c-8.66699 9.66699 -16.334 18.834 -23.001 27.501c-40.667 52 -73.667 109 -99 171c-7.33301 18 -12 27 -14 27s-7 -8.66699 -15 -26
c-32.667 -71.333 -55.334 -141.333 -68.001 -210c-1.33301 -8.66699 -8.33301 -16.667 -21 -24c-9.33301 -5.33301 -16.666 -8 -21.999 -8c-9.33301 0 -17.333 3.33301 -24 10c-4.66699 4.66699 -9.33398 8 -14.001 10c-24.667 10 -37 21.333 -37 34l10 32
c54.667 174.667 129.667 353.667 225 537c4.66699 8 8.83398 13.5 12.501 16.5s5.83398 4.83301 6.50098 5.5c13.333 16.667 27.666 25 42.999 25c6.66699 0 13.334 -1.66699 20.001 -5c2.66699 -1.33301 5.33398 -3.66602 8.00098 -6.99902s5 -5.33301 7 -6
c2.66699 -1.33301 6 -2.5 10 -3.5s7.16699 -2 9.5 -3s5.16602 -3.16699 8.49902 -6.5c5.33301 -5.33301 8 -11.666 8 -18.999s-2.33301 -14.333 -7 -21c-38 -59.333 -67.333 -111.333 -88 -156c-7.33301 -14.667 -11 -23.334 -11 -26.001s1 -4 3 -4z" />
    <glyph glyph-name="L" unicode="L" horiz-adv-x="450" 
d="M247 73c55.333 16 110.668 35.666 166.001 58.999c4.66699 2 10.334 3 17.001 3c17.333 0 35.666 -5.5 54.999 -16.5s29 -21.167 29 -30.5c0 -0.666992 0.833008 -3.5 2.5 -8.5s2.5 -8.5 2.5 -10.5c0 -6 -1.33301 -10.667 -4 -14
c-2.66699 -4.66699 -7.33398 -7.66699 -14.001 -9s-15 -2.16602 -25 -2.49902s-18 -1.16602 -24 -2.49902c-20.667 -4.66699 -49.667 -13.834 -87 -27.501s-72.833 -24.834 -106.5 -33.501s-66.834 -13 -99.501 -13c-34 0 -66 21 -96 63c-3.33301 4 -5 10 -5 18
c0 9.33301 3.16699 22.666 9.5 39.999s9.83301 28 10.5 32c2 10.667 5 22.334 9 35.001c17.333 50.667 37.5 102.5 60.5 155.5s51.667 115.667 86 188l70.5 149.5c4 9.33301 15.333 14 34 14c9.33301 0 17.833 -2.16699 25.5 -6.5s11.834 -6.5 12.501 -6.5
c26.667 -6.66699 40 -18 40 -34c0 -5.33301 -2 -12.666 -6 -21.999s-6 -14.333 -6 -15c-2 -10 -5 -16.667 -9 -20c-16.667 -14.667 -32.667 -42.334 -48 -83.001c-2 -5.33301 -6 -13.666 -12 -24.999l-15 -29c-40.667 -88.667 -83.667 -195.667 -129 -321
c-5.33301 -14.667 -8 -25 -8 -31s2 -9 6 -9c12 0.666992 31.333 5 58 13z" />
    <glyph glyph-name="M" unicode="M" horiz-adv-x="654" 
d="M509 312c-8 -8 -19.001 -20.001 -33.001 -36.001l-40 -46.5c-12.667 -15 -19.667 -23.167 -21 -24.5c-5.33301 -6 -10.666 -9 -15.999 -9l-43 9c-30 6.66699 -49 16.667 -57 30c-12 20.667 -18.667 50.334 -20 89.001c-0.666992 21.333 -1 35.666 -1 42.999
c0 4 -1 6 -3 6c-2.66699 0 -8.66699 -10.333 -18 -31c-14 -30 -28 -65 -42 -105c-40.667 -116 -61 -195.667 -61 -239c0 -5.33301 -1.83301 -9.33301 -5.5 -12s-8.66699 -4.83398 -15 -6.50098s-10.833 -3.5 -13.5 -5.5c-6.66699 -4.66699 -12.667 -7 -18 -7
c-6 0 -14 2.66699 -24 8s-15.333 8 -16 8c-10.667 2 -18.5 8.33301 -23.5 19s-7.5 19.667 -7.5 27c0 15.333 5.16699 32.833 15.5 52.5s16.166 32.5 17.499 38.5c20 76 62.167 182.833 126.5 320.5s98.833 212.5 103.5 224.5c4.66699 10.667 8 17.334 10 20.001s5 4 9 4
c2.66699 0 6.83398 -0.666992 12.501 -2s11.167 -2.33301 16.5 -3c44.667 -5.33301 67 -17.333 67 -36c0 -10 -3 -25 -9 -45l-17 -51c-4 -13.333 -6.66699 -31 -8 -53c-2 -34 -3 -62 -3 -84c0 -13.333 0.333008 -28.833 1 -46.5s1 -29.5 1 -35.5c0 -4.66699 1 -7 3 -7
c2.66699 0 9.33398 5.66699 20.001 17c4.66699 4.66699 40.834 39 108.501 103s114.5 114 140.5 150c6.66699 9.33301 15 14 25 14c6 0 14 -1.33301 24 -4s16 -4 18 -4c10.667 0 19.667 -5.83301 27 -17.5s11 -22.167 11 -31.5c0 -6 -4 -15 -12 -27
c-88 -131.333 -144.333 -301.333 -169 -510c-3.33301 -26 -6.33301 -55.333 -9 -88c-0.666992 -10.667 -5.66699 -16 -15 -16c-3.33301 0 -7.33301 0.833008 -12 2.5s-7.33398 2.5 -8.00098 2.5s-2.33398 -0.333008 -5.00098 -1s-5 -1 -7 -1c-14.667 0 -33 8 -55 24
c-6.66699 4.66699 -10 9.33398 -10 14.001c0 6 1 15 3 27c14.667 89.333 27.334 160 38.001 212c9.33301 46 19.666 84 30.999 114c2.66699 7.33301 4 12 4 14c0 2.66699 -0.666992 4 -2 4s-6 -4 -14 -12z" />
    <glyph glyph-name="N" unicode="N" horiz-adv-x="598" 
d="M482 4c-18 -18 -35.6699 -26.9971 -53.0029 -26.9971c-16 0 -31.667 4.33301 -47 13c-20 11.333 -33 20.5 -39 27.5s-12 19.5 -18 37.5s-12 41.667 -18 71s-10.667 54.833 -14 76.5l-13.5 90c-5.66699 38.333 -9.16699 62.833 -10.5 73.5c-3.33301 20.667 -6 31 -8 31
c-2.66699 0 -7 -10.333 -13 -31c-37.333 -124.667 -60.666 -209.334 -69.999 -254.001c-9.33301 -43.333 -14 -75 -14 -95c0 -30.667 -15.333 -46 -46 -46c-9.33301 0 -17 0.666992 -23 2c-4.66699 0.666992 -14 5 -28 13s-21 15.333 -21 22
c0 10.667 4.66699 33.334 14 68.001c10 38 27.333 97.833 52 179.5s38.667 129.167 42 142.5l7 26c18 60.667 32 116.334 42 167.001c1.33301 5.33301 5 9.16602 11 11.499s9 4.5 9 6.5c0 0.666992 -2.83301 7 -8.5 19s-8.5 21.333 -8.5 28c0 10 5 17.333 15 22
c15.333 6.66699 34 10 56 10c14.667 0 25 -3 31 -9c4 -4.66699 7 -9.33398 9 -14.001c22 -66 39.833 -158.667 53.5 -278s25.5 -200.666 35.5 -243.999c3.33301 -15.333 6 -23 8 -23s6.33301 8 13 24c10 24 20.333 51.167 31 81.5s18.667 54.166 24 71.499l27 88.5
c12.667 41.667 20.334 67.5 23.001 77.5c2 6.66699 5 15.667 9 27s7 20.333 9 27c2.66699 11.333 5.33398 28.833 8.00098 52.5s5.66699 41.5 9 53.5c3.33301 10.667 6.5 17.5 9.5 20.5s8.5 4.5 16.5 4.5c8.66699 0 18.334 -1.33301 29.001 -4
c3.33301 -0.666992 8 -1.5 14 -2.5s10.833 -2 14.5 -3s7.16699 -2.83301 10.5 -5.5c18.667 -14.667 28 -28.334 28 -41.001c0 -6.66699 -3.66699 -17.334 -11 -32.001c-2.66699 -5.33301 -7.33398 -18 -14.001 -38l-42 -132l-59.5 -182
c-19.667 -58 -41.5 -116.667 -65.5 -176c-6 -14.667 -11 -24 -15 -28z" />
    <glyph glyph-name="O" unicode="O" horiz-adv-x="490" 
d="M456 598c48 -42.667 72.001 -99.6699 72.001 -171.003c0 -23.333 -3.33301 -49 -10 -77c-33.333 -139.333 -77 -243.333 -131 -312c-12 -15.333 -31 -29.666 -57 -42.999s-54.667 -20 -86 -20c-23.333 0 -46 3.66699 -68 11c-10.667 3.33301 -22.167 10.166 -34.5 20.499
s-22.166 20.833 -29.499 31.5c-22 32 -33 70.333 -33 115c0 64.667 10 123.834 30 177.501s49.667 109.834 89 168.501c31.333 46.667 59.333 79.334 84 98.001c31.333 24 53.333 36 66 36c8 0 18.333 -2.66699 31 -8c19.333 -8 33.666 -12.667 42.999 -14
c15.333 -2 26.666 -6.33301 33.999 -13zM368.001 535.997c-4 0 -11.999 -6.33496 -23.999 -19.002c-68 -72 -115.667 -152.333 -143 -241c-11.333 -36.667 -17 -79 -17 -127c0 -29.333 6.33301 -53.666 19 -72.999c8.66699 -13.333 19 -20 31 -20
c23.333 0 42.666 11.333 57.999 34c28 42.667 55.667 99.834 83 171.501s41 133.5 41 185.5c0 47.333 -11.333 74.333 -34 81c-4 1.33301 -7.16699 3 -9.5 5s-3.83301 3 -4.5 3z" />
    <glyph glyph-name="P" unicode="P" horiz-adv-x="490" 
d="M226 204c-12 -38 -23.6738 -80.333 -35.0068 -127s-17 -75 -17 -85c0 -4 -3 -8.66699 -9 -14c-7.33301 -6 -18.333 -9 -33 -9c-10.667 0 -19 3 -25 9c-2.66699 2.66699 -7.66699 5.66699 -15 9s-13.5 7 -18.5 11s-7.5 8.66699 -7.5 14c0 2 1.33301 8.66699 4 20
c14.667 62 26 103.333 34 124c2.66699 6.66699 4.33398 13.667 5.00098 21c0.666992 8 2.83398 18 6.50098 30s8.16699 25.333 13.5 40s9 25 11 31c3.33301 10.667 5 17 5 19s-2.33301 5.33301 -7 10c-10 10 -15 19.333 -15 28c0 3.33301 0.666992 5.83301 2 7.5
s3.33301 2.83398 6 3.50098s4.33398 1.33398 5.00098 2.00098c7.33301 4.66699 14.333 8 21 10c4.66699 1.33301 8.33398 5.33301 11.001 12l23 66c2.66699 7.33301 4 11.666 4 12.999c0 2.66699 -4 6.33398 -12 11.001c-5.33301 3.33301 -9.66602 6.66602 -12.999 9.99902
s-6.5 7.16602 -9.5 11.499s-5.83301 7.83301 -8.5 10.5s-4 7 -4 13c0 10.667 12 24 36 40c39.333 26 70 45.667 92 59s55.667 28.166 101 44.499s88.666 24.5 129.999 24.5c2 0 5.33301 -0.166992 10 -0.5s8.33398 -0.5 11.001 -0.5c22.667 0 43.334 -7.66699 62.001 -23
c12.667 -10.667 21.834 -21.334 27.501 -32.001s8.5 -25.667 8.5 -45c0 -22 -3 -41.667 -9 -59s-18 -42.666 -36 -75.999c-20 -37.333 -45.833 -74.166 -77.5 -110.499s-63.5 -66.5 -95.5 -90.5c-9.33301 -7.33301 -24.333 -14.333 -45 -21s-41 -10 -61 -10
c-23.333 0 -40 4 -50 12c-8 6.66699 -13.333 10 -16 10c-2 0 -5.33301 -7.66699 -10 -23zM488.993 582c-10.667 -3.33301 -25.832 -7.49512 -45.499 -12.4951s-33.667 -8.83301 -42 -11.5s-18.333 -7.33398 -30 -14.001s-22.5 -14.667 -32.5 -24
c-5.33301 -15.333 -13.166 -36.333 -23.499 -63s-19.333 -50.834 -27 -72.501s-13.834 -41.834 -18.501 -60.501c-0.666992 -2.66699 -1 -5.66699 -1 -9c0 -4 1.33301 -7 4 -9c2.66699 -2.66699 8.16699 -6.83398 16.5 -12.501s14.5 -8.5 18.5 -8.5
c4.66699 0 13.667 5 27 15c56 41.333 101 93.666 135 156.999c30.667 57.333 46 98.333 46 123c0 4 -2.33301 6 -7 6s-11.334 -1.33301 -20.001 -4z" />
    <glyph glyph-name="Q" unicode="Q" horiz-adv-x="554" 
d="M387 41c-44.667 -40 -92.332 -59.9971 -142.999 -59.9971c-23.333 0 -40.666 2.33301 -51.999 7c-8 2.66699 -18.833 9 -32.5 19s-22.5 16 -26.5 18c-24 11.333 -40.333 36 -49 74c-6.66699 31.333 -10 58.666 -10 81.999c0 39.333 6.33301 79.666 19 120.999
c13.333 42.667 34.833 86.667 64.5 132s63.167 83.333 100.5 114c1.33301 1.33301 14.666 10.333 39.999 27c24 16 50.5 28.333 79.5 37s51.167 13 66.5 13c8.66699 0 16.667 -1 24 -3s15.166 -4.83301 23.499 -8.5s13.5 -5.83398 15.5 -6.50098
c31.333 -10.667 53.666 -22 66.999 -34c25.333 -22 38 -65.333 38 -130c0 -67.333 -38.667 -157 -116 -269c-4 -6 -8.5 -12 -13.5 -18s-8.33301 -10.333 -10 -13s-2.5 -5 -2.5 -7c0 -2.66699 3 -9 9 -19c20.667 -37.333 44.334 -73.333 71.001 -108s50 -59 70 -73
c11.333 -8 17 -14 17 -18c0 -14.667 -14 -22 -42 -22c-32.667 0 -58.667 8.33301 -78 25c-40 34 -76 73.667 -108 119c-4.66699 6.66699 -7.66699 10 -9 10c-2 0 -6.33301 -3 -13 -9zM419.002 252.003c23.333 32.667 44 70.667 62 114s27 83 27 119
c0 19.333 -3 36.333 -9 51c-3.33301 8 -8 12 -14 12c-16.667 0 -37 -5.66699 -61 -17c-63.333 -30.667 -121 -84.667 -173 -162c-45.333 -67.333 -68 -135 -68 -203c0 -20.667 2.16699 -39.5 6.5 -56.5s9 -29.333 14 -37s9.5 -11.5 13.5 -11.5
c14.667 0 34.5 8.83301 59.5 26.5s44.167 34.167 57.5 49.5c4 4.66699 6 9.33398 6 14.001c0 2.66699 -2 8 -6 16c-36 72 -55.333 113.333 -58 124c-3.33301 13.333 -5 21.666 -5 24.999c0 14.667 11.333 22 34 22c10 0 20 -1.83301 30 -5.5s16.333 -5.5 19 -5.5
c18 0 29.667 -8 35 -24c0.666992 -2 2.66699 -9.16699 6 -21.5s6.33301 -21.5 9 -27.5c2.66699 -6.66699 5 -10 7 -10c1.33301 0 4 2.66699 8 8z" />
    <glyph glyph-name="R" unicode="R" horiz-adv-x="494" 
d="M204 192c-18 -77.333 -26.9961 -135.333 -26.9961 -174c0 -6 -5 -11.333 -15 -16s-21 -7 -33 -7c-10 0 -18.333 1.66699 -25 5l-22 12c-4.66699 2.66699 -8.83398 6.16699 -12.501 10.5s-5.5 8.83301 -5.5 13.5c0 1.33301 1.33301 10.666 4 27.999
c15.333 98 47.333 217.667 96 359c2 5.33301 6 14 12 26s10 21 12 27c0 0.666992 1.33301 4.66699 4 12s4 11.666 4 12.999c0 2 -2.33301 5 -7 9c-18 13.333 -27 27.666 -27 42.999c0 6 2.66699 11 8 15c24 18.667 54.833 35.334 92.5 50.001s77.167 22 118.5 22
c56.667 0 97 -9.33301 121 -28c20 -15.333 33 -29 39 -41c10.667 -20.667 16 -42.667 16 -66c0 -30.667 -7.66699 -62 -23 -94s-34 -59.667 -56 -83c-12.667 -13.333 -27.334 -24.833 -44.001 -34.5s-31.334 -16.667 -44.001 -21s-33 -10.833 -61 -19.5
c-10.667 -3.33301 -16 -6.33301 -16 -9c0 -3.33301 4 -11.666 12 -24.999c4.66699 -8 13 -21.167 25 -39.5s21 -32.5 27 -42.5c1.33301 -2 2.5 -3.66699 3.5 -5s2.16699 -2.5 3.5 -3.5s2.33301 -2.16699 3 -3.5c12 -15.333 29.667 -34.666 53 -57.999
c18 -18 39 -29.667 63 -35c9.33301 -2 18.666 -9 27.999 -21s14 -23.333 14 -34c0 -18 -13 -27 -39 -27c-30 0 -63.333 11.333 -100 34c-64 40 -122.333 110.333 -175 211c-9.33301 18 -14.666 27 -15.999 27c-2.66699 0 -6.33398 -10 -11.001 -30zM263.004 327
c8 0 17 2.00195 27 6.00195c3.33301 1.33301 9.5 3.16602 18.5 5.49902s17.833 6.16602 26.5 11.499c74.667 45.333 112 109 112 191c0 5.33301 -0.5 9.5 -1.5 12.5s-4 6 -9 9s-12.167 4.5 -21.5 4.5c-18 0 -37 -3.66699 -57 -11c-6 -2 -10 -5 -12 -9
c-32.667 -56 -61.667 -121.667 -87 -197c-3.33301 -10 -5 -16.333 -5 -19s3 -4 9 -4z" />
    <glyph glyph-name="S" unicode="S" horiz-adv-x="432" 
d="M340 508c0 -30.667 4.33789 -64.334 13.0049 -101.001c1.33301 -6.66699 12 -46.667 32 -120s32.667 -125.333 38 -156c4.66699 -28 7 -48 7 -60c0 -48 -21.333 -80 -64 -96c-8.66699 -3.33301 -23.334 -5 -44.001 -5c-47.333 0 -92.833 12.333 -136.5 37
s-82.167 57.667 -115.5 99l-15.5 18c-6.33301 7.33301 -10.833 12.666 -13.5 15.999c-19.333 27.333 -29 55 -29 83c0 22.667 7.33301 37 22 43c4 1.33301 8 2 12 2c18.667 0 38.334 -6 59.001 -18c10 -6 19 -13.167 27 -21.5s12 -14.5 12 -18.5
c0 -4.66699 -0.833008 -10.667 -2.5 -18s-2.5 -13 -2.5 -17c0 -14.667 10.667 -33 32 -55s42.333 -38.667 63 -50c24.667 -14 41.667 -21 51 -21c10.667 0 18.167 3.83301 22.5 11.5s6.5 14.5 6.5 20.5c0 32 -1.33301 56.667 -4 74c-6 39.333 -18.667 92.166 -38 158.499
s-32 116.166 -38 149.499c-6.66699 34.667 -10 59.667 -10 75c0 6.66699 1 14.334 3 23.001c0.666992 2 1.66699 7.33301 3 16s2.66602 15.667 3.99902 21s3.66602 12 6.99902 20s7.16602 14.333 11.499 19s10.333 8.83398 18 12.501s16.5 5.5 26.5 5.5
c34.667 0 65.167 -4.66699 91.5 -14s46.666 -21.833 60.999 -37.5s25.166 -31.167 32.499 -46.5s12.333 -31.333 15 -48c3.33301 -18.667 5 -28.334 5 -29.001c0 -14 -9.66699 -21 -29 -21c-5.33301 0 -13 1.33301 -23 4c-4.66699 1.33301 -9.33398 3 -14.001 5
s-9.16699 4.83301 -13.5 8.5l-9.5 8c-2 1.66699 -5.16699 4.83398 -9.5 9.50098s-6.83301 7.33398 -7.5 8.00098c-2.66699 2.66699 -5.66699 11.334 -9 26.001s-6.33301 24.667 -9 30c-5.33301 10 -11.666 15 -18.999 15c-4 0 -8.16699 -6.83301 -12.5 -20.5
s-6.5 -28.5 -6.5 -44.5z" />
    <glyph glyph-name="T" unicode="T" horiz-adv-x="388" 
d="M203 510c-36.667 0 -61.0029 7.33496 -73.0029 22.002c-3.33301 4 -5 11.333 -5 22c0 23.333 2.66699 37.666 8 42.999c7.33301 7.33301 15 11 23 11c4.66699 0 12.334 -1.16699 23.001 -3.5s25.667 -3.5 45 -3.5c46 0 94 5 144 15c54.667 10.667 104.334 16 149.001 16
c20.667 0 43.667 -7.5 69 -22.5s38 -27.167 38 -36.5c0 -16 -7 -29 -21 -39c-11.333 -7.33301 -22.333 -11 -33 -11c-8 0 -16.667 4.66699 -26 14c-1.33301 1.33301 -5.66602 3.33301 -12.999 6s-12.333 4 -15 4c-43.333 0 -87.333 -5 -132 -15
c2 -2.66699 3 -5.33398 3 -8.00098c0 -0.666992 -11.667 -22.334 -35 -65.001c-64 -118 -109 -245.333 -135 -382c-2.66699 -14 -4 -33 -4 -57c0 -24.667 -11 -37 -33 -37c-16.667 0 -38 7.66699 -64 23c-12 6.66699 -18 19 -18 37c0 12 1.33301 23.333 4 34
c40 160 86.667 297 140 411c5.33301 11.333 8 18 8 20c0 2.66699 -1.66699 4 -5 4c-0.666992 0 -2.83398 -0.166992 -6.50098 -0.5s-8.66699 -0.666016 -15 -0.999023s-13.166 -0.5 -20.499 -0.5z" />
    <glyph glyph-name="U" unicode="U" horiz-adv-x="600" 
d="M185 90c4.66699 0 10.998 4.66797 18.998 14.001c2.66699 3.33301 7.66699 8.66602 15 15.999c135.333 138 241.666 269.667 318.999 395c4 6 8.33301 14 13 24s8.33398 17.333 11.001 22c12.667 19.333 28 29 46 29c1.33301 0 4.83301 -0.5 10.5 -1.5
s10.167 -1.5 13.5 -1.5c12 -1.33301 21 -6.33301 27 -15l14 -21c4 -6.66699 6 -12.334 6 -17.001c0 -3.33301 -0.5 -6.16602 -1.5 -8.49902s-2.33301 -4.83301 -4 -7.5s-2.83398 -5.33398 -3.50098 -8.00098c-4.66699 -14 -14.167 -33.5 -28.5 -58.5
s-24.5 -45.5 -30.5 -61.5c-46.667 -124 -70 -263 -70 -417c0 -10 -7 -15 -21 -15c-5.33301 0 -9.66602 0.5 -12.999 1.5s-6.66602 2.33301 -9.99902 4s-6 2.83398 -8 3.50098c-4.66699 1.33301 -17.667 8.33301 -39 21c-9.33301 5.33301 -15.333 9.33301 -18 12
s-4 6.66699 -4 12c0 10.667 1.33301 18.334 4 23.001c2.66699 4 4.33398 9 5.00098 15l5.5 52c2.33301 22.667 4.5 42.834 6.5 60.501s4 32.167 6 43.5s3 18 3 20c0 1.33301 -0.666992 2 -2 2s-6.33301 -5.33301 -15 -16c-75.333 -90 -140 -158.333 -194 -205
c-14.667 -12.667 -32 -19 -52 -19c-15.333 0 -29.833 4.5 -43.5 13.5s-24.167 14.5 -31.5 16.5c-20 5.33301 -32.333 13.333 -37 24c-3.33301 8 -5 29.333 -5 64c0 49.333 8.66699 101 26 155c14 42.667 36.333 103 67 181l59 152l14 28c10 20 22 30 36 30
c4.66699 0 8.33398 -0.333008 11.001 -1s6.5 -2.33398 11.5 -5.00098s10.167 -5 15.5 -7c8.66699 -3.33301 15.667 -6.83301 21 -10.5s9.16602 -7.83398 11.499 -12.501s3.66602 -8.5 3.99902 -11.5s0.5 -7.83301 0.5 -14.5l-10 -25c-12 -30 -31.667 -74.333 -59 -133
s-49.166 -110 -65.499 -154s-27.5 -87.333 -33.5 -130c-2.66699 -18 -4 -35.333 -4 -52c0 -4 0.666992 -6 2 -6z" />
    <glyph glyph-name="V" unicode="V" horiz-adv-x="470" 
d="M258 145c14 18.667 27.332 39.999 39.999 63.999l139 253c25.333 44.667 38 84.334 38 119.001c0 2 -0.333008 5.33301 -1 10s-1 8.33398 -1 11.001c0 14 10 21 30 21h11c14 0 23.667 -0.666992 29 -2s9.33301 -4.16602 12 -8.49902s5.33398 -7.5 8.00098 -9.5
c16.667 -11.333 25 -23.333 25 -36c0 -14 -4.66699 -36 -14 -66s-19.666 -54 -30.999 -72c-13.333 -20.667 -26.833 -43.334 -40.5 -68.001l-47 -87l-38.5 -73l-24 -41.5c-10.667 -18.333 -25.5 -42.333 -44.5 -72s-37.833 -54.834 -56.5 -75.501s-33.334 -31 -44.001 -31
c-4.66699 0 -9.83398 1 -15.501 3s-9.16699 3 -10.5 3c-2 0 -4.66699 -1 -8 -3s-7.66602 -3 -12.999 -3c-15.333 0 -31.833 6.33301 -49.5 19s-26.5 24.334 -26.5 35.001c0 4.66699 -2.16699 11.167 -6.5 19.5s-6.5 14.5 -6.5 18.5c0 1.33301 0.333008 3.83301 1 7.5l2 11.5
c0.666992 5.33301 1.5 10.5 2.5 15.5s1.5 8.83301 1.5 11.5c4 42.667 13.667 114.334 29 215.001s24.333 176 27 226c0 5.33301 1.16699 13.833 3.5 25.5s3.5 21.167 3.5 28.5c0 19.333 10 29 30 29c10 0 18 -0.333008 24 -1c1.33301 0 4.83301 -0.333008 10.5 -1
s9.66699 -1.16699 12 -1.5s5.83301 -1.33301 10.5 -3s8.5 -3.83398 11.5 -6.50098s5.5 -6.33398 7.5 -11.001c4 -8 6.33301 -17.667 7 -29c0 -9.33301 -0.333008 -16.333 -1 -21c-4.66699 -33.333 -14.5 -94.833 -29.5 -184.5s-25.5 -158.5 -31.5 -206.5
c-4 -32 -6 -50.667 -6 -56c0 -4.66699 1 -7 3 -7c4 0 13.333 10 28 30z" />
    <glyph glyph-name="W" unicode="W" horiz-adv-x="684" 
d="M205 130c2 0 8.66992 6.66797 20.0029 20.001c62.667 75.333 106.667 141.333 132 198c7.33301 17.333 11.666 28.333 12.999 33c8.66699 42 16.334 65.333 23.001 70c3.33301 2.66699 7.33301 4 12 4c2.66699 0 6 -0.333008 10 -1s8 -1.66699 12 -3s6.33301 -2 7 -2
c14 -2 25.333 -8 34 -18c12 -14 18 -28.667 18 -44c0 -6.66699 -1 -13 -3 -19c-18 -58 -27 -117.333 -27 -178c0 -22 1 -44 3 -66s4.33301 -33 7 -33c3.33301 0 9 6 17 18c53.333 81.333 99.666 200 138.999 356c5.33301 21.333 8 45 8 71
c0 23.333 -3.66699 43.166 -11 59.499s-11 30.833 -11 43.5c0 19.333 7.66699 29 23 29c2.66699 0 7.5 -0.5 14.5 -1.5s12.167 -1.5 15.5 -1.5c30.667 0 50.667 -10.667 60 -32c9.33301 -20 14 -48.667 14 -86c0 -42 -6.66699 -94.333 -20 -157
c-32 -147.333 -87 -276.333 -165 -387c-16.667 -23.333 -34.667 -35 -54 -35c-9.33301 0 -16.5 1.16699 -21.5 3.5s-9.16699 3.5 -12.5 3.5c-16.667 1.33301 -31.667 7.33301 -45 18c-1.33301 1.33301 -5 3 -11 5s-11.667 4.83301 -17 8.5s-9.33301 7.83398 -12 12.501
c-10 19.333 -18 54.333 -24 105c-1.33301 11.333 -3 17 -5 17c-0.666992 0 -1.33398 -0.333008 -2.00098 -1l-3 -3c-1.33301 -1.33301 -2.66602 -2.83301 -3.99902 -4.5l-5 -6c-2 -2.33301 -4 -4.5 -6 -6.5c-14.667 -14.667 -31.834 -34.5 -51.501 -59.5
s-37.167 -43.5 -52.5 -55.5c-12.667 -10 -25 -15 -37 -15s-29.667 9.33301 -53 28c-1.33301 1.33301 -4.83301 2.66602 -10.5 3.99902s-11 3.5 -16 6.5s-8.16699 6.83301 -9.5 11.5c-2.66699 10 -4 20.667 -4 32c0 8.66699 0.666992 18.334 2 29.001s3 21.667 5 33
s3.33301 19.666 4 24.999c3.33301 27.333 6 45.333 8 54c8 34.667 18.333 75 31 121l45 157c17.333 58.667 30 102.667 38 132c4 14.667 15.333 22 34 22c6 0 14.667 -1.33301 26 -4c13.333 -3.33301 22.666 -7 27.999 -11s11.333 -10.667 18 -20
c2.66699 -3.33301 4 -6.33301 4 -9c0 -3.33301 -1.66699 -9 -5 -17c-40 -96 -75 -208 -105 -336c-16 -68.667 -24 -107 -24 -115c0 -2 0.666992 -3 2 -3z" />
    <glyph glyph-name="X" unicode="X" horiz-adv-x="482" 
d="M209 167c-61.333 -68 -97.3311 -126.335 -107.998 -175.002c-1.33301 -6 -7.33301 -11 -18 -15c-2.66699 -1.33301 -6.16699 -4 -10.5 -8s-8.83301 -6 -13.5 -6c-18.667 0 -36.834 5.33301 -54.501 16s-26.5 21 -26.5 31c0 10.667 1.83301 20.667 5.5 30
s9 19.833 16 31.5s11.833 20.167 14.5 25.5c2 4.66699 6.66699 12.667 14 24c15.333 24 33.333 47.167 54 69.5s44.334 46 71.001 71s46.667 44.833 60 59.5c8.66699 9.33301 13 16 13 20c0 0.666992 -0.5 4 -1.5 10l-4 23.5c-1.66699 9.66699 -3.16699 17.834 -4.5 24.501
c-13.333 84 -20 141 -20 171c0 17.333 2 29.666 6 36.999c2 3.33301 3 6.66602 3 9.99902c0 2 -0.5 5.33301 -1.5 10s-1.5 8 -1.5 10c0 16 15.333 24 46 24c26 0 42.333 -6 49 -18c1.33301 -2.66699 5.66602 -8.66699 12.999 -18s11 -16 11 -20
c0 -1.33301 -0.833008 -5.16602 -2.5 -11.499s-3.33398 -15 -5.00098 -26s-2.5 -23.167 -2.5 -36.5c0 -12.667 3 -44.667 9 -96c1.33301 -11.333 3 -17 5 -17c1.33301 0 10.333 7.33301 27 22l129 118c52 48.667 83.667 79.334 95 92.001c7.33301 8.66699 15.333 13 24 13
c4.66699 0 10 -0.833008 16 -2.5s13.167 -4.16699 21.5 -7.5s14.5 -5.66602 18.5 -6.99902c10.667 -3.33301 18.834 -8.83301 24.501 -16.5s8.5 -15.5 8.5 -23.5c0 -4.66699 -1 -8.33398 -3 -11.001c-10 -14 -31.833 -33.333 -65.5 -58s-55.5 -41.667 -65.5 -51
c-13.333 -12.667 -28 -25.667 -44 -39l-159 -137c-7.33301 -6.66699 -11 -12 -11 -16s2.33301 -17 7 -39c4.66699 -22.667 13.5 -58.667 26.5 -108s21.833 -84.666 26.5 -105.999c1.33301 -7.33301 6.33301 -17 15 -29s13 -21.333 13 -28c0 -6 -3.16699 -12 -9.5 -18
s-15.5 -9 -27.5 -9c-16.667 0 -38.334 5 -65.001 15c-9.33301 3.33301 -16.333 10 -21 20c-12.667 25.333 -21.5 48 -26.5 68s-10.5 50.333 -16.5 91c-6 39.333 -10 59 -12 59s-16 -14.333 -42 -43z" />
    <glyph glyph-name="Y" unicode="Y" horiz-adv-x="502" 
d="M326 190c-28 -18.667 -55.6621 -28.0029 -82.9951 -28.0029c-11.333 0 -20.666 1.66699 -27.999 5c-23.333 10.667 -44 24 -62 40c-28 24.667 -42 45 -42 61c0 16.667 2 51.667 6 105c0 2 0.666992 6.66699 2 14s2 14.333 2 21c0 8.66699 1.66699 17.834 5 27.501
s5 15.834 5 18.501c1.33301 15.333 7.33301 51 18 107s20.334 91.333 29.001 106c3.33301 6 10 9 20 9c7.33301 0 18.5 -1.5 33.5 -4.5s23.833 -4.5 26.5 -4.5c9.33301 -0.666992 16.166 -5.5 20.499 -14.5s6.5 -16.833 6.5 -23.5c0 -10 -3.33301 -22.667 -10 -38
s-10.667 -26.333 -12 -33c-22.667 -114.667 -36 -194 -40 -238c-3.33301 -36 -5 -57.333 -5 -64c0 -8 1.66699 -12 5 -12c5.33301 0 11.666 2.33301 18.999 7c55.333 34.667 97.666 69.667 126.999 105s59.333 82 90 140c21.333 40 32 60.333 32 61
c13.333 23.333 24.666 41 33.999 53c4.66699 5.33301 9.66699 8 15 8c32 0 56.667 -9.33301 74 -28c8.66699 -10 13 -20.667 13 -32c0 -4.66699 -2 -9.66699 -6 -15c-134 -186.667 -226.333 -470 -277 -850c-2.66699 -22 -5.33398 -34.667 -8.00098 -38
c-1.33301 -2 -4.66602 -3 -9.99902 -3c-1.33301 0 -12 1.66699 -32 5c-36.667 6 -56.667 17.667 -60 35c-2 10 -3 19.667 -3 29c0 12 1.16699 24.667 3.5 38s5.83301 28.833 10.5 46.5s7.66699 29.5 9 35.5c1.33301 6.66699 3.16602 16.834 5.49902 30.501
s4.16602 23.167 5.49902 28.5c11.333 60.667 33.666 148.667 66.999 264c5.33301 18.667 8 28.667 8 30s-0.666992 2 -2 2c-2 0 -6 -2 -12 -6z" />
    <glyph glyph-name="Z" unicode="Z" horiz-adv-x="560" 
d="M540 365c37.333 -5.33301 64.3389 -18.3359 81.0059 -39.0029c4 -4.66699 6 -11 6 -19c0 -18 -8 -27 -24 -27c-1.33301 0 -3.5 0.333008 -6.5 1s-8.33301 1.16699 -16 1.5s-17.5 0.5 -29.5 0.5c-22.667 0 -46.167 -2 -70.5 -6s-50.333 -9.16699 -78 -15.5
s-49.5 -10.833 -65.5 -13.5c-14.667 -12.667 -38.167 -30.167 -70.5 -52.5s-59.333 -43.166 -81 -62.499s-37.834 -39.666 -48.501 -60.999c-2.66699 -5.33301 -4 -10.666 -4 -15.999c0 -2.66699 3.83301 -5.83398 11.5 -9.50098s15.5 -5.5 23.5 -5.5
c6 0 15.167 -1.5 27.5 -4.5s21.833 -4.5 28.5 -4.5c18.667 0 39.667 2.5 63 7.5s43.166 10.167 59.499 15.5s37 12.5 62 21.5l51.5 18.5c10 3.33301 20 5 30 5c27.333 0 43.666 -5.33301 48.999 -16c1.33301 -2.66699 7.16602 -10.834 17.499 -24.501s15.5 -23.5 15.5 -29.5
c0 -8.66699 -5.66699 -13 -17 -13c-2.66699 0 -5.33398 0.5 -8.00098 1.5s-5 1.5 -7 1.5c-0.666992 0 -1.16699 -0.166992 -1.5 -0.5l-1.5 -1.5c-0.666992 -0.666992 -2.5 -2 -5.5 -4s-7.16699 -4 -12.5 -6c-90.667 -38 -176.334 -57 -257.001 -57
c-78.667 0 -148.334 19.333 -209.001 58c-6.66699 4 -16 15.167 -28 33.5s-18 32.166 -18 41.499c0 14 2 24.667 6 32c14 24.667 52 62.667 114 114c8.66699 6.66699 13 11 13 13c0 0.666992 -5.33301 3 -16 7c-13.333 4.66699 -22 9.66699 -26 15
c-6.66699 8.66699 -10 16.334 -10 23.001c0 2.66699 0.5 6.66699 1.5 12s1.5 9.33301 1.5 12c0 7.33301 2.83301 13.833 8.5 19.5s14.167 8.5 25.5 8.5c6.66699 0 20.667 -3 42 -9s33.666 -9 36.999 -9c8 0 20.833 1.33301 38.5 4s28.167 5 31.5 7
c136 84.667 223.667 156.334 263 215.001c3.33301 5.33301 5 9.66602 5 12.999c0 4 -11.333 7.66699 -34 11s-43.667 5 -63 5c-68.667 0 -111.667 -17.333 -129 -52c-3.33301 -6.66699 -12.666 -10 -27.999 -10c-32.667 0 -55 11.333 -67 34
c-8.66699 17.333 -13 32.333 -13 45c0 5.33301 2 9.33301 6 12c54 35.333 123 53 207 53c71.333 0 134.333 -15.667 189 -47c6.66699 -4 17.834 -13.667 33.501 -29s23.5 -27 23.5 -35c0 -18 -2.83301 -32.167 -8.5 -42.5s-19.167 -26.166 -40.5 -47.499
c-0.666992 -0.666992 -4.66699 -5 -12 -13s-16 -16.833 -26 -26.5s-23.333 -21.167 -40 -34.5c-10 -8 -15 -13 -15 -15c0 -1.33301 5 -2.66602 15 -3.99902z" />
    <glyph glyph-name="bracketleft" unicode="[" horiz-adv-x="326" 
d="M432 807c2 0 8.33105 0.165039 18.998 0.498047s18.334 0.5 23.001 0.5c58.667 0 90 -8.33301 94 -25c0.666992 -1.33301 2 -3.33301 4 -6s3 -7 3 -13c0 -5.33301 -2.33301 -12.666 -7 -21.999s-9.33398 -15.666 -14.001 -18.999c-6.66699 -4.66699 -18 -7 -34 -7
c-6 0 -14.833 0.333008 -26.5 1s-19.834 1 -24.501 1c-25.333 0 -41 -1.33301 -47 -4s-12.333 -11.667 -19 -27c-28.667 -67.333 -72.667 -193.333 -132 -378s-97.333 -301 -114 -349c-8.66699 -24.667 -13 -43 -13 -55c0 -4.66699 1.16699 -7.5 3.5 -8.5
s7.5 -1.5 15.5 -1.5s22.333 0.666992 43 2s35 2 43 2c30.667 0 46 -12.667 46 -38c0 -15.333 -3.66699 -27.666 -11 -36.999c-11.333 -14 -31.666 -21 -60.999 -21h-33c-37.333 0 -68.666 1 -93.999 3c-21.333 2 -39.166 13 -53.499 33s-21.5 35.667 -21.5 47
c0 16.667 7 46 21 88l218 657c15.333 46 27.5 80 36.5 102s20.667 39.167 35 51.5s27.333 19.166 39 20.499s32.167 2 61.5 2z" />
    <glyph glyph-name="backslash" unicode="\" horiz-adv-x="374" 
d="M265 680c9.33301 -8.66699 13.998 -20.999 13.998 -36.999c0 -7.33301 -1.33301 -17.833 -4 -31.5s-4 -22.834 -4 -27.501c0 -24 1.33301 -46.333 4 -67c5.33301 -40.667 16.5 -113.834 33.5 -219.501s29.5 -188.167 37.5 -247.5c4.66699 -36.667 7 -65.667 7 -87
c0 -12.667 -0.666992 -21 -2 -25s-4.66602 -6 -9.99902 -6c-1.33301 0 -6 -1.83301 -14 -5.5s-15.667 -5.5 -23 -5.5c-6 0 -13.333 1.66699 -22 5c-13.333 5.33301 -22.5 15.333 -27.5 30s-7.5 27.334 -7.5 38.001c0 16 -1.66699 36 -5 60l-75 508
c-2.66699 18 -4 41.333 -4 70c0 16.667 0.666992 27 2 31c2.66699 8 4.83398 13.833 6.50098 17.5s5.33398 7.16699 11.001 10.5s13.167 5 22.5 5c4 0 7.66699 -0.166992 11 -0.5s5.66602 -0.5 6.99902 -0.5c16 0 30 -5 42 -15z" />
    <glyph glyph-name="bracketright" unicode="]" horiz-adv-x="326" 
d="M304 704c0 7.33301 -9.99609 10.999 -29.9961 10.999c-8.66699 0 -21.834 -0.5 -39.501 -1.5s-29.834 -1.5 -36.501 -1.5c-29.333 0 -44 13 -44 39c0 24.667 10 41.334 30 50.001c8.66699 4 30.667 6 66 6c30 0 64 -1 102 -3c17.333 0 34.666 -10.667 51.999 -32
c15.333 -18.667 23 -38.334 23 -59.001c0 -10.667 -6.66699 -36 -20 -76l-219 -656c-20.667 -62 -37.334 -104.167 -50.001 -126.5s-26.334 -36.166 -41.001 -41.499c-18 -6.66699 -57 -10 -117 -10c-64.667 0 -98 8 -100 24c0 2 -1.16699 5 -3.5 9s-3.5 7.33301 -3.5 10
c0 6 2.33301 13.667 7 23s9.33398 15.666 14.001 18.999c5.33301 4.66699 16.666 7 33.999 7c6 0 15 -0.333008 27 -1s20.333 -1 25 -1c24.667 0 40.334 1.33301 47.001 4s13 11.334 19 26.001c30 68.667 76.167 200.167 138.5 394.5l107.5 333.5c8 23.333 12 41 12 53z" />
    <glyph glyph-name="asciicircum" unicode="^" horiz-adv-x="550" 
d="M439 587c-2 3.33301 -3.99805 5.00195 -5.99805 5.00195s-4.66699 -1 -8 -3c-90 -54 -141.333 -86.667 -154 -98c-4 -4.66699 -9.33301 -7 -16 -7c-16 0 -31 8.33301 -45 25c-6.66699 8.66699 -10 18 -10 28c0 6 0.666992 11.167 2 15.5s3 8.16602 5 11.499
s3 5.33301 3 6c2 5.33301 19 16 51 32l171 84c8 4 16.333 6 25 6c18 0 31.667 -7 41 -21c1.33301 -1.33301 3.66602 -3.83301 6.99902 -7.5s5.66602 -6.83398 6.99902 -9.50098l85 -186c6.66699 -13.333 10 -22.333 10 -27c0 -7.33301 -3.33301 -12.333 -10 -15l-11 -10
c-6.66699 -7.33301 -13.667 -11 -21 -11s-15.5 2.5 -24.5 7.5s-15.833 12.167 -20.5 21.5z" />
    <glyph glyph-name="underscore" unicode="_" horiz-adv-x="626" 
d="M-119 -96h700v-64h-700v64z" />
    <glyph glyph-name="grave" unicode="`" horiz-adv-x="510" 
d="M356 838c6 -5.33301 21.666 -17.001 46.999 -35.001l85 -59c19.333 -13.333 29 -23.333 29 -30c0 -2 -1 -6.66699 -3 -14s-3 -13 -3 -17c0 -4.66699 -2.5 -8.66699 -7.5 -12s-10.167 -5 -15.5 -5c-14 0 -28.333 4.66699 -43 14l-100 64
c-17.333 10.667 -34 19.334 -50 26.001c-6 2.66699 -10.667 6.16699 -14 10.5s-5.16602 8.33301 -5.49902 12s-0.5 9.5 -0.5 17.5c0 8.66699 4 18.5 12 29.5s18 16.5 30 16.5c4.66699 0 9 -1 13 -3l7 -3c2.66699 0 9 -4 19 -12z" />
    <glyph glyph-name="a" unicode="a" horiz-adv-x="468" 
d="M320 124c-1.33301 0 -5.00098 -3.00195 -11.001 -9.00195l-42 -40c-28.667 -27.333 -55.667 -47.333 -81 -60s-45.333 -19 -60 -19c-9.33301 0 -20.333 4 -33 12c-12 8 -28.333 20.333 -49 37c-17.333 14 -26 33.333 -26 58c0 35.333 18.167 82.833 54.5 142.5
s85.833 112.167 148.5 157.5c52.667 37.333 105.667 63.333 159 78c10 2.66699 19 4 27 4c26.667 0 51.334 -11.333 74.001 -34c7.33301 -7.33301 13 -15 17 -23c2.66699 -5.33301 8.33398 -9 17.001 -11c24 -6 36 -15 36 -27c0 -6 -1.33301 -10.667 -4 -14
c-62 -81.333 -100 -149.666 -114 -204.999c-8.66699 -34.667 -13 -62.667 -13 -84c0 -29.333 6.33301 -53.333 19 -72c2 -3.33301 3 -6.66602 3 -9.99902c0 -10.667 -9 -17 -27 -19c-2 0 -5.16699 -0.666992 -9.5 -2s-8.5 -2 -12.5 -2c-12 0 -23.667 2.66699 -35 8
s-19 12 -23 20c-10 20.667 -15 43.667 -15 69c0 8.66699 0.166992 16.167 0.5 22.5s0.666016 11 0.999023 14s0.5 4.83301 0.5 5.5c0 2 -0.666992 3 -2 3zM422.999 406.998c-5.33301 0 -12.001 -2.33301 -20.001 -7c-94 -48.667 -167 -104.667 -219 -168
c0 -0.666992 -2.33301 -4.16699 -7 -10.5l-14.5 -20c-5 -7 -10.667 -15.667 -17 -26s-12 -20 -17 -29s-9.16699 -18.167 -12.5 -27.5s-5 -17 -5 -23c0 -9.33301 2 -14 6 -14c9.33301 0 22.333 8 39 24c16 15.333 43.833 39.5 83.5 72.5s72.334 62.833 98.001 89.5
s45.834 54 60.501 82c7.33301 12.667 16.666 24.667 27.999 36c4 4 6 8 6 12c0 6 -3 9 -9 9z" />
    <glyph glyph-name="b" unicode="b" horiz-adv-x="386" 
d="M180 101c27.333 34.667 47.668 65.8301 61.001 93.4971s25.333 61.834 36 102.501c2.66699 10 4 21.667 4 35c0 10.667 -2.66699 22 -8 34s-8 23.333 -8 34c0 7.33301 4 17.833 12 31.5s16.333 20.5 25 20.5c6.66699 0 13.667 -2.66699 21 -8
c8.66699 -6.66699 17 -15.334 25 -26.001c13.333 -17.333 25.666 -26 36.999 -26c28 0 75.667 8.66699 143 26c18.667 4.66699 30.334 7 35.001 7c2.66699 0 5.66699 -0.333008 9 -1s5.66602 -1 6.99902 -1c8.66699 0 17.334 -4.16699 26.001 -12.5s13 -17.5 13 -27.5
s-4.66699 -16 -14 -18c-13.333 -2 -43 -11 -89 -27s-80.667 -24 -104 -24c-3.33301 0 -8.16602 0.333008 -14.499 1s-10.5 1 -12.5 1c-3.33301 0 -5 -1.33301 -5 -4c0 -1.33301 0.166992 -4.33301 0.5 -9s0.5 -8 0.5 -10c0 -3.33301 -0.333008 -6.66602 -1 -9.99902
s-1.66699 -7.16602 -3 -11.499s-2.33301 -9.16602 -3 -14.499c-2 -12.667 -5.33301 -24.834 -10 -36.501s-10.5 -24.5 -17.5 -38.5s-11.833 -24.333 -14.5 -31c-4 -10 -10.333 -22.167 -19 -36.5s-20.167 -30.666 -34.5 -48.999s-31.5 -33.833 -51.5 -46.5
s-40.333 -19 -61 -19c-13.333 0 -25 2 -35 6c-39.333 14.667 -62.333 34 -69 58c-4.66699 16.667 -7 34.667 -7 54c0 46 17.333 109.667 52 191c10 24.667 21.333 49.834 34 75.501l33 66.5c9.33301 18.667 22.166 42.667 38.499 72l36.5 65l42.5 73l40.5 70
c17.333 29.333 39 44 65 44c13.333 0 26.666 -2.33301 39.999 -7c8 -3.33301 14.167 -7 18.5 -11s6.83301 -7.5 7.5 -10.5s1.33398 -7.5 2.00098 -13.5c0 -12.667 -8 -26.5 -24 -41.5s-26 -25.833 -30 -32.5l-52.5 -80.5l-60 -93.5
c-16.333 -26.667 -28.833 -50.334 -37.5 -71.001c-6.66699 -16 -17.667 -40 -33 -72s-27.333 -57.833 -36 -77.5s-16.834 -44 -24.501 -73s-11.5 -56.5 -11.5 -82.5c0 -16 1.66699 -24 5 -24c5.33301 0 12 5.33301 20 16z" />
    <glyph glyph-name="c" unicode="c" horiz-adv-x="346" 
d="M295 360c8.66699 16 13.002 24.667 13.002 26c0 2 -1.33301 3 -4 3c-0.666992 0 -7.83398 -8.16699 -21.501 -24.5s-30 -37.833 -49 -64.5s-34.5 -50.334 -46.5 -71.001c-10 -18 -22 -42.833 -36 -74.5s-21 -55.834 -21 -72.501c0 -4.66699 0.5 -7.66699 1.5 -9
s3.83301 -2 8.5 -2c26.667 0 67 20 121 60c59.333 44.667 101.333 67 126 67c14.667 0 28.334 -6.66699 41.001 -20c6 -6.66699 9 -12.667 9 -18c0 -1.33301 -0.5 -3 -1.5 -5s-1.5 -3.33301 -1.5 -4c0 -6 -3.66699 -10.333 -11 -13c-18 -6 -53.667 -30.667 -107 -74
c-60.667 -49.333 -111.334 -74 -152.001 -74c-28 0 -53.5 7.16699 -76.5 21.5s-36.833 25.833 -41.5 34.5c-7.33301 14.667 -11 30.334 -11 47.001c0 20 5.66699 45 17 75c0.666992 1.33301 2 6.66602 4 15.999s4.33301 17 7 23c8 17.333 19.667 39.833 35 67.5
s37.166 61.167 65.499 100.5s54.5 67.333 78.5 84c16 11.333 32.333 17 49 17c22 0 47.167 -6.33301 75.5 -19s44.166 -25 47.499 -37c2 -7.33301 3 -13.666 3 -18.999c0 -4.66699 -5.66699 -20.667 -17 -48s-17 -45.666 -17 -54.999c0 -6 -2.5 -11 -7.5 -15
s-11.167 -6 -18.5 -6c-13.333 0 -25.666 4.33301 -36.999 13l-23 18c-7.33301 6.66699 -11 14 -11 22c0 9.33301 3 19.333 9 30z" />
    <glyph glyph-name="d" unicode="d" horiz-adv-x="496" 
d="M407 423c37.333 40 78.9971 99.6621 124.997 178.995s79.667 134 101 164c6.66699 9.33301 16.667 14 30 14c14.667 0 29 -4.83301 43 -14.5s21 -19.5 21 -29.5c0 -20 -6.33301 -38.667 -19 -56c-3.33301 -4 -7.16602 -10.667 -11.499 -20
s-8.16602 -16.666 -11.499 -21.999l-56.5 -87c-31 -47.333 -54.667 -85.166 -71 -113.499s-28.5 -54.166 -36.5 -77.499l-15 -43c-49.333 -140.667 -74 -231 -74 -271c0 -14 1.33301 -26.667 4 -38l4 -16c0 -7.33301 -6.33301 -16 -19 -26
c-6.66699 -5.33301 -14.334 -8 -23.001 -8c-12 0 -24.5 3.33301 -37.5 10s-20.167 12.667 -21.5 18c-3.33301 16 -5 35 -5 57c0 41.333 9 88.333 27 141c5.33301 16 8 25 8 27c0 1.33301 -0.666992 2 -2 2s-8.33301 -7.66699 -21 -23
c-67.333 -85.333 -132.666 -146.333 -195.999 -183c-9.33301 -5.33301 -21.333 -8 -36 -8c-12.667 0 -29.334 4.66699 -50.001 14s-33 17 -37 23c-10.667 18 -16 38 -16 60c0 26.667 11.333 61.334 34 104.001c6 11.333 15 25.833 27 43.5s28 38.5 48 62.5
s41 46.167 63 66.5s46.5 37.5 73.5 51.5s52.5 21 76.5 21c18.667 0 32.334 -2.33301 41.001 -7c6.66699 -3.33301 12.834 -6.16602 18.501 -8.49902s10.5 -4.5 14.5 -6.5zM362.997 366.995c0 3.33301 -2.00098 4.99902 -6.00098 4.99902
c-3.33301 0 -9.33301 -1.66699 -18 -5c-45.333 -24 -87 -56.833 -125 -98.5s-69.333 -89.167 -94 -142.5c-5.33301 -11.333 -8 -20 -8 -26c0 -3.33301 1 -5 3 -5c3.33301 0 7 1.66699 11 5c62.667 50 135.334 129 218.001 237c2 2.66699 4.66699 5.83398 8 9.50098s6 7 8 10
s3 6.5 3 10.5z" />
    <glyph glyph-name="e" unicode="e" horiz-adv-x="366" 
d="M411 98c-33.333 -30.667 -82.6689 -64.666 -148.002 -101.999c-12.667 -7.33301 -27.334 -11 -44.001 -11c-25.333 0 -61.666 12.333 -108.999 37c-23.333 12 -41.333 36.333 -54 73c-8.66699 24.667 -13 48 -13 70c0 13.333 2 27 6 41
c23.333 82 79.666 170.667 168.999 266c30 31.333 68 47 114 47c22.667 0 45 -4 67 -12c26.667 -9.33301 40 -31.666 40 -66.999c0 -18.667 -5.5 -39.834 -16.5 -63.501s-23.167 -43.5 -36.5 -59.5c-76 -93.333 -150 -161.666 -222 -204.999
c-7.33301 -4.66699 -11 -8.66699 -11 -12s2 -8.5 6 -15.5s8 -11.5 12 -13.5c6.66699 -3.33301 13 -5 19 -5c5.33301 0 11.333 0.833008 18 2.5s13.334 4.16699 20.001 7.5l16.5 8.5c4.33301 2.33301 9.33301 5.33301 15 9s8.83398 5.5 9.50098 5.5
c22 12.667 49.5 33.334 82.5 62.001s57.5 47.667 73.5 57c8.66699 5.33301 17.334 8 26.001 8c10 0 18.667 -3 26 -9s11 -12.667 11 -20c0 -14.667 -2.33301 -24.334 -7 -29.001c-8 -6.66699 -19.333 -17.834 -34 -33.501s-26.667 -27.834 -36 -36.501zM330.997 429.001
c0 4 -1.66797 5.99902 -5.00098 5.99902c-7.33301 0 -21.333 -10.333 -42 -31c-50 -50 -87 -100 -111 -150c-7.33301 -15.333 -11 -24.666 -11 -27.999c0 -2 1 -3 3 -3c2.66699 0 8.33398 4 17.001 12c46 42 83.333 82.333 112 121c5.33301 7.33301 9.5 14.333 12.5 21
s6.16699 12.667 9.5 18c10 16 15 27.333 15 34z" />
    <glyph glyph-name="f" unicode="f" horiz-adv-x="268" 
d="M436 418c14.667 0 26.502 -2.99609 35.502 -8.99609s13.5 -12.667 13.5 -20c0 -11.333 -12.667 -22 -38 -32c-8.66699 -3.33301 -22.167 -9.33301 -40.5 -18s-34.666 -15.834 -48.999 -21.501s-27.833 -9.5 -40.5 -11.5
c-4.66699 -0.666992 -11.667 -3.33398 -21 -8.00098c-2.66699 -1.33301 -10.167 -4 -22.5 -8s-22.833 -8.33301 -31.5 -13s-14 -10 -16 -16l-25.5 -73.5c-14.333 -41 -23.833 -69.667 -28.5 -86l-21.5 -73.5c-9.66699 -32.667 -16.834 -62.667 -21.501 -90s-8 -55 -10 -83
c-1.33301 -14 -11.666 -24.667 -30.999 -32c-20.667 -7.33301 -34 -11 -40 -11c-10 0 -19.667 4 -29 12c-10.667 8 -16 23 -16 45c0 18 5.16699 42.333 15.5 73s17.5 56 21.5 76c3.33301 18.667 17.666 65.667 42.999 141c22.667 68 34 107 34 117
c0 5.33301 -7 15.166 -21 29.499s-22.333 25.833 -25 34.5c-3.33301 11.333 -5 19.666 -5 24.999c0 16 7.66699 24 23 24c4.66699 0 10.667 -1 18 -3c20 -7.33301 32.667 -11 38 -11c6 0 10 3.33301 12 10c66 158 118.667 268.667 158 332c4 6.66699 11.667 12.5 23 17.5
s23.333 7.5 36 7.5c15.333 0 28.833 -4.83301 40.5 -14.5s17.5 -20.5 17.5 -32.5c0 -8 -4.66699 -17.667 -14 -29s-14.333 -20.333 -15 -27s-2.33398 -13 -5.00098 -19c-7.33301 -16 -25.333 -42.167 -54 -78.5s-46 -65.833 -52 -88.5
c-2.66699 -10 -6.33398 -20.333 -11.001 -31c-1.33301 -4 -3.83301 -9.66699 -7.5 -17l-9 -18.5c-2.33301 -5 -3.5 -8.16699 -3.5 -9.5c0 -2.66699 1 -4 3 -4c13.333 0 39 8 77 24c34 14 65.667 21 95 21z" />
    <glyph glyph-name="g" unicode="g" horiz-adv-x="422" 
d="M205 87c-10.667 -10.667 -24.5029 -20.498 -41.5029 -29.498s-33.5 -13.5 -49.5 -13.5c-13.333 0 -24.666 2.33301 -33.999 7c-13.333 6.66699 -28 16.667 -44 30s-25 23.666 -27 30.999c-2 8 -3 15.333 -3 22c0 29.333 12.667 65 38 107c20.667 33.333 50 71 88 113
c55.333 59.333 106.333 98 153 116c19.333 7.33301 37 11 53 11c20.667 0 41.5 -5.33301 62.5 -16s35.5 -21.667 43.5 -33c6.66699 -9.33301 10 -23.333 10 -42c0 -16.667 -2 -28.334 -6 -35.001c-40 -70 -75.333 -136 -106 -198c-6 -12 -9 -19 -9 -21
c0 -1.33301 0.333008 -2 1 -2c2 0 8.66699 4.66699 20 14c36 29.333 74.333 56 115 80c12.667 7.33301 23 11 31 11c14.667 0 26.334 -3.66699 35.001 -11s13 -15 13 -23c0 -8.66699 -3 -15.667 -9 -21c-96 -70.667 -168.333 -131 -217 -181s-85 -103 -109 -159l-32.5 -76.5
l-32.5 -76.5c-8 -19.333 -13.667 -32 -17 -38c-10 -18.667 -20.667 -31 -32 -37s-28.666 -9 -51.999 -9c-13.333 0 -26.5 3.66699 -39.5 11s-21.167 16.333 -24.5 27c-1.33301 4 -2 9.66699 -2 17c0 14 3.66699 30 11 48s14.833 32.667 22.5 44l32.5 47l87 123
c17.333 24 44 74 80 150c6 12.667 9 21 9 25c0 1.33301 -0.333008 2 -1 2c-2 0 -7.66699 -4.66699 -17 -14zM115.997 141.002c2.66699 0 8.66699 3.33301 18 10c72.667 50 145.667 127 219 231c6 8.66699 9 14 9 16c0 6 -3.66699 9 -11 9c-6 0 -18.333 -6.66699 -37 -20
c-4 -2.66699 -10.333 -6.5 -19 -11.5s-16 -10.5 -22 -16.5c-29.333 -27.333 -59.5 -60.333 -90.5 -99s-52.167 -72 -63.5 -100c-3.33301 -8 -5 -13.333 -5 -16c0 -2 0.666992 -3 2 -3z" />
    <glyph glyph-name="h" unicode="h" horiz-adv-x="418" 
d="M287 229c-10 -13.333 -32.501 -45.668 -67.501 -97.001s-60.833 -87 -77.5 -107c-14.667 -17.333 -33.667 -26 -57 -26c-5.33301 0 -11 1 -17 3c-37.333 12.667 -56 28 -56 46c0 3.33301 1.5 7.83301 4.5 13.5s4.83301 9.83398 5.5 12.501
c6.66699 30.667 16.667 64.167 30 100.5s25.333 66.333 36 90s27.167 58.5 49.5 104.5l47.5 99c18 39.333 30.667 65.333 38 78c58.667 103.333 101.667 182.333 129 237c5.33301 11.333 16.333 17 33 17c6.66699 0 13.667 -0.666992 21 -2c20 -3.33301 34.667 -10 44 -20
c7.33301 -8.66699 11 -17.667 11 -27c0 -15.333 -10 -34.666 -30 -57.999c-10 -11.333 -22.333 -27 -37 -47c-20 -27.333 -42.333 -63.833 -67 -109.5s-45.167 -85.5 -61.5 -119.5l-77.5 -164c-6 -12.667 -9 -20.667 -9 -24c0 -1.33301 0.333008 -2 1 -2
c3.33301 0 7.33301 3.33301 12 10c61.333 86 115.333 152.333 162 199c16 16 25.667 24.333 29 25c13.333 4 23 6 29 6c16 0 31.333 -3 46 -9c14.667 -5.33301 22 -16 22 -32c0 -15.333 -9.66699 -40 -29 -74c-4 -7.33301 -12.667 -27 -26 -59
c-33.333 -82 -50 -152 -50 -210c0 -38 8.66699 -58 26 -60c19.333 -2.66699 29 -8.33398 29 -17.001c0 -4 -1.66699 -9.33301 -5 -16c-2.66699 -5.33301 -10.5 -11 -23.5 -17s-24.833 -9 -35.5 -9c-13.333 0 -26.666 2.66699 -39.999 8c-37.333 15.333 -56 49 -56 101
c0 49.333 10.333 101.333 31 156c2.66699 7.33301 4 12 4 14s-0.666992 3 -2 3c-2.66699 0 -8 -5.66699 -16 -17z" />
    <glyph glyph-name="i" unicode="i" horiz-adv-x="220" 
d="M207 109c1.33301 0.666992 3.83301 2.33398 7.5 5.00098s6.83398 4.83398 9.50098 6.50098s6 3.5 10 5.5s8.16699 3.5 12.5 4.5s8.83301 1.5 13.5 1.5c31.333 0 47 -9.66699 47 -29c0 -10.667 -5.33301 -21 -16 -31l-41 -38c-36 -32 -69.667 -48 -101 -48
c-26 0 -48.333 10.667 -67 32c-24.667 28 -37 60 -37 96c0 23.333 5.33301 50.333 16 81c2 5.33301 4.83301 13.5 8.5 24.5s6.5 19.167 8.5 24.5c53.333 123.333 85 195.666 95 216.999c9.33301 20 28.333 30 57 30c19.333 0 34.666 -4 45.999 -12
c7.33301 -4.66699 11 -13 11 -25s-4.5 -26.167 -13.5 -42.5s-19.167 -32.333 -30.5 -48s-18 -25.834 -20 -30.501l-58 -139c-15.333 -38.667 -23 -71 -23 -97c0 -13.333 2.66699 -20 8 -20c8 0 27 10.667 57 32zM317 704c26 0 45.332 -6.33301 57.999 -19
c8.66699 -8.66699 13 -20.334 13 -35.001c0 -10 -2 -17 -6 -21c-0.666992 -0.666992 -4.16699 -4.66699 -10.5 -12s-12 -13.166 -17 -17.499s-11.5 -8.83301 -19.5 -13.5s-15.667 -7 -23 -7c-14 0 -26 3 -36 9s-16.667 12 -20 18c-5.33301 10 -8 22 -8 36
c0 18 4.33301 32.333 13 43c10.667 12.667 29.334 19 56.001 19z" />
    <glyph glyph-name="j" unicode="j" horiz-adv-x="238" 
d="M206 233c22.667 20.667 42.334 36.333 59.001 47c15.333 8.66699 27.333 13 36 13c24 0 36 -7.33301 36 -22c0 -15.333 -4.33301 -27 -13 -35c-1.33301 -1.33301 -12.333 -11 -33 -29c-54 -46.667 -114 -116.667 -180 -210c-12.667 -17.333 -23.334 -36 -32.001 -56
l-54 -144.5l-57 -151.5c-10.667 -26 -26.667 -39 -48 -39c-2 0 -14 3 -36 9c-24 6.66699 -36 23.667 -36 51c0 8 1.66699 17 5 27c14 36 42 94.833 84 176.5s69.667 145.834 83 192.501c1.33301 5.33301 9 26.666 23 63.999l35.5 94l42 111.5
c12.333 33.667 23.166 65.834 32.499 96.501c2 6.66699 8.33301 14.667 19 24c8 6.66699 22.667 10 44 10c20.667 0 34.334 -3.66699 41.001 -11c8.66699 -10 13 -18.667 13 -26c0 -2.66699 -3 -10 -9 -22c-17.333 -36 -40.333 -87.667 -69 -155
c-5.33301 -12.667 -8 -21.334 -8 -26.001c0 -2 0.666992 -3 2 -3c3.33301 0 10 4.66699 20 14zM381 639.999c0 -13.333 -4.83398 -24.498 -14.501 -33.498s-15.167 -15.5 -16.5 -19.5c-5.33301 -16.667 -17 -25 -35 -25c-13.333 0 -27.333 3.66699 -42 11
s-25 16.666 -31 27.999s-9 26 -9 44c0 5.33301 2.33301 10.666 7 15.999c16.667 19.333 37.334 29 62.001 29c20 0 39.667 -8 59 -24c13.333 -11.333 20 -20 20 -26z" />
    <glyph glyph-name="k" unicode="k" horiz-adv-x="376" 
d="M263 373c32 24 56.835 44.1738 74.502 60.5068s33.5 35.5 47.5 57.5c14.667 23.333 33 35 55 35c10.667 0 24.334 -4.66699 41.001 -14c15.333 -8.66699 23 -16.334 23 -23.001c0 -8 -5.33301 -19.833 -16 -35.5s-20.334 -26.834 -29.001 -33.501
c-6 -4.66699 -11.333 -10 -16 -16s-8.66699 -10.333 -12 -13c-54 -44 -106.333 -81.333 -157 -112c-4 -2.66699 -6 -6.33398 -6 -11.001c0 -2 0.833008 -5 2.5 -9s2.5 -6.33301 2.5 -7c0.666992 -2.66699 1.66699 -6.16699 3 -10.5s3.33301 -10.333 6 -18
s5 -14.834 7 -21.501c2.66699 -9.33301 11.667 -29.5 27 -60.5s25 -49.5 29 -55.5c18.667 -24 38.334 -41.333 59.001 -52c8 -4 14.667 -6 20 -6c13.333 0 20 -6.33301 20 -19c0 -8.66699 -3.33301 -15.334 -10 -20.001l-15 -13c-6.66699 -6.66699 -17.334 -10 -32.001 -10
c-34.667 0 -68 16 -100 48c-1.33301 1.33301 -3.66602 3.16602 -6.99902 5.49902s-6.33301 5 -9 8s-5.33398 6.83301 -8.00098 11.5c-30 54 -54.333 108 -73 162c-4 11.333 -7 17 -9 17c-2.66699 0 -6.33398 -6.66699 -11.001 -20
c-14.667 -41.333 -25.667 -78.666 -33 -111.999c-0.666992 -2 -2 -9.16699 -4 -21.5s-4.33301 -22.5 -7 -30.5c-7.33301 -22.667 -18.666 -34 -33.999 -34c-3.33301 0 -8 -0.5 -14 -1.5s-10.667 -1.5 -14 -1.5c-12.667 0 -23.334 3.66699 -32.001 11
c-10.667 7.33301 -16 17.666 -16 30.999c0 8.66699 3.33301 23.334 10 44.001c20 60.667 42.667 122.5 68 185.5s57.833 139.667 97.5 230l79.5 183.5c3.33301 7.33301 6.16602 14.5 8.49902 21.5s3.83301 11.167 4.5 12.5c2.66699 6 5.33398 9.83301 8.00098 11.5
s7.66699 2.5 15 2.5c6.66699 0 18 -1 34 -3c34 -4.66699 51 -18.334 51 -41.001c0 -16.667 -7.33301 -35.334 -22 -56.001c-14.667 -20 -25.667 -36.333 -33 -49c-10.667 -18 -21.167 -38 -31.5 -60s-21.333 -47 -33 -75s-20.834 -49.333 -27.501 -64
c-5.33301 -11.333 -8 -18.333 -8 -21c0 -1.33301 0.666992 -2 2 -2c3.33301 0 11.333 4.66699 24 14z" />
    <glyph glyph-name="l" unicode="l" horiz-adv-x="232" 
d="M142 61c2.66699 0 5.33496 1 8.00195 3c14 9.33301 30.167 23.833 48.5 43.5s34.833 35.667 49.5 48s29.667 18.5 45 18.5c10 0 20.833 -2.83301 32.5 -8.5s17.5 -13.5 17.5 -23.5c0 -3.33301 -0.666992 -6.5 -2 -9.5s-2.5 -5.16699 -3.5 -6.5
s-3.33301 -3.66602 -7 -6.99902s-5.83398 -5.33301 -6.50098 -6c-1.33301 -2 -9.33301 -11.833 -24 -29.5s-28 -33 -40 -46s-27.833 -25.5 -47.5 -37.5s-38.167 -18 -55.5 -18c-4 0 -10 0.666992 -18 2c-34.667 7.33301 -62.334 22 -83.001 44c-16 16.667 -24 39 -24 67
c0 8.66699 0.666992 18 2 28s2.5 17.833 3.5 23.5s3.66699 14.834 8 27.501s7 20.167 8 22.5s4.5 11.5 10.5 27.5l9 23c38.667 97.333 107 229 205 395c0.666992 1.33301 4.16699 10.666 10.5 27.999s14 31.5 23 42.5s20.5 16.5 34.5 16.5c4.66699 0 10.667 0.166992 18 0.5
s12.666 0.5 15.999 0.5c22.667 0 36.667 -5.66699 42 -17c6 -13.333 9 -23.666 9 -30.999c0 -12.667 -3.66699 -24.667 -11 -36l-67.5 -103.5l-71 -109c-17.667 -27.667 -37.167 -61.334 -58.5 -101.001s-39 -77.5 -53 -113.5c-2 -5.33301 -6.16699 -15.333 -12.5 -30
s-10.666 -25.5 -12.999 -32.5s-4.83301 -17.333 -7.5 -31s-4 -27.834 -4 -42.501s3 -22 9 -22z" />
    <glyph glyph-name="m" unicode="m" horiz-adv-x="684" 
d="M141 96c45.333 27.333 86.502 63.8301 123.502 109.497s65.833 93.834 86.5 144.501c4 10.667 11 19.667 21 27c14 10.667 29.667 16 47 16c22.667 0 42.667 -8.66699 60 -26c4 -4 6 -8.33301 6 -13c0 -2.66699 -1.33301 -7.33398 -4 -14.001
c-6.66699 -17.333 -20.667 -40.666 -42 -69.999s-35.333 -50.666 -42 -63.999c-28.667 -55.333 -43 -94.333 -43 -117c0 -5.33301 1 -8 3 -8s5.66699 1.66699 11 5c10.667 6 20 13.667 28 23c15.333 18 38.666 41.5 69.999 70.5s57.833 56.167 79.5 81.5
s37.5 51.666 47.5 78.999c9.33301 27.333 28 41 56 41c6.66699 0 12.334 -0.666992 17.001 -2c2.66699 -0.666992 6.16699 -2 10.5 -4s7.83301 -3.33301 10.5 -4c12.667 -1.33301 21.5 -3.66602 26.5 -6.99902s9.83301 -9.33301 14.5 -18c3.33301 -6.66699 5 -12 5 -16
c0 -7.33301 -5.5 -15.5 -16.5 -24.5s-17.5 -15.5 -19.5 -19.5c-45.333 -74.667 -68 -134 -68 -178c0 -33.333 9.66699 -64.333 29 -93c3.33301 -5.33301 6.66602 -9 9.99902 -11c10 -6.66699 15 -13.667 15 -21c0 -14.667 -11 -22 -33 -22c-2.66699 0 -17 2.66699 -43 8
c-21.333 4 -40.333 25 -57 63c-8 17.333 -13.333 34.666 -16 51.999c-2 14 -4.33301 21 -7 21c-2 0 -8.33301 -5.66699 -19 -17c-15.333 -16 -28.333 -28.833 -39 -38.5s-26.5 -20.167 -47.5 -31.5s-41.833 -17 -62.5 -17c-19.333 0 -38.666 4.66699 -57.999 14
c-26 12.667 -41.667 25.334 -47 38.001c-2 4.66699 -3.66699 7 -5 7c-2.66699 0 -6.33398 -2.33301 -11.001 -7l-35 -26c-30.667 -20.667 -52.667 -31 -66 -31c-22.667 0 -45 4.83301 -67 14.5s-35 21.5 -39 35.5c-4 14.667 -6 31 -6 49c0 26.667 5.16699 53 15.5 79
s24.833 55.167 43.5 87.5s32 57.5 40 75.5c6.66699 15.333 15.5 32.333 26.5 51s19.167 36 24.5 52c4 11.333 12.833 19.833 26.5 25.5s28.5 8.5 44.5 8.5c29.333 0 45.666 -7.33301 48.999 -22c0 -23.333 -3.66699 -40 -11 -50c-35.333 -49.333 -64 -93.666 -86 -132.999
s-43.667 -87 -65 -143c-7.33301 -19.333 -11 -31 -11 -35c0 -2 1 -3 3 -3s7.33301 2.66699 16 8z" />
    <glyph glyph-name="n" unicode="n" horiz-adv-x="420" 
d="M134 115c41.333 59.333 84.6689 112.662 130.002 159.995c31.333 32.667 51.5 54.167 60.5 64.5s15.5 19.833 19.5 28.5c8 18.667 14.333 31 19 37s12 9 22 9c8 0 15.833 -1.5 23.5 -4.5s12.5 -4.5 14.5 -4.5c12 -1.33301 20.833 -6 26.5 -14s8.5 -15.667 8.5 -23
c0 -5.33301 -3.33301 -14 -10 -26c-32 -52.667 -54.667 -101 -68 -145c-8 -25.333 -12 -54.666 -12 -87.999c0 -8.66699 2.33301 -22 7 -40c2 -8 12.333 -18.333 31 -31c12 -8 18 -18.333 18 -31c0 -6.66699 -2.83301 -12.5 -8.5 -17.5s-13.834 -7.5 -24.501 -7.5
c-32 0 -54 6 -66 18c-4 4 -11 9.83301 -21 17.5s-16.667 13.834 -20 18.501c-11.333 16.667 -17 39.334 -17 68.001c0 2.66699 0.166992 7.33398 0.5 14.001s0.5 10.667 0.5 12c0 2.66699 -0.666992 4 -2 4c-2 0 -6.66699 -5.33301 -14 -16l-52 -72
c-6.66699 -9.33301 -14.167 -17.333 -22.5 -24s-14.166 -11.667 -17.499 -15c-8 -9.33301 -20.333 -14 -37 -14c-12 0 -22.667 2.66699 -32 8c-30 16 -50.333 31 -61 45c-6 7.33301 -9 17 -9 29c0 8 1.66699 19.167 5 33.5s5.33301 23.833 6 28.5
c1.33301 14 17.666 58.333 48.999 133c28.667 68.667 60.667 129.334 96 182.001l6 10c4 6 7.33301 10.333 10 13c8.66699 7.33301 23.667 11 45 11c26.667 0 43.667 -7.66699 51 -23c3.33301 -6.66699 5 -14.334 5 -23.001c0 -12 -8.66699 -28 -26 -48
c-24.667 -26.667 -47.334 -59.667 -68.001 -99c-16.667 -30.667 -38.667 -81.667 -66 -153c-8 -21.333 -12 -32.666 -12 -33.999s0.333008 -2 1 -2c2 0 5.66699 3.66699 11 11z" />
    <glyph glyph-name="o" unicode="o" horiz-adv-x="368" 
d="M354 455c7.33301 -20 13.6641 -32.667 18.9971 -38s13.666 -8 24.999 -8c3.33301 0 13 0.5 29 1.5s31 1.5 45 1.5c22.667 0 41.334 -3.66699 56.001 -11s22 -15.333 22 -24c0 -7.33301 -6 -13.333 -18 -18c-4 -1.33301 -8.16699 -3.5 -12.5 -6.5
s-9.16602 -5.16699 -14.499 -6.5c-8 -1.33301 -19.833 -4.16602 -35.5 -8.49902s-28.167 -7.16602 -37.5 -8.49902s-21.666 -2 -36.999 -2c-4 0 -7 -3.66699 -9 -11c-28 -113.333 -68.667 -199.333 -122 -258l-27.5 -28.5c-6.33301 -6.33301 -16.333 -13.333 -30 -21
s-27.167 -11.5 -40.5 -11.5c-11.333 0 -22.333 2.66699 -33 8c-44.667 22 -71.334 44.333 -80.001 67c-10 25.333 -15 52.666 -15 81.999c0 62 28.667 136 86 222c2.66699 4 6.83398 9.16699 12.501 15.5s9.5 10.833 11.5 13.5c44 62.667 85 94 123 94
c26.667 0 49.334 -8 68.001 -24c7.33301 -6.66699 12.333 -13.334 15 -20.001zM269.998 403c-5.33301 0 -10.9971 -3.99902 -16.9971 -11.999c-31.333 -40.667 -59.666 -85.167 -84.999 -133.5s-38 -89.833 -38 -124.5c0 -10 1.66699 -19.667 5 -29
c5.33301 -14 10.666 -21 15.999 -21c7.33301 0 15.666 7 24.999 21c25.333 37.333 43.666 65.5 54.999 84.5s23.166 45.167 35.499 78.5s18.5 65 18.5 95c0 16.667 -1.33301 26 -4 28c-4 3.33301 -6.66699 6.66602 -8 9.99902c-0.666992 2 -1.66699 3 -3 3z" />
    <glyph glyph-name="p" unicode="p" horiz-adv-x="440" 
d="M162 94c-2.66699 0 -8.6709 -9 -18.0039 -27c-45.333 -91.333 -81.666 -191.333 -108.999 -300c-0.666992 -2.66699 -1.16699 -8.5 -1.5 -17.5s-1.16602 -14.833 -2.49902 -17.5c-1.33301 -3.33301 -8.33301 -6.83301 -21 -10.5s-21.667 -5.5 -27 -5.5
c-22.667 0 -37.667 6.33301 -45 19c-1.33301 2.66699 -3.5 5.83398 -6.5 9.50098s-5 7 -6 10s-1.5 6.83301 -1.5 11.5c0 4 1.33301 10.333 4 19c9.33301 32 44 129.5 104 292.5s98.333 290.167 115 381.5c0.666992 4.66699 1.66699 8.33398 3 11.001s4.33301 5.66699 9 9
s11.334 6.66602 20.001 9.99902c7.33301 2.66699 15.666 4 24.999 4c13.333 0 25 -2.66699 35 -8s15 -12 15 -20c0 -12 -4 -34 -12 -66c-2.66699 -11.333 -4 -18.333 -4 -21s0.666992 -4 2 -4c2 0 6.66699 4 14 12c30.667 33.333 58 57 82 71
c8.66699 4.66699 18.334 7 29.001 7c20.667 0 50 -12.667 88 -38c17.333 -11.333 26 -30.666 26 -57.999c0 -15.333 -2.66699 -32 -8 -50c0 -1.33301 -0.166992 -6.5 -0.5 -15.5s-1.83301 -16.5 -4.5 -22.5c-2.66699 -6.66699 -8 -21.167 -16 -43.5s-14 -38.5 -18 -48.5
s-10.5 -24.833 -19.5 -44.5s-17.167 -35.334 -24.5 -47.001s-16.666 -24.834 -27.999 -39.501s-23.333 -27.667 -36 -39c-6.66699 -6 -16.667 -9 -30 -9c-46.667 0 -86 23.667 -118 71c-6 9.33301 -10.667 14 -14 14zM342.996 349
c-44 -38.667 -81.999 -83.999 -113.999 -135.999c-4 -6.66699 -6 -14.667 -6 -24c0 -27.333 9 -54 27 -80c4 -6 7.66699 -9 11 -9s7 2.33301 11 7c20 24 40.333 65 61 123c16.667 51.333 27 87.666 31 108.999c2.66699 12.667 4 20 4 22c0 2.66699 -0.666992 4 -2 4
c-2.66699 0 -10.334 -5.33301 -23.001 -16z" />
    <glyph glyph-name="q" unicode="q" horiz-adv-x="386" 
d="M144 38c-6.66699 -2 -14.334 -3 -23.001 -3c-20 0 -38 5 -54 15l-14 9c-24.667 16 -37 39.667 -37 71c0 16 3 31.333 9 46c24.667 65.333 63.5 124.666 116.5 177.999s109.833 89.333 170.5 108c16.667 5.33301 33 8 49 8c24.667 0 46.834 -5.83301 66.501 -17.5
s29.5 -27.5 29.5 -47.5c0 -4.66699 -1 -10 -3 -16s-3.66699 -10.333 -5 -13s-4.66602 -8 -9.99902 -16s-8 -12.333 -8 -13c-2 -3.33301 -3 -6.66602 -3 -9.99902c0 -4.66699 1.33301 -8.5 4 -11.5s4 -6.16699 4 -9.5c0 -4 -2.33301 -9 -7 -15
c-110.667 -146.667 -202.334 -344 -275.001 -592c0 -0.666992 -0.5 -9 -1.5 -25s-3.83301 -30 -8.5 -42c-8 -23.333 -19.333 -35 -34 -35c-21.333 0 -44 8.33301 -68 25c-4.66699 3.33301 -7 9 -7 17c0 4.66699 4 22.667 12 54c12 46.667 30.333 105.667 55 177l14 42
c3.33301 14.667 7 27 11 37s8.5 20.5 13.5 31.5l12.5 27.5c4 10 6 16.333 6 19c0 2 -1 3 -3 3c-2.66699 0 -6.66699 -0.666992 -12 -2zM340 384c-4 -2.66699 -8.49902 -4.66602 -13.499 -5.99902s-9.5 -3.33301 -13.5 -6c-42 -26 -82.333 -59.833 -121 -101.5
s-64 -81.834 -76 -120.501c-4.66699 -13.333 -7 -24.666 -7 -33.999c0 -4.66699 2 -7 6 -7c3.33301 0 13 5 29 15c26 16 52.167 38.833 78.5 68.5s46.833 55.5 61.5 77.5c4 5.33301 6 9.66602 6 12.999c0 0.666992 -0.833008 2.16699 -2.5 4.5s-2.5 5.16602 -2.5 8.49902
c0 4.66699 7.66699 15.334 23 32.001s26 29 32 37c6.66699 9.33301 10 16 10 20c0 1.33301 -0.666992 2 -2 2c-2.66699 0 -5.33398 -1 -8.00098 -3z" />
    <glyph glyph-name="r" unicode="r" horiz-adv-x="300" 
d="M228 353c2 0 5.33203 1.99902 9.99902 5.99902c58 43.333 100.333 65 127 65c38 0 67 -11.333 87 -34c5.33301 -6 8 -13 8 -21c0 -9.33301 -3.83301 -19.5 -11.5 -30.5s-19.167 -16.5 -34.5 -16.5c-4 0 -11.167 1.5 -21.5 4.5s-17.166 4.5 -20.499 4.5
c-8.66699 0 -32.334 -12.333 -71.001 -37c-100 -64 -161.333 -147.667 -184 -251c-4 -17.333 -13 -32 -27 -44c-6 -5.33301 -13.333 -8 -22 -8c-14 0 -29 9 -45 27c-12.667 14 -19 27.333 -19 40c0 14.667 8 33.667 24 57s25.333 39 28 47c26.667 76 46.667 139.333 60 190
c6.66699 24.667 10 41.334 10 50.001c0 2.66699 -1.5 6.33398 -4.5 11.001s-4.5 8.66699 -4.5 12c0 7.33301 5.33301 13.666 16 18.999s22.667 8 36 8c10 0 19.167 -1.83301 27.5 -5.5s13.5 -7.16699 15.5 -10.5c10.667 -18 16 -36 16 -54v-8.5
c0 -3 -0.166992 -5.5 -0.5 -7.5s-0.666016 -3.66699 -0.999023 -5s-0.5 -2.33301 -0.5 -3v-2c0 -2 0.666992 -3 2 -3z" />
    <glyph glyph-name="s" unicode="s" horiz-adv-x="296" 
d="M258 421c-11.333 -13.333 -20.665 -26.999 -27.998 -40.999c-10 -18 -15 -37.333 -15 -58c0 -31.333 6.66699 -88.333 20 -171c11.333 -70.667 17 -112.667 17 -126c0 -10.667 -8.5 -22.834 -25.5 -36.501s-36.167 -20.5 -57.5 -20.5c-10 0 -19.667 2 -29 6
c-62 25.333 -112 71 -150 137c-4.66699 8 -7 14 -7 18c0 8 4.5 16.667 13.5 26s20.833 14 35.5 14c10.667 0 19 -1.33301 25 -4c12 -6 20 -11.333 24 -16c4 -5.33301 11.5 -18 22.5 -38s20.833 -34.667 29.5 -44c7.33301 -8 11.666 -12 12.999 -12s2 1 2 3
c0 2.66699 -4.33301 28.334 -13 77.001c-15.333 84 -23 144 -23 180c0 15.333 3.16699 35.166 9.5 59.499s15.166 45.166 26.499 62.499c13.333 20.667 29 36.834 47 48.501s34 17.5 48 17.5c48.667 0 86 -14 112 -42c14 -14.667 21 -37 21 -67
c0 -31.333 -9.66699 -59.333 -29 -84c-6.66699 -8.66699 -14 -13 -22 -13c-18.667 0 -35 5.66699 -49 17c-11.333 9.33301 -17 20.333 -17 33c0 6 1 10.333 3 13c11.333 20.667 17 36.667 17 48c0 6 -1 11 -3 15c-2.66699 4.66699 -5 7 -7 7s-5.66699 -3 -11 -9z" />
    <glyph glyph-name="t" unicode="t" horiz-adv-x="262" 
d="M264 381c-2 -4.66699 -3.00098 -8.33789 -3.00098 -11.0049c0 -1.33301 0.666992 -2 2 -2s4.66602 0.666992 9.99902 2c51.333 12 91 27.333 119 46c5.33301 3.33301 11.333 5 18 5c12.667 0 26.667 -3.66699 42 -11s23 -15.333 23 -24c0 -16.667 -11.667 -30 -35 -40
c-9.33301 -4 -17.833 -8 -25.5 -12s-14.167 -7 -19.5 -9c-16 -6 -41.5 -13.667 -76.5 -23s-59.833 -16.666 -74.5 -21.999c-8 -2.66699 -14.167 -7.83398 -18.5 -15.501s-8.83301 -20.834 -13.5 -39.501c-1.33301 -6 -3.5 -12.333 -6.5 -19s-4.83301 -12 -5.5 -16
c-1.33301 -8.66699 -8.66602 -33.5 -21.999 -74.5s-21 -70.5 -23 -88.5c-4 -32.667 -19.667 -49 -47 -49c-17.333 0 -33.666 5 -48.999 15c-10 6.66699 -15 18 -15 34c0 8.66699 1.33301 17 4 25c6 18.667 16.333 53.5 31 104.5s27 88.833 37 113.5c4 10 6 16 6 18
s-2.66699 4.66699 -8 8c-10 6 -20.167 15.833 -30.5 29.5s-19.166 23.167 -26.499 28.5c-6 5.33301 -9 10.333 -9 15c0 6.66699 4.5 12.334 13.5 17.001s19.833 7 32.5 7c8 0 14.333 -0.666992 19 -2s9.83398 -3.16602 15.501 -5.49902s10.5 -4.16602 14.5 -5.49902
s7 -2 9 -2c4.66699 0 8 3.33301 10 10c4.66699 15.333 10 30.666 16 45.999c1.33301 2.66699 12.166 30.834 32.499 84.501s36.833 94.5 49.5 122.5c4.66699 10 11.334 15.667 20.001 17c2 0.666992 5.83301 1.66699 11.5 3s10.167 2 13.5 2c16 0 32.333 -3 49 -9
c12 -4.66699 18 -10 18 -16c0 -4 -1.33301 -12 -4 -24c-4.66699 -21.333 -12.334 -44.166 -23.001 -68.499s-23.334 -49.666 -38.001 -75.999s-24 -44.166 -28 -53.499c-6 -13.333 -11 -25 -15 -35z" />
    <glyph glyph-name="u" unicode="u" horiz-adv-x="420" 
d="M251 50c-42.667 -45.333 -75.6602 -67.999 -98.9932 -67.999c-24 0 -48 7.33301 -72 22c-17.333 10.667 -28.166 21.5 -32.499 32.5s-6.5 26.5 -6.5 46.5c0 23.333 7.66699 61 23 113c2.66699 8.66699 5.5 19.667 8.5 33s5.5 23 7.5 29
c4 11.333 9.83301 29.833 17.5 55.5s15.5 48.834 23.5 69.501s17.333 40.334 28 59.001c11.333 20 28 30 50 30c9.33301 0 19.333 -2.33301 30 -7s17.667 -10.334 21 -17.001c7.33301 -16.667 11 -25.667 11 -27c0 -11.333 -7 -22 -21 -32
c-13.333 -9.33301 -22.333 -23.666 -27 -42.999c-5.33301 -22 -18 -63.333 -38 -124s-32 -104.334 -36 -131.001c-1.33301 -9.33301 -2 -15.333 -2 -18c0 -3.33301 0.666992 -5 2 -5c3.33301 0 8.66602 3.66699 15.999 11c12 12 21.5 22.667 28.5 32
s12.167 15.666 15.5 18.999c70 74.667 118.667 147.667 146 219c4 10 10.667 17.667 20 23s17.666 8 24.999 8c5.33301 0 10.166 -0.833008 14.499 -2.5s8.66602 -3.66699 12.999 -6s7.16602 -3.83301 8.49902 -4.5c19.333 -7.33301 29 -17 29 -29c0 -9.33301 -2 -18 -6 -26
c-38 -75.333 -62 -149 -72 -221c-4 -28.667 -6 -47.667 -6 -57c0 -16.667 3 -32.334 9 -47.001c6.66699 -16.667 10 -28.334 10 -35.001c0 -16 -9.33301 -24 -28 -24c-16 0 -33.333 6.33301 -52 19c-3.33301 2.66699 -7.33301 4.83398 -12 6.50098
s-7.83398 3.5 -9.50098 5.5s-3.83398 6 -6.50098 12c-6.66699 16 -10 35 -10 57c0 4 0.166992 9 0.5 15s0.666016 11.167 0.999023 15.5s0.5 6.83301 0.5 7.5c0 2 -1 3 -3 3c-1.33301 0 -8 -6.33301 -20 -19z" />
    <glyph glyph-name="v" unicode="v" horiz-adv-x="378" 
d="M164 88c2.66699 0 7.33008 4.66309 13.9971 13.9961c35.333 47.333 65 100.666 89 159.999c15.333 38 23 68 23 90c0 11.333 -3 20 -9 26c-10.667 10.667 -16 21.667 -16 33c0 18 13 27 39 27c32.667 0 55.667 -11 69 -33c10 -16.667 20.667 -25 32 -25
c7.33301 0 16 1.66699 26 5c4.66699 1.33301 13.5 4.83301 26.5 10.5s25 10 36 13s22.167 4.5 33.5 4.5c19.333 0 39 -5.66699 59 -17c12.667 -7.33301 19 -15.666 19 -24.999c0 -5.33301 -3.66699 -10 -11 -14c-20 -11.333 -56.333 -24.333 -109 -39
c-12 -3.33301 -19.333 -5.66602 -22 -6.99902c-8.66699 -4 -19 -6 -31 -6c-6.66699 0 -14 0.833008 -22 2.5s-13.333 2.5 -16 2.5s-5 -0.666992 -7 -2s-5.33301 -11 -10 -29c-21.333 -79.333 -64.666 -159.333 -129.999 -240c-5.33301 -6.66699 -18 -20 -38 -40
c-12.667 -12.667 -27.667 -19 -45 -19c-8.66699 0 -16 1.33301 -22 4s-13 7.33398 -21 14.001s-13.667 11 -17 13c-15.333 10 -25.166 17.5 -29.499 22.5s-7.83301 12.167 -10.5 21.5c-2.66699 8.66699 -4 19.334 -4 32.001c0 11.333 3.33301 29 10 53
c1.33301 4 3.5 13.333 6.5 28s6.5 30 10.5 46c28.667 119.333 45.667 197.666 51 234.999c2.66699 18 15.334 27 38.001 27c1.33301 0 4.5 -0.333008 9.5 -1s8.5 -1 10.5 -1c17.333 0 30.333 -4.33301 39 -13c6 -6 9 -15.667 9 -29c0 -12 -5.16699 -32.333 -15.5 -61
s-15.833 -44 -16.5 -46c-5.33301 -29.333 -13.833 -69.166 -25.5 -119.499l-21.5 -92.5c-2 -9.33301 -3 -16.666 -3 -21.999c0 -2 0.666992 -3 2 -3z" />
    <glyph glyph-name="w" unicode="w" horiz-adv-x="540" 
d="M227 79c-0.666992 0 -1.83105 -1.00293 -3.49805 -3.00293l-10 -12.5c-5 -6.33301 -11.167 -13.166 -18.5 -20.499c-18.667 -18.667 -37.334 -28 -56.001 -28c-8.66699 0 -18.667 3 -30 9l-22.5 11c-9.66699 4.66699 -16 7.66699 -19 9s-7 3.66602 -12 6.99902
s-8 6.5 -9 9.5s-2.16699 6.83301 -3.5 11.5s-2 10.334 -2 17.001c0 4 1.66699 13 5 27c8 33.333 26.167 89.333 54.5 168s45.5 139 51.5 181c0.666992 3.33301 3.33398 7.33301 8.00098 12s9.33398 7.66699 14.001 9c10 3.33301 23 5 39 5
c19.333 0 33.833 -3.33301 43.5 -10s14.5 -14.667 14.5 -24c0 -6.66699 -2.66699 -14 -8 -22c-0.666992 -1.33301 -5 -11 -13 -29c-18.667 -43.333 -46.334 -122 -83.001 -236c-4 -12.667 -6 -20 -6 -22c0 -1.33301 0.666992 -2 2 -2c2 0 6.33301 4.66699 13 14
c58 78 100.667 148.667 128 212c5.33301 12 15.666 18 30.999 18c2.66699 0 6.66699 -0.333008 12 -1s9 -1 11 -1c13.333 0 25.166 -3.83301 35.499 -11.5s15.5 -16.834 15.5 -27.501c0 -10 -11.333 -34.333 -34 -73c-7.33301 -12.667 -13.666 -29 -18.999 -49
c-0.666992 -1.33301 -3.33398 -9.5 -8.00098 -24.5l-12 -40c-3.33301 -11.667 -6.5 -25.167 -9.5 -40.5s-4.5 -28 -4.5 -38c0 -12.667 2 -19 6 -19c6.66699 0 15.667 7.33301 27 22c16.667 22 30.667 49 42 81s18.333 57 21 75s4 30.667 4 38
c0 4.66699 0.666992 11.167 2 19.5s2 14.166 2 17.499c0 7.33301 -3.16699 20.333 -9.5 39s-9.5 32.334 -9.5 41.001c0 10.667 4 19.334 12 26.001c7.33301 6 23.666 9 48.999 9c4.66699 0 9.33398 -0.833008 14.001 -2.5s8.5 -3.66699 11.5 -6l12.5 -9.5l13 -10
c11.333 -8 29.666 -12 54.999 -12c14 0 37 2.16699 69 6.5s52.333 6.5 61 6.5c31.333 0 47 -12.667 47 -38c0 -14.667 -17.333 -26.334 -52 -35.001c-6.66699 -1.33301 -18.334 -4.66602 -35.001 -9.99902s-31.334 -9.33301 -44.001 -12s-26 -4 -40 -4
c-7.33301 0 -15.166 0.5 -23.499 1.5s-15.166 2 -20.499 3s-8.66602 1.5 -9.99902 1.5c-3.33301 0 -5 -1.66699 -5 -5c0 -0.666992 0.166992 -3 0.5 -7s0.5 -9.5 0.5 -16.5v-21.5c0 -33.333 -9.33301 -75.666 -28 -126.999s-47.667 -96.666 -87 -135.999
c-12.667 -12.667 -29.334 -19 -50.001 -19c-27.333 0 -59.666 10.667 -96.999 32c-13.333 7.33301 -21.833 15.333 -25.5 24s-5.5 21.667 -5.5 39c0 2 -0.666992 3 -2 3z" />
    <glyph glyph-name="x" unicode="x" 
d="M241 319c2.66699 0 8.33789 3.66211 17.0049 10.9951l131 100c8 6 17.667 9 29 9c20 0 35.833 -6.66699 47.5 -20s17.5 -25.333 17.5 -36c0 -1.33301 -0.666992 -2.83301 -2 -4.5s-2.66602 -2.83398 -3.99902 -3.50098l-6 -3
c-2.66699 -1.33301 -4.33398 -2.33301 -5.00098 -3c-55.333 -32 -121.666 -81.667 -198.999 -149c-8.66699 -7.33301 -13.834 -12.666 -15.501 -15.999s-2.5 -9.66602 -2.5 -18.999c0 -26 2 -61.167 6 -105.5s6 -77.166 6 -98.499c0 -28 -1.66699 -52 -5 -72
c-2 -8.66699 -11.667 -13 -29 -13c-8.66699 0 -15.334 0.333008 -20.001 1c-7.33301 0.666992 -12.333 1.5 -15 2.5s-5.5 2.66699 -8.5 5l-8.5 6.5c-12.667 7.33301 -20.334 13.333 -23.001 18s-4 12.334 -4 23.001c0 14.667 3 29.667 9 45c2 4.66699 3 8.33398 3 11.001
c0 1.33301 -1 9.33301 -3 24c-2.66699 29.333 -4 48.666 -4 57.999c0 6.66699 -1 10 -3 10s-4.66699 -2 -8 -6c-26.667 -31.333 -40.667 -51 -42 -59c-1.33301 -6.66699 -7.5 -14.5 -18.5 -23.5s-22.833 -13.5 -35.5 -13.5c-10.667 0 -19.667 3 -27 9
c-21.333 16.667 -32 30.667 -32 42c0 7.33301 3.33301 15 10 23c4.66699 4.66699 24.667 26.5 60 65.5s61 68.5 77 88.5c6 7.33301 9 17.666 9 30.999c0 12.667 -1.83301 33.834 -5.5 63.501s-8.5 51.5 -14.5 65.5c-2.66699 5.33301 -4.83398 8.83301 -6.50098 10.5
s-3.33398 3 -5.00098 4s-3.5 2.5 -5.5 4.5c-4 4.66699 -6 9.66699 -6 15c0 8.66699 4.66699 16.334 14 23.001s20.666 10 33.999 10c18 0 33.5 -5 46.5 -15s22.5 -22.667 28.5 -38s10.167 -29.166 12.5 -41.499s3.5 -23.5 3.5 -33.5c0 -4 0.666992 -6 2 -6z" />
    <glyph glyph-name="y" unicode="y" horiz-adv-x="436" 
d="M152 114c2.66699 0 6.66699 1.66699 12 5c25.333 16.667 46.666 35.334 63.999 56.001c3.33301 4 8.83301 9.83301 16.5 17.5s14.167 14.834 19.5 21.501c4 4.66699 12.5 14 25.5 28s23.667 26.167 32 36.5s19 27 32 50s24.833 48.833 35.5 77.5
c7.33301 22.667 19.333 34 36 34c4 0 10 -1.5 18 -4.5s15.333 -4.83301 22 -5.5c16.667 -1.33301 28 -7 34 -17c4.66699 -7.33301 7 -14.333 7 -21c0 -14.667 -6.33301 -31.334 -19 -50.001l-24 -35c-20 -29.333 -39.667 -71.333 -59 -126l-54 -148
c-5.33301 -15.333 -8 -24 -8 -26c0 -2.66699 2 -4.33398 6 -5.00098c14.667 -4 22 -11.333 22 -22c0 -7.33301 -2.66699 -14.666 -8 -21.999c-55.333 -74 -94.333 -166 -117 -276c0 -1.33301 -1 -7.33301 -3 -18s-3.5 -18 -4.5 -22s-2.83301 -10.833 -5.5 -20.5
s-5.5 -16.834 -8.5 -21.501s-6.66699 -10 -11 -16s-9.5 -10.5 -15.5 -13.5s-12.667 -4.83301 -20 -5.5c-18 -2 -29.667 -3 -35 -3c-12 0 -22.667 3 -32 9c-12 8 -18 21.667 -18 41c0 20 6.33301 44.333 19 73c27.333 62 55.333 118 84 168c4 20 24.667 89 62 207
c3.33301 11.333 5 17.333 5 18c0 2.66699 -1 4 -3 4s-10.667 -6 -26 -18c-30 -24 -51.333 -36 -64 -36c-47.333 0 -84.333 15.333 -111 46c-6 6.66699 -9 18.334 -9 35.001c0 42 13 100 39 174c2.66699 7.33301 12.334 32.166 29.001 74.499s28.334 75.5 35.001 99.5
c2 8 7.16699 15.5 15.5 22.5s17.5 10.5 27.5 10.5c4.66699 0 8.66699 -0.333008 12 -1c24.667 -4 40 -8.33301 46 -13c9.33301 -6 14 -15.333 14 -28c0 -10.667 -3.66699 -22.667 -11 -36c-2 -4 -6.16699 -10 -12.5 -18s-10.5 -14.333 -12.5 -19
c-10 -22 -18.5 -42.667 -25.5 -62s-14.833 -43.833 -23.5 -73.5s-15.334 -51.167 -20.001 -64.5c-8.66699 -27.333 -13 -46.333 -13 -57c0 -2.66699 1 -4 3 -4z" />
    <glyph glyph-name="z" unicode="z" horiz-adv-x="384" 
d="M377 307c0 -2 4.66016 -3.66699 13.9932 -5c29.333 -4.66699 50 -14.334 62 -29.001c6.66699 -7.33301 10 -14 10 -20c0 -12 -10.333 -18 -31 -18c-47.333 0 -101 -9.33301 -161 -28c-14.667 -4.66699 -25 -9 -31 -13s-17.667 -15.333 -35 -34
c-41.333 -45.333 -63.666 -69.333 -66.999 -72c-7.33301 -7.33301 -11 -14 -11 -20c0 -5.33301 2.33301 -9 7 -11c7.33301 -3.33301 14 -5 20 -5c4.66699 0 12.667 1.66699 24 5c14 4.66699 26.667 7 38 7c10.667 0 29 6.33301 55 19s47 19 63 19
c19.333 0 38 -7.66699 56 -23c7.33301 -6 11 -12.333 11 -19c0 -8.66699 -5 -15 -15 -19c-2 -0.666992 -13.333 -5.33398 -34 -14.001s-35.334 -14.5 -44.001 -17.5s-22 -7.33301 -40 -13s-34.833 -9.66699 -50.5 -12s-31.167 -3.5 -46.5 -3.5c-41.333 0 -79.333 10 -114 30
c-23.333 13.333 -35 35.333 -35 66c0 12 1.33301 20.667 4 26c2.66699 6.66699 6.5 13.5 11.5 20.5s9.16699 12.5 12.5 16.5s9 10.333 17 19s13 14.334 15 17.001c9.33301 10.667 14 16.334 14 17.001c0 1.33301 -2 2.66602 -6 3.99902c-18 6 -29.667 14.667 -35 26
c-8 16 -12 27.333 -12 34s3.33301 12.334 10 17.001s15.334 7 26.001 7c8.66699 0 20 -2.33301 34 -7s26 -7 36 -7c16.667 0 32.834 5.66699 48.501 17s30.834 24.666 45.501 39.999s26.667 25.333 36 30c8.66699 4.66699 16.5 10.167 23.5 16.5s12 11.5 15 15.5
s4.5 6.66699 4.5 8c0 2 -1 3 -3 3s-6 -1 -12 -3c-10 -3.33301 -19.667 -5.66602 -29 -6.99902c-33.333 -4 -62 -19.667 -86 -47c-3.33301 -3.33301 -7.33301 -5 -12 -5c-14 0 -26.667 6.16699 -38 18.5s-17 26.833 -17 43.5c0 19.333 8 31 24 35
c4 1.33301 18.833 5.5 44.5 12.5s47.334 12 65.001 15s34.834 4.5 51.501 4.5c20.667 0 41.167 -3 61.5 -9s33.833 -12.667 40.5 -20c1.33301 -2 5.83301 -6.33301 13.5 -13s12.167 -12.334 13.5 -17.001c2.66699 -7.33301 4 -14.333 4 -21
c0 -9.33301 -3.16699 -18.5 -9.5 -27.5s-12.666 -16 -18.999 -21s-16.166 -12.167 -29.499 -21.5c-5.33301 -3.33301 -8 -5.66602 -8 -6.99902z" />
    <glyph glyph-name="braceleft" unicode="{" horiz-adv-x="346" 
d="M228 300c29.333 -4.66699 44.0039 -21.999 44.0039 -51.999c0 -24 -3.33301 -46 -10 -66l-68 -216c-6.66699 -21.333 -10 -35.666 -10 -42.999c0 -10 3.33301 -18 10 -24c6 -5.33301 15 -8 27 -8c3.33301 0 8.33301 0.166992 15 0.5s11.667 0.5 15 0.5
c18.667 0 31.667 -5 39 -15c6 -8 9 -15.667 9 -23c0 -10 -6.33301 -21.333 -19 -34c-2 -2 -4 -4.66699 -6 -8s-3.83301 -5.66602 -5.5 -6.99902s-5.83398 -2.5 -12.501 -3.5s-16.334 -1.5 -29.001 -1.5c-51.333 0 -90.666 10.833 -117.999 32.5s-41 47.5 -41 77.5
c0 22.667 3 43 9 61l64 204c12.667 40 19 62.333 19 67c0 8 -1.83301 12.833 -5.5 14.5s-12.167 2.5 -25.5 2.5c-17.333 0 -29.666 2 -36.999 6c-2.66699 1.33301 -4.33398 2.5 -5.00098 3.5s-1.33398 2.66699 -2.00098 5s-1.33398 4.16602 -2.00098 5.49902
s-1.66699 2.66602 -3 3.99902l-3 3c-0.666992 0.666992 -1.33398 2 -2.00098 4s-1 4.66699 -1 8c0 2 2 9.66699 6 23c4 12.667 9.33301 20.667 16 24s21 5 43 5c24.667 0 43 6.66699 55 20s25.333 42 40 86l72 213c16.667 48.667 39.667 84.167 69 106.5
s71.333 33.5 126 33.5c47.333 0 71 -7.66699 71 -23c0 -2 1.16699 -5.16699 3.5 -9.5s3.5 -7.83301 3.5 -10.5c0 -6 -1.66699 -12 -5 -18c-6 -12 -11.5 -19.333 -16.5 -22s-17.833 -4 -38.5 -4c-32.667 0 -55.667 -5.16699 -69 -15.5s-25.333 -29.5 -36 -57.5
c-16 -39.333 -42 -117 -78 -233c-6 -18 -11 -31.833 -15 -41.5s-9.83301 -20.5 -17.5 -32.5s-17.667 -21.333 -30 -28s-27.5 -11.334 -45.5 -14.001z" />
    <glyph glyph-name="bar" unicode="|" horiz-adv-x="270" 
d="M412 777c8 -7.33301 12.0029 -15.667 12.0029 -25c0 -14.667 -9 -31 -27 -49c-6 -6 -14.333 -22 -25 -48c-28 -70 -72.333 -200.333 -133 -391s-101 -314 -121 -370c-12.667 -35.333 -19.334 -53.666 -20.001 -54.999c-6 -12 -11 -20.667 -15 -26s-7.33301 -8.5 -10 -9.5
s-6.33398 -1.5 -11.001 -1.5c-19.333 0 -34.666 4.66699 -45.999 14c-3.33301 2.66699 -7.83301 5.16699 -13.5 7.5s-9.83398 4.83301 -12.501 7.5s-4 6.66699 -4 12c0 15.333 2.33301 30 7 44c1.33301 4 5 11.667 11 23s10 20 12 26l258 774
c12.667 37.333 23.667 62.666 33 75.999s23.333 20 42 20c10 0 18.667 -1.33301 26 -4s13.166 -5.5 17.499 -8.5s10.833 -8.5 19.5 -16.5z" />
    <glyph glyph-name="braceright" unicode="}" horiz-adv-x="346" 
d="M221 310c-24.667 6 -37.0029 24.333 -37.0029 55c0 17.333 3.66699 37.333 11 60l70 220c9.33301 30 14 47.333 14 52c0 8 -2.83301 13.5 -8.5 16.5s-16.5 4.5 -32.5 4.5c-28 0 -48.333 1.83301 -61 5.5s-19 12.167 -19 25.5c0 5.33301 1 10.5 3 15.5s4.5 10.5 7.5 16.5
s5.16699 11 6.5 15c2.66699 8.66699 24.667 13 66 13h27c28.667 0 56.334 -9.33301 83.001 -28s40 -45 40 -79c0 -23.333 -7 -56 -21 -98l-57 -171c-11.333 -34 -17 -56.333 -17 -67c0 -6.66699 2.83301 -11 8.5 -13s16.834 -3 33.501 -3c18.667 0 31.667 -3 39 -9
c5.33301 -4.66699 8 -10.667 8 -18c0 -5.33301 -1 -11 -3 -17s-5.33301 -13.333 -10 -22l-6 -12c-4.66699 -9.33301 -21 -14 -49 -14c-11.333 0 -21.333 -1.83301 -30 -5.5s-19.167 -13.667 -31.5 -30s-23.5 -39.833 -33.5 -70.5l-71 -210c-7.33301 -21.333 -13 -37 -17 -47
s-11 -22.333 -21 -37s-21.167 -25.334 -33.5 -32.001s-29.166 -12.667 -50.499 -18s-46.666 -8 -75.999 -8c-52.667 0 -79 9.33301 -79 28c0 8 2.33301 16.833 7 26.5s7.66699 16.167 9 19.5c3.33301 11.333 16.666 17 39.999 17c30 0 51.167 1.5 63.5 4.5
s21.166 8.16699 26.499 15.5s11.666 21.333 18.999 42l79 238c8.66699 25.333 14.834 42.666 18.501 51.999s9.33398 19.833 17.001 31.5s16.667 19.834 27 24.501s23.833 8.33398 40.5 11.001z" />
    <glyph glyph-name="asciitilde" unicode="~" horiz-adv-x="550" 
d="M564 326c1.33301 -3.33301 3.66895 -6.66797 7.00195 -10.001s5 -6.66602 5 -9.99902c0 -8.66699 -4.33301 -17 -13 -25c-56 -51.333 -102.333 -77 -139 -77c-22 0 -41.333 3.16699 -58 9.5s-29.334 13.333 -38.001 21s-20 19.167 -34 34.5
c-16.667 18 -30.334 27 -41.001 27c-12.667 0 -33 -11.667 -61 -35c-10.667 -9.33301 -27 -14 -49 -14c-8.66699 0 -15.667 1.33301 -21 4s-8.83301 5.16699 -10.5 7.5s-3.5 6.66602 -5.5 12.999s-3.33301 10.166 -4 11.499c-0.666992 2 -2.66699 4.66699 -6 8
s-5 7.33301 -5 12c0 9.33301 4 17.333 12 24c14.667 12.667 36.5 26.334 65.5 41.001s57.833 22 86.5 22c24.667 0 45.667 -6 63 -18c10.667 -7.33301 23 -18.666 37 -33.999s25 -26 33 -32c9.33301 -7.33301 19 -11 29 -11c15.333 0 34 9.5 56 28.5s36.333 28.5 43 28.5
c25.333 0 41.333 -8.66699 48 -26z" />
    <glyph glyph-name="uni00A0" unicode="&#xa0;" horiz-adv-x="246" 
 />
    <glyph glyph-name="exclamdown" unicode="&#xa1;" horiz-adv-x="320" 
d="M70 -138c0 23.333 3.66895 45.3359 11.002 66.0029c2.66699 7.33301 7.66699 14.666 15 21.999c2 2 4.33301 8.33301 7 19c9.33301 38.667 23 85.667 41 141s34.333 109 49 161c4.66699 15.333 13.667 23 27 23c4.66699 0 12 -1.33301 22 -4
c13.333 -3.33301 24.833 -11.5 34.5 -24.5s14.5 -23.5 14.5 -31.5c0 -7.33301 -2.33301 -17.333 -7 -30c-2.66699 -6.66699 -4.33398 -12.834 -5.00098 -18.501s-2 -12.167 -4 -19.5c-32.667 -102.667 -52.667 -171 -60 -205c-8 -37.333 -13 -59 -15 -65
c-18 -54 -27.333 -82.667 -28 -86c-1.33301 -8 -10.333 -12 -27 -12c-10.667 0 -18.834 1.16699 -24.501 3.5s-11 5.66602 -16 9.99902s-9.5 7.5 -13.5 9.5c-14 7.33301 -21 21 -21 41zM318.002 470.003c7.33301 -0.666992 15.166 -4.16699 23.499 -10.5
s12.5 -14.166 12.5 -23.499c0 -8 -3.66699 -20.667 -11 -38c-6 -14.667 -13 -24.334 -21 -29.001s-22.333 -7 -43 -7c-22.667 0 -38 8 -46 24c-5.33301 10.667 -8 21.667 -8 33c0 14 5 30.333 15 49c4.66699 8 12.334 12 23.001 12c8 0 18 -1.66699 30 -5s20.333 -5 25 -5z
" />
    <glyph glyph-name="cent" unicode="&#xa2;" horiz-adv-x="434" 
d="M360 379c-2 0 -4.33691 -3.99707 -7.00391 -11.9971c-22 -61.333 -51.667 -153 -89 -275c-2.66699 -8.66699 -4 -14 -4 -16c0 -2.66699 1.33301 -4 4 -4s7 1.33301 13 4c11.333 4.66699 21.5 11.667 30.5 21s14.167 14.333 15.5 15c28 20 52.333 30 73 30
c14 0 26.333 -4.33301 37 -13c11.333 -9.33301 17 -17.333 17 -24c0 -8.66699 -7 -17.667 -21 -27c-64 -44 -114.333 -71 -151 -81c-12 -3.33301 -23.333 -5 -34 -5c-5.33301 0 -9 -2.66699 -11 -8l-18 -52c-7.33301 -21.333 -18.666 -32 -33.999 -32
c-4 0 -8.16699 1 -12.5 3s-7.83301 4 -10.5 6s-6.16699 4.83301 -10.5 8.5s-6.83301 5.83398 -7.5 6.50098c-10.667 8 -16 16.333 -16 25c0 7.33301 2.66699 15 8 23c6.66699 9.33301 11.334 18.333 14.001 27c1.33301 3.33301 2 5.66602 2 6.99902s-2 2.66602 -6 3.99902
c-28 11.333 -50.833 29.833 -68.5 55.5s-26.5 50.5 -26.5 74.5c0 40.667 6 74.667 18 102c22.667 51.333 44.334 90.666 65.001 117.999s43 50 67 68c35.333 26.667 66.333 40 93 40c6.66699 0 10.667 2.66699 12 8c4.66699 16 8.83398 28 12.501 36s9 15.167 16 21.5
s15.5 9.5 25.5 9.5c3.33301 0 7.5 -0.333008 12.5 -1s8.5 -1 10.5 -1c5.33301 0 12.833 -1.83301 22.5 -5.5s14.5 -8.83398 14.5 -15.501c0 -5.33301 -2 -10.333 -6 -15c-8 -10.667 -13.333 -19 -16 -25c-7.33301 -15.333 -11 -24.666 -11 -27.999c0 -2 5 -5 15 -9
c12 -4.66699 21.667 -10.667 29 -18c17.333 -17.333 28.833 -30.166 34.5 -38.499s8.5 -18.833 8.5 -31.5c0 -3.33301 -1.16699 -10 -3.5 -20s-5 -20.833 -8 -32.5l-5.5 -21.5c-4.66699 -22 -9.33398 -35.333 -14.001 -40c-5.33301 -5.33301 -13.666 -8 -24.999 -8
c-17.333 0 -33.5 5.5 -48.5 16.5s-22.5 21.167 -22.5 30.5c0 7.33301 3.33301 20.666 10 39.999c9.33301 27.333 14 44.666 14 51.999c0 4.66699 -2.33301 7 -7 7zM250.996 356.003c-33.333 -44.667 -55.667 -83 -67 -115c-18.667 -52.667 -28 -88 -28 -106
c0 -14.667 2.66699 -28 8 -40c2.66699 -6 5.33398 -9 8.00098 -9c2 0 5 6 9 18l82 252c2 6 3 10 3 12c0 1.33301 -0.333008 2 -1 2c-2.66699 0 -7.33398 -4.66699 -14.001 -14z" />
    <glyph glyph-name="sterling" unicode="&#xa3;" horiz-adv-x="490" 
d="M69 66l-0.000976562 11.0049c0 11.333 5.66699 30.666 17 57.999l34 80c4 9.33301 6 15 6 17s-1.33301 3 -4 3c-16.667 0 -28.334 6 -35.001 18c-2.66699 4.66699 -4.5 11 -5.5 19s-2.16699 13.667 -3.5 17c-3.33301 8.66699 -5 15.334 -5 20.001c0 6 2.83301 10 8.5 12
s16.5 3 32.5 3c7.33301 0 23.333 1.66699 48 5c6 0.666992 9.66699 3 11 7l13 29c28 62 54.667 113 80 153s49.833 69.667 73.5 89s45.167 32.166 64.5 38.499s41 9.5 65 9.5c32.667 0 56.334 -9 71.001 -27l17 -19c7.33301 -8 12.5 -14 15.5 -18s6 -9.33301 9 -16
s4.5 -13.667 4.5 -21s-1.5 -15.833 -4.5 -25.5s-6.83301 -20.667 -11.5 -33l-10 -26.5c-0.666992 -1.33301 -1.66699 -5 -3 -11s-2.66602 -10.667 -3.99902 -14s-3.33301 -7.33301 -6 -12s-6.33398 -8.16699 -11.001 -10.5s-10.334 -3.5 -17.001 -3.5l-36 9
c-17.333 4 -28.333 9 -33 15s-7 15.667 -7 29c0 7.33301 3.66699 17.333 11 30s11.333 23.334 12 32.001c0.666992 4 2.66699 10.5 6 19.5s5 16.167 5 21.5c0 3.33301 -1.33301 5 -4 5c-4 0 -10.333 -2.33301 -19 -7c-48 -26 -92.667 -83 -134 -171l-14 -30
c-4.66699 -10 -7 -16 -7 -18s1 -3 3 -3c1.33301 0 5.33301 0.666992 12 2c28 5.33301 46 8 54 8c18 0 34.333 -7.33301 49 -22c12.667 -12.667 19 -25 19 -37c0 -6.66699 -1.16699 -11.834 -3.5 -15.501s-4.16602 -6 -5.49902 -7s-5.33301 -2.16699 -12 -3.5
s-10.334 -2 -11.001 -2c-12 -3.33301 -21.333 -5 -28 -5c-10.667 0 -29.167 -2.83301 -55.5 -8.5s-42.833 -8.83398 -49.5 -9.50098c-9.33301 -0.666992 -15.166 -2 -17.499 -4s-5.16602 -6.66699 -8.49902 -14c-18.667 -42 -38.334 -91.667 -59.001 -149
c-2.66699 -7.33301 -4 -12 -4 -14c0 -2.66699 1.33301 -4 4 -4c2 0 11.333 1.66699 28 5c108 20.667 165.667 34 173 40s26.333 9 57 9c12.667 0 21.667 -0.666992 27 -2c8 -2 14.5 -5.16699 19.5 -9.5s9.83301 -9.66602 14.5 -15.999s8 -10.5 10 -12.5
c10 -10 15 -19.667 15 -29c0 -17.333 -11.667 -26 -35 -26s-37.666 -0.333008 -42.999 -1c-27.333 -4.66699 -69 -12.834 -125 -24.501s-99.333 -19.834 -130 -24.501c-37.333 -5.33301 -76.666 -8 -117.999 -8c-10 0 -17.667 0.333008 -23 1
c-9.33301 1.33301 -17 4.16602 -23 8.49902s-10 8.16602 -12 11.499s-4.16699 9 -6.5 17s-3.83301 12.667 -4.5 14c-4.66699 12 -7 19.333 -7 22c0 6.66699 3.66699 12.5 11 17.5s15.666 7.5 24.999 7.5c2 0 6.5 -0.333008 13.5 -1s11.167 -1 12.5 -1c2.66699 0 4 1 4 3z
" />
    <glyph glyph-name="currency" unicode="&#xa4;" horiz-adv-x="508" 
d="M310 478c5.33301 1.33301 13.665 1.99805 24.998 1.99805c21.333 0 39.333 -2.66699 54 -8c11.333 -4 18 -6 20 -6s5 2.33301 9 7c26 30 59.333 59.333 100 88c10.667 7.33301 23 11 37 11c12.667 0 23.667 -3.33301 33 -10s14 -15 14 -25
c0 -5.33301 -2.33301 -15.666 -7 -30.999c-4 -11.333 -12 -19.666 -24 -24.999c-9.33301 -4 -23.833 -13.833 -43.5 -29.5s-33.167 -27.167 -40.5 -34.5c-3.33301 -3.33301 -5 -6 -5 -8c0 -0.666992 1 -3.66699 3 -9c9.33301 -24 14 -45.333 14 -64
c0 -27.333 -6.5 -55.5 -19.5 -84.5s-27.833 -51.833 -44.5 -68.5c-4 -4 -6 -7.33301 -6 -10s5.66699 -19.5 17 -50.5s19 -48.167 23 -51.5c6.66699 -6 10 -13.667 10 -23c0 -6 -1.16699 -10.667 -3.5 -14s-7.33301 -6.83301 -15 -10.5s-12.834 -6.5 -15.501 -8.5
c-6 -4 -12.333 -6 -19 -6c-10.667 0 -21.667 3.66699 -33 11c-18.667 12.667 -28 25 -28 37c0 8 -7 30.333 -21 67c-2 6 -5 9 -9 9l-6 -1c-4 -1.33301 -9.66699 -2.33301 -17 -3s-15.333 -1 -24 -1c-19.333 0 -36.666 3 -51.999 9c-6.66699 2.66699 -10.667 4 -12 4
c-2 0 -6 -3 -12 -9c-72 -72 -115 -108 -129 -108c-16.667 0 -30.167 4.33301 -40.5 13s-15.5 18 -15.5 28c0 6.66699 2.66699 16.167 8 28.5s12 19.166 20 20.499c4.66699 0.666992 22.334 15 53.001 43s46 45 46 51c0 2 -1.33301 5.66699 -4 11
c-7.33301 14.667 -11 31 -11 49c0 28.667 7.33301 58.334 22 89.001s31 55 49 73c2.66699 2.66699 4 5 4 7c0 1.33301 -1 4.33301 -3 9c-20.667 48.667 -31 87.667 -31 117c0 16 4.33301 28.833 13 38.5s20.334 14.5 35.001 14.5c11.333 0 22 -3 32 -9
c11.333 -6.66699 18.5 -12.667 21.5 -18s4.5 -14.333 4.5 -27c1.33301 -5.33301 2 -11.333 2 -18v-11c0 -12.667 3.33301 -27 10 -43c3.33301 -8 7.33301 -12 12 -12zM243.999 243.998c0 -2.66699 1.66211 -5 4.99512 -7c6.66699 -4 12 -11.333 16 -22
c0.666992 -1.33301 1.33398 -4.33301 2.00098 -9s1.83398 -8.5 3.50098 -11.5s4.83398 -4.5 9.50098 -4.5c6.66699 0 13.334 1.66699 20.001 5c9.33301 4.66699 18.166 10.667 26.499 18s14.333 13.333 18 18s9.16699 12.5 16.5 23.5s12 17.833 14 20.5
c15.333 22 23 46.333 23 73c0 8.66699 -2 15 -6 19l-22 21c-2.66699 2.66699 -4.16699 6.5 -4.5 11.5s-1.16602 8.16699 -2.49902 9.5s-5.66602 2 -12.999 2c-22.667 0 -45.667 -18.667 -69 -56c-24.667 -38 -37 -75 -37 -111z" />
    <glyph glyph-name="yen" unicode="&#xa5;" horiz-adv-x="474" 
d="M341 267c0.666992 0 4.33203 0.501953 10.999 1.50195s14.334 2 23.001 3s16 1.5 22 1.5c19.333 0 33.666 -4 42.999 -12c6 -4.66699 9 -10.334 9 -17.001c0 -17.333 -3.33301 -29.666 -10 -36.999c-1.33301 -1.33301 -2.5 -3.83301 -3.5 -7.5s-2.83301 -6.5 -5.5 -8.5
s-7 -3 -13 -3l-8 1c-5.33301 0.666992 -12.666 1 -21.999 1c-0.666992 0 -3.5 -0.333008 -8.5 -1s-11.167 -1.33398 -18.5 -2.00098s-13.666 -1 -18.999 -1c-29.333 -2 -44.666 -3.33301 -45.999 -4c-4 -0.666992 -6.66699 -3 -8 -7c-4.66699 -10.667 -7 -16.667 -7 -18
c0 -2 2 -3 6 -3c0.666992 0 12.667 1.16699 36 3.5s40.333 3.5 51 3.5c18 0 29.333 -3.33301 34 -10c7.33301 -10 11 -18.667 11 -26s-3 -18 -9 -32c-4 -9.33301 -10.333 -14 -19 -14c-2 0 -7 0.5 -15 1.5s-14.667 1.5 -20 1.5c-3.33301 0 -13.666 -1 -30.999 -3
c-30 -3.33301 -52 -5 -66 -5c-2.66699 0 -5.33398 -3.33301 -8.00098 -10c-4 -10.667 -8.83301 -26.167 -14.5 -46.5s-8.5 -31.833 -8.5 -34.5c0 -2 0.166992 -4.66699 0.5 -8s0.5 -5.33301 0.5 -6c0 -3.33301 -2.33301 -9.33301 -7 -18s-7.66699 -19.667 -9 -33
c-0.666992 -4.66699 -5.33398 -9.66699 -14.001 -15s-18 -8 -28 -8c-6.66699 0 -13 1.5 -19 4.5s-9.66699 4.5 -11 4.5c-6.66699 0.666992 -15 3.66699 -25 9s-15 10.333 -15 15c0 3.33301 2.66699 13.5 8 30.5s9.66602 29.167 12.999 36.5
c1.33301 3.33301 3.83301 12.166 7.5 26.499s6.5 24.166 8.5 29.499c2.66699 8 4 12.333 4 13c0 2 -2 3 -6 3c-0.666992 0 -4.83398 -0.166992 -12.501 -0.5s-13.834 -0.5 -18.501 -0.5c-21.333 0 -35.333 1.66699 -42 5c-9.33301 4.66699 -17.166 12.167 -23.499 22.5
s-9.5 19.833 -9.5 28.5c0 4 1.16699 7.66699 3.5 11s3.5 5.66602 3.5 6.99902c1.33301 7.33301 8.66602 11 21.999 11c7.33301 0 18.666 -1 33.999 -3s32.333 -3 51 -3c16 0 24.667 2 26 6c3.33301 11.333 5 17.666 5 18.999c0 2 -2 3 -6 3h-14
c-35.333 0 -57.666 1.33301 -66.999 4c-16 7.33301 -24 23.666 -24 48.999c0 10.667 3 18.334 9 23.001l4 5c2 2.66699 4.5 4.5 7.5 5.5s7.5 1.5 13.5 1.5c1.33301 0 11.833 -1.5 31.5 -4.5s35.834 -4.5 48.501 -4.5c5.33301 0 9 0.166992 11 0.5s3.66699 1.16602 5 2.49902
s2 3.33301 2 6v122c0 22 0.5 46.167 1.5 72.5s1.5 42.833 1.5 49.5c0 4 -0.833008 15.833 -2.5 35.5s-2.5 34.834 -2.5 45.501c0 19.333 2 31.666 6 36.999s13.667 9 29 11c11.333 1.33301 20.666 2 27.999 2c16 0 28.333 -4 37 -12c4 -3.33301 7.66699 -10.166 11 -20.499
s5 -17.833 5 -22.5c0 -10 -1.5 -41.5 -4.5 -94.5s-4.5 -85.833 -4.5 -98.5c0 -10.667 0.666992 -16 2 -16c2 0 8 5 18 15c50 50 90 91.667 120 125c32.667 35.333 52 66 58 92c0.666992 2 1.33398 6.16699 2.00098 12.5s1.5 10.833 2.5 13.5s3.5 5.33398 7.5 8.00098
s9.33301 4 16 4c2 0 7.83301 -0.666992 17.5 -2s16.167 -2 19.5 -2c6.66699 0 11.834 -1.33301 15.501 -4s6.5 -4 8.5 -4c16 0 24 -11.333 24 -34c0 -13.333 -7.16699 -32.666 -21.5 -57.999s-31.5 -48 -51.5 -68l-135 -137c-14 -15.333 -31 -31.333 -51 -48
c-10.667 -9.33301 -16 -14.666 -16 -15.999s1.66699 -2 5 -2z" />
    <glyph glyph-name="brokenbar" unicode="&#xa6;" horiz-adv-x="292" 
d="M212 102c-11.333 -13.333 -20.332 -29.001 -26.999 -47.001l-91 -238c-4.66699 -11.333 -12.667 -17 -24 -17c-10 0 -17.5 1.33301 -22.5 4s-8.33301 6 -10 10s-3.16699 6.33301 -4.5 7c-18.667 10 -28 22 -28 36c0 2.66699 3.33301 14 10 34
c4 11.333 6.66699 21.5 8 30.5s2.66602 15.167 3.99902 18.5l70 208c6.66699 20.667 13.5 35.667 20.5 45s16.167 14 27.5 14c5.33301 0 9.5 -0.166992 12.5 -0.5s5.5 -0.833008 7.5 -1.5s3.66699 -1.16699 5 -1.5s3.5 -1 6.5 -2s6.83301 -1.83301 11.5 -2.5
c27.333 -4 41 -19 41 -45c0 -21.333 -5.66699 -38.666 -17 -51.999zM186.001 423.999l20.999 62c46.667 134 76.334 212 89.001 234c4 7.33301 12.667 11 26 11c8 0 16.333 -1.66699 25 -5s14 -5.33301 16 -6c26 -6 39 -18.333 39 -37c0 -4.66699 -1 -11 -3 -19
s-3 -13.333 -3 -16c0 -4.66699 -3 -11 -9 -19c-15.333 -20 -30 -47.667 -44 -83c-2.66699 -6 -22.334 -60.667 -59.001 -164c-9.33301 -28.667 -16.666 -44.334 -21.999 -47.001c-2.66699 -1.33301 -7.33398 -2 -14.001 -2c-8 0 -16.167 2 -24.5 6s-13.833 8.33301 -16.5 13
c-5.33301 10.667 -11.666 18.334 -18.999 23.001s-11 9 -11 13c0 4.66699 3 16.667 9 36z" />
    <glyph glyph-name="section" unicode="&#xa7;" horiz-adv-x="406" 
d="M300 48c-6 -5.33301 -16.6689 -10.6729 -32.002 -16.0059s-24.666 -8 -27.999 -8c-2.66699 0 -4 -2 -4 -6c0 -0.666992 0.166992 -3.66699 0.5 -9s0.666016 -12.166 0.999023 -20.499s0.5 -16.5 0.5 -24.5c0 -24.667 -5 -45 -15 -61c-16.667 -28 -39 -53 -67 -75
c-15.333 -12.667 -41 -19 -77 -19c-43.333 0 -76.166 13.167 -98.499 39.5s-33.5 54.833 -33.5 85.5c0 22.667 5.66699 37 17 43c1.33301 0.666992 5 3.16699 11 7.5s12.167 8 18.5 11s12.833 4.5 19.5 4.5c8.66699 0 17 -2.66699 25 -8c6 -4.66699 10.5 -16 13.5 -34
s7 -34.5 12 -49.5s13.833 -22.5 26.5 -22.5c9.33301 0 18.333 5.66699 27 17c12.667 16.667 19 36.667 19 60c0 26.667 -10.667 70.334 -32 131.001c-18.667 54 -28 101.333 -28 142c0 43.333 6.66699 76 20 98c30.667 52 68 84.667 112 98c11.333 4 17 7.66699 17 11l-1 7
c-1.33301 5.33301 -2.66602 12.166 -3.99902 20.499s-2 17.166 -2 26.499c0 50 22.333 95 67 135c28 25.333 67 38 117 38c24 0 43.667 -6.66699 59 -20c8.66699 -7.33301 16.5 -19.833 23.5 -37.5s10.5 -33.5 10.5 -47.5c0 -16.667 -5.66699 -27 -17 -31
c-3.33301 -1.33301 -8.5 -3.66602 -15.5 -6.99902s-13.167 -5.83301 -18.5 -7.5s-10.333 -2.5 -15 -2.5c-6 0 -11.667 1.33301 -17 4c-2.66699 1.33301 -6 7 -10 17c-2.66699 6.66699 -4.5 13.834 -5.5 21.501s-1.5 11.834 -1.5 12.501c-2.66699 10.667 -5 17.334 -7 20.001
s-5 4 -9 4c-16 0 -29 -8.66699 -39 -26s-15 -34 -15 -50c0 -30.667 14 -77.667 42 -141c23.333 -52 35 -101 35 -147c0 -57.333 -17.667 -103.666 -53 -138.999c-7.33301 -7.33301 -15.833 -15.166 -25.5 -23.499s-17.5 -15.5 -23.5 -21.5zM230.998 117.993
c16 6 28.333 14.332 37 24.999c16.667 20.667 25 44.667 25 72c0 24.667 -11 66.667 -33 126c-3.33301 7.33301 -6 11 -8 11c-1.33301 0 -5.66602 -2 -12.999 -6c-20.667 -12 -35.334 -27.333 -44.001 -46c-8 -16.667 -12 -32.667 -12 -48
c0 -10.667 1.16699 -22.667 3.5 -36s4.83301 -24.666 7.5 -33.999s6.16699 -20.5 10.5 -33.5s6.83301 -21.167 7.5 -24.5c2 -6.66699 4 -10 6 -10c2.66699 0 7 1.33301 13 4z" />
    <glyph glyph-name="dieresis" unicode="&#xa8;" horiz-adv-x="510" 
d="M371 821c7.33301 -12.667 11 -24.333 11 -35c0 -8.66699 -3.5 -18.334 -10.5 -29.001s-10.5 -17 -10.5 -19c-0.666992 -4 -5.83398 -8.5 -15.501 -13.5s-20.5 -7.5 -32.5 -7.5c-19.333 0 -33.666 7 -42.999 21c-7.33301 10.667 -11 18.667 -11 24
c0 6.66699 0.333008 12.667 1 18c2 16.667 6.33301 30.334 13 41.001c8 13.333 22.667 20 44 20c28 0 46 -6.66699 54 -20zM498 789.001c11.333 0 22.8311 -2.5 34.498 -7.5s18.5 -11.5 20.5 -19.5c0.666992 -3.33301 2.83398 -9.16602 6.50098 -17.499s5.5 -15.5 5.5 -21.5
c0 -6.66699 -3.5 -15.5 -10.5 -26.5s-13.5 -18.167 -19.5 -21.5c-6.66699 -3.33301 -16.667 -5 -30 -5c-24.667 0 -39.334 7 -44.001 21c-0.666992 2.66699 -4.33398 8.66699 -11.001 18s-10 18.666 -10 27.999s3.33301 20.5 10 33.5s16.334 19.5 29.001 19.5
c0.666992 0 3.33398 -0.166992 8.00098 -0.5s8.33398 -0.5 11.001 -0.5z" />
    <glyph glyph-name="copyright" unicode="&#xa9;" horiz-adv-x="796" 
d="M635 28c-53.333 -32.667 -123 -48.998 -209 -48.998c-28 0 -59.833 4.66699 -95.5 14s-64.834 22 -87.501 38c-46.667 33.333 -80 69.166 -100 107.499s-30 84.833 -30 139.5c0 46 8 91.833 24 137.5s38.333 87.667 67 126s66 69.5 112 93.5s96.333 36 151 36
c49.333 0 90.333 -4.66699 123 -14s57.334 -20.333 74.001 -33s40 -34 70 -64c54.667 -54.667 82 -122.334 82 -203.001c0 -64 -16.833 -126.5 -50.5 -187.5s-77.167 -108.167 -130.5 -141.5zM715 383.002c0 72.667 -19.6689 125.999 -59.002 159.999
s-90.666 51 -153.999 51c-59.333 0 -112 -17.5 -158 -52.5s-80.5 -78.833 -103.5 -131.5s-34.5 -108 -34.5 -166c0 -36 6.33301 -67.167 19 -93.5s29.334 -46.333 50.001 -60s42 -23.5 64 -29.5s45 -9 69 -9c48 0 92 9.83301 132 29.5s72.5 45.334 97.5 77.001
s44.167 67 57.5 106s20 78.5 20 118.5zM482.998 214.001c17.333 21.333 30.668 35.501 40.001 42.501s20 10.5 32 10.5h21c14.667 0 25.667 -2.66699 33 -8c3.33301 -2.66699 5.66602 -5 6.99902 -7s2.33301 -3.83301 3 -5.5s1 -2.83398 1 -3.50098
c3.33301 -4.66699 5 -9.66699 5 -15c0 -3.33301 -2.66699 -7 -8 -11c-7.33301 -5.33301 -14.333 -12.333 -21 -21c-28 -34.667 -53 -60.5 -75 -77.5s-47 -25.5 -75 -25.5c-20.667 0 -37 1.33301 -49 4c-52.667 11.333 -90.334 34.666 -113.001 69.999
c-15.333 24 -23 51.333 -23 82c0 60 26 126.667 78 200c15.333 21.333 38 42.666 68 63.999s64.333 32 103 32c11.333 0 25.333 -1.66699 42 -5c25.333 -5.33301 51.666 -21.666 78.999 -48.999c6.66699 -6 10 -15 10 -27c0 -9.33301 -2.33301 -22 -7 -38s-7 -26.667 -7 -32
c0 -10.667 -13 -16 -39 -16c-13.333 0 -26.666 2 -39.999 6c-19.333 6 -29 15.333 -29 28c0 6.66699 2.83301 16.334 8.5 29.001s8.5 21 8.5 25c0 6 -3 9 -9 9c-22.667 0 -46.167 -14.833 -70.5 -44.5s-41.166 -54.5 -50.499 -74.5c-27.333 -56.667 -41 -104.667 -41 -144
c0 -34.667 13.333 -52 40 -52c22 0 48 18 78 54z" />
    <glyph glyph-name="ordfeminine" unicode="&#xaa;" horiz-adv-x="442" 
d="M327 342c-54 -50 -93.002 -75.002 -117.002 -75.002c-16 0 -36 6 -60 18s-39.667 27.667 -47 47c-3.33301 8 -5 18 -5 30c0 36 25 87.333 75 154c6.66699 8.66699 19.334 21.834 38.001 39.501s45.834 36.834 81.501 57.501s68.5 31 98.5 31
c21.333 0 40.666 -5.33301 57.999 -16c10 -6 18.167 -12.167 24.5 -18.5s12.5 -11.166 18.5 -14.499c2 -1.33301 6 -2.66602 12 -3.99902s11 -3.66602 15 -6.99902c10 -8 15 -15.667 15 -23c0 -3.33301 -1 -6.33301 -3 -9s-4.66699 -5.83398 -8 -9.50098
s-5.66602 -6.83398 -6.99902 -9.50098l-9 -14c-16 -22 -30.833 -48.5 -44.5 -79.5s-20.5 -60.167 -20.5 -87.5c0 -20.667 4.66699 -38.334 14 -53.001c4.66699 -8 7 -12.667 7 -14c0 -12 -5.66699 -19 -17 -21c-2 -0.666992 -5.5 -1.66699 -10.5 -3
s-9.83301 -2.5 -14.5 -3.5s-9 -1.5 -13 -1.5c-39.333 0 -59 29 -59 87c0 8.66699 -1.33301 13 -4 13c-2 0 -8 -4.66699 -18 -14zM301.998 152.998c-1.33301 0 -24.333 -0.332031 -69 -0.999023s-87.667 -1 -129 -1c-26.667 0 -45 2.16699 -55 6.5s-16.667 14.166 -20 29.499
l-4.5 13c-2.33301 6.66699 -3.5 14.334 -3.5 23.001c0 9.33301 3.33301 15.166 10 17.499s19.667 3.5 39 3.5c3.33301 0 8.16602 -0.666992 14.499 -2s10.833 -2 13.5 -2c10 0 21.333 -1 34 -3s23.667 -3 33 -3c1.33301 0 32 1 92 3s110 3 150 3
c10.667 0 19.334 -1 26.001 -3s10.834 -4 12.501 -6s3.5 -4.83301 5.5 -8.5s3.33301 -6.16699 4 -7.5c6.66699 -8 10 -16 10 -24c0 -13.333 -2.33301 -23 -7 -29c-4.66699 -6.66699 -20.667 -10 -48 -10c-4 0 -18.333 0.166992 -43 0.5s-46.334 0.5 -65.001 0.5z
M386.998 563.999c-38.667 -10.667 -75.166 -35.167 -109.499 -73.5s-59.166 -75.166 -74.499 -110.499c-4.66699 -10.667 -7 -17.334 -7 -20.001c0 -2 1 -3 3 -3c3.33301 0 10.333 3.66699 21 11c31.333 20.667 64.666 46.5 99.999 77.5s55.666 53.833 60.999 68.5
c2.66699 7.33301 11 19.333 25 36c5.33301 6 8 10.667 8 14c0 2.66699 -2 4 -6 4c-3.33301 0 -10.333 -1.33301 -21 -4z" />
    <glyph glyph-name="guillemotleft" unicode="&#xab;" horiz-adv-x="410" 
d="M318 183l-62.998 93.0029c-5.33301 7.33301 -8 15.666 -8 24.999c0 5.33301 1.33301 12.666 4 21.999c3.33301 11.333 9 21 17 29l77 84c18.667 20.667 31 33 37 37s14.333 6 25 6c23.333 0 38.333 -11.667 45 -35c0.666992 -2 2.83398 -5.66699 6.50098 -11
s5.5 -10 5.5 -14c0 -6 -2.33301 -11.333 -7 -16c-6 -6 -12.333 -11.333 -19 -16s-13.667 -10.334 -21 -17.001l-50 -45c-6 -6 -9 -10.667 -9 -14c0 -2.66699 1.66699 -7.33398 5 -14.001l37 -77c2.66699 -5.33301 4 -12.666 4 -21.999c0 -12 -5 -21.333 -15 -28
c-2.66699 -2 -5.33398 -4.16699 -8.00098 -6.5s-4.83398 -4.16602 -6.50098 -5.49902s-4 -2.5 -7 -3.5s-6.16699 -1.5 -9.5 -1.5c-6 0 -10.667 0.666992 -14 2c-4.66699 1.33301 -8.66699 3.66602 -12 6.99902s-6.33301 7.5 -9 12.5s-4.33398 7.83301 -5.00098 8.5z
M102.002 276.003c-6.66699 8.66699 -10 23.3311 -10 43.998c0 13.333 5.66699 26 17 38l65 74c20.667 23.333 33.667 37.166 39 41.499s11.666 6.5 18.999 6.5c22.667 0 36.334 -7 41.001 -21c0.666992 -2 2.83398 -5.16699 6.50098 -9.5s7 -9.16602 10 -14.499
s4.5 -11 4.5 -17c0 -5.33301 -1.33301 -10 -4 -14s-8.5 -9.83301 -17.5 -17.5s-15.5 -13.5 -19.5 -17.5l-45 -44c-5.33301 -5.33301 -8 -9.66602 -8 -12.999c0 -2.66699 1 -6 3 -10c23.333 -42.667 37.333 -66 42 -70c7.33301 -6.66699 11 -19.667 11 -39
c0 -8 -1.66699 -14.333 -5 -19c-4 -5.33301 -7 -9.16602 -9 -11.499s-5.83301 -4.5 -11.5 -6.5s-12.834 -3 -21.501 -3c-15.333 0 -28 10 -38 30c-1.33301 2.66699 -7.33301 11 -18 25l-33 43.5c-11.333 15 -17.333 23.167 -18 24.5z" />
    <glyph glyph-name="logicalnot" unicode="&#xac;" horiz-adv-x="590" 
d="M442 243c2.66699 10.667 4.00293 18 4.00293 22s-3.33301 6 -10 6c-1.33301 0 -9.66602 0.333008 -24.999 1s-35.5 1.33398 -60.5 2.00098s-50.167 1 -75.5 1c-18 0 -35.5 -1 -52.5 -3s-37.167 -3 -60.5 -3s-36 3.66699 -38 11c0 0.666992 -0.666992 2.83398 -2 6.50098
s-2 6.83398 -2 9.50098c0 16.667 6 35 18 55c2.66699 5.33301 10 8.66602 22 9.99902s37.667 2 77 2c63.333 0 113.666 -0.333008 150.999 -1l56 -2c14.667 0 26.667 0.166992 36 0.5s15.833 0.666016 19.5 0.999023s6.5 0.5 8.5 0.5c11.333 0 22.666 -4.33301 33.999 -13
c12 -9.33301 18 -19 18 -29c0 -2 -1.16699 -6.16699 -3.5 -12.5s-3.83301 -10.5 -4.5 -12.5c-16 -66.667 -26 -106.334 -30 -119.001l-7 -32c-2.66699 -14 -6.33398 -22.333 -11.001 -25s-17.334 -4 -38.001 -4c-1.33301 0 -5 -0.333008 -11 -1s-11 -1 -15 -1
c-19.333 0 -29 7.66699 -29 23c0 5.33301 3 17 9 35c10.667 34 18 58 22 72z" />
    <glyph glyph-name="uni00AD" unicode="&#xad;" horiz-adv-x="456" 
d="M445 294c0 -34 -8.00195 -54 -24.002 -60c-3.33301 -1.33301 -10.833 -2.83301 -22.5 -4.5s-19.5 -3.16699 -23.5 -4.5c-7.33301 -2 -23.666 -3 -48.999 -3h-24c-23.333 0 -53.166 1.16699 -89.499 3.5s-56.166 3.5 -59.499 3.5c-9.33301 0 -16.333 2.33301 -21 7
s-10 14.667 -16 30c-3.33301 8.66699 -5 16.667 -5 24c0 21.333 14.667 32 44 32c19.333 0 46.666 -0.666992 81.999 -2s63 -2 83 -2c3.33301 0 13.5 0.5 30.5 1.5s31.5 1.5 43.5 1.5c34 0 51 -9 51 -27z" />
    <glyph glyph-name="registered" unicode="&#xae;" horiz-adv-x="658" 
d="M715 446c0 -20.667 -2.99902 -43.334 -8.99902 -68.001s-16.833 -51.667 -32.5 -81s-35.167 -55.666 -58.5 -78.999s-54.5 -42.833 -93.5 -58.5s-82.5 -23.5 -130.5 -23.5c-46.667 0 -93.334 13.333 -140.001 40c-78 45.333 -117 109 -117 191
c0 34 6.33301 69.833 19 107.5s30.334 73.334 53.001 107.001s52.667 61.5 90 83.5s78 33 122 33c47.333 0 84.833 -3.66699 112.5 -11s51.834 -22.333 72.501 -45c3.33301 -4 9.16602 -9.5 17.499 -16.5s14.166 -12.167 17.499 -15.5c20 -16.667 34.333 -33.334 43 -50.001
c22.667 -36 34 -74 34 -114zM623.001 468c0 48.667 -14.5 87.8301 -43.5 117.497s-71.167 44.5 -126.5 44.5c-44 0 -83.5 -13.667 -118.5 -41s-61.167 -60.666 -78.5 -99.999s-26 -79.666 -26 -120.999c0 -48 12.5 -87.5 37.5 -118.5s62.167 -46.5 111.5 -46.5
c63.333 0 114.333 17.667 153 53c30.667 27.333 53.5 59.833 68.5 97.5s22.5 75.834 22.5 114.501zM376.001 342.996c-3.33301 0 -6.49902 -10.8291 -9.49902 -32.4961s-4.5 -36.834 -4.5 -45.501c0 -4 -3.33301 -7.5 -10 -10.5s-14.334 -4.5 -23.001 -4.5
c-10.667 0 -19.667 2.33301 -27 7c-2 1.33301 -5.5 3 -10.5 5s-8.66699 4.16699 -11 6.5s-3.5 5.16602 -3.5 8.49902c0 0.666992 1 8.66699 3 24c4 29.333 12.167 65.333 24.5 108s25.5 78.667 39.5 108c-11.333 11.333 -17 20.666 -17 27.999c0 4 1.66699 7 5 9
c44 29.333 86 44 126 44c18 0 39.333 -4.33301 64 -13c7.33301 -2.66699 14.333 -7.5 21 -14.5s11 -12.833 13 -17.5c4 -12 6 -24 6 -36c0 -30.667 -10.333 -58.334 -31 -83.001s-50.334 -41.334 -89.001 -50.001c10 -20 18.833 -35.5 26.5 -46.5
s13.334 -17.833 17.001 -20.5s8.83398 -5 15.501 -7c8.66699 -2.66699 14 -5.66699 16 -9c4.66699 -7.33301 7 -15.666 7 -24.999c0 -20 -14 -30 -42 -30c-28.667 0 -51 10.333 -67 31c-10 12 -17.833 23.667 -23.5 35s-9.33398 19.333 -11.001 24s-3.16699 7 -4.5 7z
M468.002 539c-3.33301 0 -6.66602 -0.334961 -9.99902 -1.00195c-6.66699 -1.33301 -11.334 -4.66602 -14.001 -9.99902c-12.667 -26 -24.667 -54.667 -36 -86c12.667 4 26.667 13.833 42 29.5s23 33.834 23 54.501c0 8.66699 -1.66699 13 -5 13z" />
    <glyph glyph-name="macron" unicode="&#xaf;" horiz-adv-x="510" 
d="M287 799c6 0 21.1689 -0.499023 45.502 -1.49902s53.5 -1.5 87.5 -1.5c16 0 39.5 0.5 70.5 1.5s50.167 1.5 57.5 1.5s12.833 -1 16.5 -3s6.33398 -5 8.00098 -9s3.16699 -6.66699 4.5 -8c4 -4 6 -7.33301 6 -10c0 -0.666992 -0.333008 -2.33398 -1 -5.00098s-1 -5 -1 -7
c0 -14 -1.66699 -24.333 -5 -31c-4.66699 -8 -13.334 -12 -26.001 -12c-2.66699 0 -7.83398 0.166992 -15.501 0.5s-14.167 0.5 -19.5 0.5c-1.33301 0 -17.833 -0.333008 -49.5 -1s-58.834 -1 -81.501 -1c-58.667 0 -94.667 2 -108 6c-20.667 6 -31 26.667 -31 62
c0 12 14 18 42 18z" />
    <glyph glyph-name="degree" unicode="&#xb0;" horiz-adv-x="384" 
d="M486 545c0 -20 -8.16699 -47.502 -24.5 -82.502s-39.833 -65.833 -70.5 -92.5c-18.667 -16 -44 -24 -76 -24c-21.333 0 -40 3.66699 -56 11c-34 15.333 -58.5 35.333 -73.5 60s-22.5 49 -22.5 73c0 37.333 20.333 81 61 131c30.667 38 68.667 57 114 57
c33.333 0 64.333 -10.667 93 -32c15.333 -11.333 28.333 -26.666 39 -45.999s16 -37.666 16 -54.999zM368 611.998c-5.33301 0 -11.665 -3.33398 -18.998 -10.001c-60 -54.667 -90 -105 -90 -151c0 -10 1.66699 -18.667 5 -26s6.66602 -12.166 9.99902 -14.499
s6.33301 -3.5 9 -3.5c8 0 15 4 21 12c33.333 44.667 56.166 77 68.499 97s18.5 37 18.5 51c0 8 -2 16.667 -6 26c-5.33301 12.667 -11 19 -17 19z" />
    <glyph glyph-name="plusminus" unicode="&#xb1;" horiz-adv-x="590" 
d="M419 409c0 -2 1.33496 -3.00293 4.00195 -3.00293c12 0 30.333 1.66699 55 5s43 5 55 5c18 0 32 -3.66699 42 -11s15 -15.666 15 -24.999c0 -4 -0.833008 -8.66699 -2.5 -14s-3.83398 -10.666 -6.50098 -15.999l-5 -10c-3.33301 -8.66699 -9 -13 -17 -13
c-2 0 -4.66699 0.166992 -8 0.5s-6 0.5 -8 0.5c-10 0 -20.333 -0.666992 -31 -2c-11.333 -1.33301 -30 -3 -56 -5s-44.333 -3.66699 -55 -5c-8 -0.666992 -12.667 -3.33398 -14 -8.00098c-2.66699 -6.66699 -7.5 -25.334 -14.5 -56.001s-12.167 -58.667 -15.5 -84
c-2.66699 -18.667 -15 -28 -37 -28c-2 0 -5.5 -0.333008 -10.5 -1s-8.83301 -1 -11.5 -1c-10.667 0 -19.5 1.66699 -26.5 5s-11.667 6.66602 -14 9.99902s-3.5 6.33301 -3.5 9c0 12.667 7.33301 52 22 118c2.66699 12.667 4 19.667 4 21c0 3.33301 -1.66699 5 -5 5
c-59.333 0 -97.666 4 -114.999 12s-26 29.667 -26 65c0 4.66699 3.33301 9.66699 10 15c8 6 16.333 9 25 9c4.66699 0 11.667 -1 21 -3c20 -4 47 -6 81 -6c18 0 29 0.666992 33 2c3.33301 0.666992 5.66602 3.33398 6.99902 8.00098c13.333 38.667 22.333 67.667 27 87
c8 34.667 16.667 53.334 26 56.001c3.33301 0.666992 8.16602 2.33398 14.499 5.00098s12.333 4.83398 18 6.50098s11.5 2.5 17.5 2.5c8 0 17.5 -1.66699 28.5 -5s16.5 -9 16.5 -17c0 -4 -2.66699 -14 -8 -30l-13 -41c-12.667 -38 -19 -59 -19 -63zM521.002 82.9971
c0 -9.33301 -2.66699 -21.334 -8 -36.001c-3.33301 -8 -8 -12 -14 -12c-2 0 -6.16699 0.333008 -12.5 1s-11.833 1 -16.5 1c-9.33301 0 -43.333 -1.5 -102 -4.5s-103 -4.5 -133 -4.5c-20 0 -45.667 1.16699 -77 3.5s-47.666 3.5 -48.999 3.5c-8.66699 0 -16 3.33301 -22 10
s-10 14.834 -12 24.501s-3.33301 17.334 -4 23.001s-1 10.5 -1 14.5c0 12.667 14.333 19 43 19c2.66699 0 11 -0.666992 25 -2s32.5 -2.5 55.5 -3.5s47.5 -1.5 73.5 -1.5c10.667 0 43.667 1.33301 99 4s90.666 4 105.999 4c12.667 0 24.667 -4 36 -12
c4 -2.66699 6.66699 -4.83398 8 -6.50098s2.5 -4.5 3.5 -8.5s1.5 -9.66699 1.5 -17z" />
    <glyph glyph-name="twosuperior" unicode="&#xb2;" 
d="M337 581c0 3.33301 -1.33496 4.99707 -4.00195 4.99707c-3.33301 0 -7.66602 -1.33301 -12.999 -4c-14.667 -7.33301 -31 -23.666 -49 -48.999c-0.666992 -1.33301 -3.66699 -4.5 -9 -9.5s-8.66602 -9.16699 -9.99902 -12.5c-5.33301 -11.333 -13.333 -17 -24 -17
c-2 0 -5 -0.333008 -9 -1s-7 -1 -9 -1c-19.333 0 -33.166 5.33301 -41.499 16s-12.5 21.334 -12.5 32.001c0 4 1 8 3 12s4.83301 8.33301 8.5 13s6.16699 8.33398 7.5 11.001c10 16.667 31.667 34 65 52c20.667 10.667 35.5 17.167 44.5 19.5s25.167 3.5 48.5 3.5
c21.333 0 42.166 -8.83301 62.499 -26.5s30.5 -32.5 30.5 -44.5c0 -59.333 -31.333 -122.333 -94 -189c-6.66699 -7.33301 -25.334 -26.166 -56.001 -56.499l-67 -67.5c-9.33301 -9.33301 -14 -15.333 -14 -18s9.33301 -4 28 -4c27.333 0 45.833 2.33301 55.5 7
s17.5 14 23.5 28l3 8c2 4.66699 3.33301 7.5 4 8.5s2.5 3.33301 5.5 7s5.83301 6 8.5 7s6.5 2.16699 11.5 3.5s10.5 2 16.5 2c18.667 0 33.667 -6.66699 45 -20c4 -5.33301 6 -12.333 6 -21c0 -12 -2.83301 -25.667 -8.5 -41s-11.167 -26.333 -16.5 -33
c-13.333 -16 -57.666 -24 -132.999 -24c-76 0 -122 6.66699 -138 20c-20.667 17.333 -31 34.333 -31 51c0 7.33301 8 19.666 24 36.999c14 16 39.5 42.5 76.5 79.5s64.5 65.833 82.5 86.5c52.667 60.667 79 104 79 130z" />
    <glyph glyph-name="threesuperior" unicode="&#xb3;" 
d="M320 553c2.66699 4.66699 3.99805 8.66602 3.99805 11.999c0 2.66699 -1.33301 4 -4 4c-1.33301 0 -4.66602 -1.33301 -9.99902 -4c-12 -6 -22 -12.5 -30 -19.5s-12 -12.167 -12 -15.5c0 -4.66699 -1 -8.16699 -3 -10.5s-4.66699 -4.5 -8 -6.5s-6 -4.33301 -8 -7
c-4 -5.33301 -14.333 -8 -31 -8c-15.333 0 -26.333 3.33301 -33 10c-4 4 -8 9.66699 -12 17s-6 12.666 -6 15.999c0 6.66699 1.5 12.834 4.5 18.501s6.16699 10.167 9.5 13.5s8.5 7.83301 15.5 13.5s12.167 10.167 15.5 13.5c2 2 6.83301 4 14.5 6s12.167 3.33301 13.5 4
c35.333 22 66.333 33 93 33c10 0 17.833 -0.666992 23.5 -2s10.334 -3.16602 14.001 -5.49902s6.16699 -3.83301 7.5 -4.5l12 -4c8.66699 -2.66699 15 -5.66699 19 -9s7.66699 -8.33301 11 -15s5 -12.667 5 -18c0 -10.667 -1.66699 -19.334 -5 -26.001
c-1.33301 -2 -2.83301 -5.83301 -4.5 -11.5s-3.5 -9.83398 -5.5 -12.501c-18 -28.667 -38 -52.334 -60 -71.001c-6.66699 -6 -10 -10 -10 -12s3 -4 9 -6c34.667 -13.333 52 -40 52 -80c0 -26 -8.33301 -56.667 -25 -92c-15.333 -32 -33.166 -57.833 -53.499 -77.5
s-47.833 -29.5 -82.5 -29.5c-45.333 0 -93 29 -143 87c-8 9.33301 -12 18 -12 26c0 13.333 9.66699 20 29 20c3.33301 0 8.33301 0.333008 15 1s12 1 16 1c12.667 0 22.667 -4 30 -12c2 -2.66699 5.5 -6.16699 10.5 -10.5s8.66699 -8.33301 11 -12s3.5 -7.5 3.5 -11.5
c0 -2 3.5 -5.83301 10.5 -11.5s12.833 -8.5 17.5 -8.5c6.66699 0 16.5 6.66699 29.5 20s24.5 32 34.5 56c12 28.667 18 49.667 18 63c0 11.333 -2.66699 17 -8 17c-4.66699 0 -8.33398 -0.666992 -11.001 -2s-6.16699 -2.66602 -10.5 -3.99902
s-7.83301 -2.66602 -10.5 -3.99902c-27.333 -16.667 -49.333 -25 -66 -25s-29.334 4 -38.001 12s-13 17.333 -13 28c0 4.66699 1.33301 8.33398 4 11.001c7.33301 6 17.333 12.667 30 20c4 2 9 5.5 15 10.5s10.667 8.5 14 10.5c46.667 32 81.334 66.667 104.001 104z" />
    <glyph glyph-name="acute" unicode="&#xb4;" horiz-adv-x="510" 
d="M312 769l61 23.999c49.333 20 79 34.333 89 43c4 4 10.667 6 20 6c14 0 25.667 -4.66699 35 -14c8.66699 -8.66699 13 -20.667 13 -36c0 -10 -1.66699 -18.333 -5 -25c-6.66699 -11.333 -33.334 -24 -80.001 -38l-99 -30c-8.66699 -2.66699 -17.334 -4 -26.001 -4
c-9.33301 0 -16.666 1.66699 -21.999 5c-6 4 -12.5 10.167 -19.5 18.5s-10.5 14.833 -10.5 19.5c0 6.66699 2 12.334 6 17.001s9 7 15 7c2.66699 0 10.334 2.33301 23.001 7z" />
    <glyph glyph-name="mu" unicode="&#xb5;" horiz-adv-x="510" 
d="M343 62c-2.66699 0 -7.33398 -4.99805 -14.001 -14.998c-13.333 -20.667 -29.333 -37.834 -48 -51.501s-33 -20.5 -43 -20.5c-22.667 0 -43.834 5 -63.501 15s-32.167 22 -37.5 36c-3.33301 8.66699 -5 18.667 -5 30c0 8 -1 12 -3 12s-10.333 -16 -25 -48l-117 -242
c-0.666992 -1.33301 -3 -6.5 -7 -15.5s-7 -15.167 -9 -18.5c-8.66699 -14.667 -18 -22 -28 -22c-14 0 -25.5 0.833008 -34.5 2.5s-14.833 3.5 -17.5 5.5s-4.83398 4.16699 -6.50098 6.5s-2.83398 3.5 -3.50098 3.5c-14 5.33301 -21 17 -21 35c0 10.667 2.66699 20 8 28
s19 24.667 41 50c4.66699 6 17.334 27.667 38.001 65c83.333 153.333 166.666 321.666 249.999 504.999c10 21.333 20 32 30 32c3.33301 0 7.33301 1.66699 12 5s10.334 5 17.001 5c2 0 5.33301 -0.5 10 -1.5s8.33398 -1.5 11.001 -1.5
c15.333 -1.33301 25.666 -6.33301 30.999 -15c4 -7.33301 6 -15 6 -23s-3.33301 -17.667 -10 -29c-5.33301 -8.66699 -9 -15.667 -11 -21c0 -0.666992 -5.83301 -12.167 -17.5 -34.5s-19.167 -40.5 -22.5 -54.5l-12 -47.5c-4.66699 -18.333 -8 -31.833 -10 -40.5
s-3.83301 -21.667 -5.5 -39s-2.5 -37.666 -2.5 -60.999c0 -18 1.33301 -27 4 -27s6.33398 2.33301 11.001 7c7.33301 7.33301 13.166 13.833 17.499 19.5l21 28.5l32.5 43c27.333 35.333 46.333 62.666 57 81.999s25.334 54.666 44.001 105.999c8 22 22 33 42 33
c7.33301 0 14.5 -1.66699 21.5 -5s11.833 -5.33301 14.5 -6c12 -2 20 -5.16699 24 -9.5s6 -10.5 6 -18.5c0 -10.667 -2.33301 -20.667 -7 -30c-37.333 -82 -60.666 -155.333 -69.999 -220c-5.33301 -34 -8 -53 -8 -57c0 -12 3 -25.5 9 -40.5s9 -27.167 9 -36.5
c0 -19.333 -10.667 -29 -32 -29c-7.33301 0 -14.166 0.833008 -20.499 2.5s-11.833 3.66699 -16.5 6s-7.66699 3.5 -9 3.5c-11.333 2.66699 -19.333 8.16699 -24 16.5s-7 24.5 -7 48.5c0 6.66699 0.333008 13.334 1 20.001s1 12 1 16l1 7c0 3.33301 -0.666992 5 -2 5z" />
    <glyph glyph-name="paragraph" unicode="&#xb6;" horiz-adv-x="544" 
d="M498 489l28.998 78.9971h-8c-0.666992 0 -5.16699 0.166992 -13.5 0.5s-17.166 0.5 -26.499 0.5l-15 -43c-32.667 -90.667 -58 -153.667 -76 -189l-7 -14c-3.33301 -13.333 -14.5 -42.5 -33.5 -87.5s-29.167 -69.5 -30.5 -73.5c-58 -146 -87 -230.667 -87 -254
c0 -4 -1.33301 -10.833 -4 -20.5s-4 -15.167 -4 -16.5v-8c0 -0.666992 0.166992 -2.16699 0.5 -4.5s0.5 -4.5 0.5 -6.5c0 -13.333 -7.5 -26.666 -22.5 -39.999s-32.833 -20 -53.5 -20c-12.667 0 -23.667 4 -33 12s-14 18 -14 30c0 41.333 8.33301 83 25 125l19 50
c8.66699 23.333 15.5 41.166 20.5 53.499l19 46.5c7.66699 18.667 15 35.5 22 50.5s14.167 29.5 21.5 43.5c-35.333 6 -66.166 24.333 -92.499 55s-39.5 66.334 -39.5 107.001c0 45.333 9.66699 91.5 29 138.5s47.333 87 84 120s76.334 49.5 119.001 49.5
c8 0 28.833 -1 62.5 -3s61.167 -3 82.5 -3h15c22 0 42.333 1.16699 61 3.5s33.667 3.5 45 3.5c16.667 0 33.167 2.5 49.5 7.5s33.5 7.5 51.5 7.5c12.667 0 23.834 -2 33.501 -6s17 -8.5 22 -13.5s9 -10.5 12 -16.5s4.83301 -10.667 5.5 -14s1 -5.66602 1 -6.99902
c0 -2 -0.166992 -5 -0.5 -9s-0.5 -7 -0.5 -9c0 -6.66699 -9.83301 -13.5 -29.5 -20.5s-34.167 -10.833 -43.5 -11.5c-14.667 -0.666992 -26.167 -2.5 -34.5 -5.5s-14.833 -8 -19.5 -15s-7.83398 -14 -9.50098 -21l-8 -32c-3.66699 -14.333 -7.83398 -27.5 -12.501 -39.5
l-36 -94l-8 -16c-9.33301 -17.333 -16.333 -33.666 -21 -48.999l-7 -20l-35 -95l-41 -114c-27.333 -74.667 -42 -116.667 -44 -126l-13 -63c-7.33301 -29.333 -11 -45 -11 -47c0 -0.666992 0.166992 -2 0.5 -4s0.5 -3.33301 0.5 -4c0 -16 -8 -28.833 -24 -38.5
s-36.667 -14.5 -62 -14.5c-10 0 -18.5 3.83301 -25.5 11.5s-10.5 15.5 -10.5 23.5c0 9.33301 30.333 113 91 311c0.666992 2.66699 9.16699 25.667 25.5 69l58.5 156z" />
    <glyph glyph-name="periodcentered" unicode="&#xb7;" horiz-adv-x="344" 
d="M229 360c25.333 0 43.001 -7.00098 53.001 -21.001c12.667 -17.333 19 -33.666 19 -48.999c0 -22 -7.66699 -44.667 -23 -68c-12 -18.667 -29.667 -28 -53 -28c-12.667 0 -27.5 2.5 -44.5 7.5s-29.5 11.833 -37.5 20.5c-7.33301 8.66699 -11 27.667 -11 57
c0 28 4.33301 46.333 13 55c7.33301 7.33301 19.166 13.5 35.499 18.5s32.5 7.5 48.5 7.5z" />
    <glyph glyph-name="cedilla" unicode="&#xb8;" horiz-adv-x="338" 
d="M44 -67c17.333 -4.66699 26.999 -12 28.999 -22c1.33301 -6.66699 7.33301 -10 18 -10c13.333 0 26.5 9.83301 39.5 29.5s19.5 35.167 19.5 46.5c0 4.66699 -1.33301 9.66699 -4 15l-24 38h77l31 -48c6.66699 -10.667 10 -22.334 10 -35.001
c0 -17.333 -5.66699 -34.333 -17 -51c-13.333 -19.333 -27.166 -34.5 -41.499 -45.5s-33.5 -16.5 -57.5 -16.5c-21.333 0 -43 4.33301 -65 13c-23.333 8.66699 -39.666 18.834 -48.999 30.501s-14 21.5 -14 29.5c0 10.667 3.5 18.5 10.5 23.5s13.167 7.5 18.5 7.5
c1.33301 0 7.66602 -1.66699 18.999 -5z" />
    <glyph glyph-name="onesuperior" unicode="&#xb9;" 
d="M293 421c1.33301 5.33301 2 8.33594 2 9.00293c0 1.33301 -0.666992 2 -2 2c-0.666992 0 -4 -3.33301 -10 -10c-17.333 -21.333 -33.166 -40 -47.499 -56l-32.5 -36c-7.33301 -8 -13.666 -14.5 -18.999 -19.5s-9.16602 -8.5 -11.499 -10.5s-4.16602 -4 -5.49902 -6
c-3.33301 -6 -12.333 -9 -27 -9c-14 0 -24.667 3.66699 -32 11c-1.33301 1.33301 -4.16602 3.16602 -8.49902 5.49902s-7.16602 4.5 -8.49902 6.5c-8 10 -12 16.667 -12 20c0 4 4.66699 10.667 14 20c7.33301 7.33301 19.833 17.666 37.5 30.999s29.5 23.333 35.5 30
l135 156c15.333 18 32.666 43.667 51.999 77c3.33301 5.33301 11.333 8 24 8c15.333 0 30.5 -4 45.5 -12s22.5 -17.333 22.5 -28c0 -2.66699 -1.33301 -7.33398 -4 -14.001c-10 -26 -19.833 -54.667 -29.5 -86s-17.334 -58.5 -23.001 -81.5l-22 -90.5
c-9 -37.333 -16.167 -66 -21.5 -86c-2 -6.66699 -3.5 -17 -4.5 -31s-2.83301 -24.333 -5.5 -31c-4.66699 -12 -19.334 -18 -44.001 -18c-20.667 0 -37.334 5.66699 -50.001 17c-4 4 -6 9.66699 -6 17s1.33301 16.333 4 27c1.33301 6.66699 3.66602 14.167 6.99902 22.5
s5.66602 14.5 6.99902 18.5z" />
    <glyph glyph-name="ordmasculine" unicode="&#xba;" horiz-adv-x="408" 
d="M399 635c19.333 -3.33301 36.334 -15.999 51.001 -37.999c15.333 -24 23 -50.667 23 -80c0 -64.667 -30.333 -132.667 -91 -204c-19.333 -22.667 -37.333 -37 -54 -43s-38.334 -9 -65.001 -9c-47.333 0 -83.666 16.333 -108.999 49c-22 28.667 -33 59.667 -33 93
c0 35.333 18.667 84.666 56 147.999c41.333 70 94.666 105 159.999 105c20 0 36.333 -5 49 -15c4 -3.33301 8.33301 -5.33301 13 -6zM138.001 149.001c-36 0 -63 2.16602 -81 6.49902s-27.667 12.833 -29 25.5c0 2 -1.33301 7.16699 -4 15.5s-4 15.833 -4 22.5
c0 15.333 12 23 36 23c10.667 0 22.667 -1.33301 36 -4s33 -4 59 -4c28 0 55.833 0.333008 83.5 1s49.667 1.5 66 2.5s24.833 1.5 25.5 1.5c57.333 0 86 -6.33301 86 -19c0 -1.33301 -0.333008 -2.66602 -1 -3.99902s-1 -2.33301 -1 -3l4 -3c2.66699 -2 5.5 -5 8.5 -9
s4.5 -8.33301 4.5 -13c0 -6.66699 -4.33301 -15 -13 -25c-4 -4.66699 -8.66699 -7.5 -14 -8.5s-17.333 -1.5 -36 -1.5c-10 0 -25 0.333008 -45 1s-34.667 1 -44 1c-10 0 -28.167 -1 -54.5 -3s-53.833 -3 -82.5 -3zM345.001 584c-11.333 0 -23.001 -8.33398 -35.001 -25.001
c-59.333 -79.333 -89 -141 -89 -185c0 -13.333 2.83301 -24.833 8.5 -34.5s12.834 -14.5 21.501 -14.5c12 0 25.667 11.667 41 35c0.666992 0.666992 3.16699 4.33398 7.5 11.001l12.5 19l15 23.5c6 9.66699 11.167 19.167 15.5 28.5l13 29
c4.33301 10 7.66602 20 9.99902 30s3.5 19.333 3.5 28c0 12.667 -4 24.667 -12 36c-4 6 -6.66699 10.667 -8 14s-2.66602 5 -3.99902 5z" />
    <glyph glyph-name="guillemotright" unicode="&#xbb;" horiz-adv-x="410" 
d="M292 313c0 -14 -7.66504 -28.002 -22.998 -42.002l-118 -107c-8.66699 -8.66699 -17.667 -13 -27 -13c-7.33301 0 -17 3.66699 -29 11c-8.66699 6 -13 15 -13 27c0 14 3.66699 25.333 11 34l84 85c4 4 6 8.33301 6 13c0 3.33301 -1.33301 7.33301 -4 12l-25 48
c-3.33301 6.66699 -6.66602 12.834 -9.99902 18.501l-7 12c-1.33301 2.33301 -2.5 4.83301 -3.5 7.5s-1.5 5.33398 -1.5 8.00098c0 2 2.33301 6.83301 7 14.5s11.667 15.5 21 23.5s18.333 12 27 12c1.33301 0 4.66602 0.833008 9.99902 2.5s9.66602 2.5 12.999 2.5
c13.333 0 22.666 -6.33301 27.999 -19l47 -113c4.66699 -10.667 7 -23 7 -37zM245.002 181.998c-0.666992 0.666992 -2.16797 2.83398 -4.50098 6.50098s-3.5 6.83398 -3.5 9.50098c0 5.33301 1.33301 9.33301 4 12l93 99c3.33301 4.66699 5 9 5 13
c0 2.66699 -1 5.66699 -3 9c-4.66699 6 -8.66699 14.333 -12 25c-1.33301 3.33301 -4.16602 8.66602 -8.49902 15.999s-7.16602 12.666 -8.49902 15.999c-1.33301 4 -5.33301 10 -12 18s-10 14 -10 18c0 3.33301 1.83301 7.16602 5.5 11.499s8.5 9.33301 14.5 15
s10.333 10.5 13 14.5c6 8 17.333 12 34 12c18.667 0 31 -5.33301 37 -16c19.333 -35.333 37.666 -72.666 54.999 -111.999c4.66699 -10 7 -18.667 7 -26c0 -18 -7 -34 -21 -48l-102 -101c-14.667 -14 -31 -21 -49 -21c-14.667 0 -26 9.66699 -34 29z" />
    <glyph glyph-name="onequarter" unicode="&#xbc;" horiz-adv-x="998" 
d="M727 92c-37.333 0 -68.666 5.33105 -93.999 15.998c-11.333 4.66699 -21.833 14.667 -31.5 30s-14.5 25.333 -14.5 30c0 10.667 3 19.334 9 26.001l41 47l52.5 59.5c11.667 13 28.167 30.167 49.5 51.5s41.666 40.333 60.999 57c7.33301 6 12 10.667 14 14
c8.66699 12.667 20 19 34 19c8 0 16.333 -1.66699 25 -5c24 -9.33301 36 -21 36 -35c0 -5.33301 -1.83301 -13 -5.5 -23s-5.5 -17 -5.5 -21c0 -10.667 -2 -23 -6 -37c-15.333 -50.667 -26 -87 -32 -109c-5.33301 -18.667 -8 -29.334 -8 -32.001s1.33301 -4 4 -4l9 1
c6 0.666992 11.333 1 16 1c22.667 0 38.667 -5 48 -15c10 -11.333 15 -22.333 15 -33c0 -9.33301 -7.33301 -14.666 -22 -15.999c-35.333 -4 -59.666 -7.33301 -72.999 -10c-7.33301 -1.33301 -12 -6 -14 -14c-3.33301 -12 -6.33301 -29.5 -9 -52.5
s-4.33398 -36.5 -5.00098 -40.5c-2 -12 -8.33301 -18 -19 -18c-18.667 0 -39 7.33301 -61 22c-8.66699 6 -13 14 -13 24c0 4.66699 1.66699 16.334 5 35.001l5 27c0 3.33301 -3.66699 5 -11 5zM830 619.998c0 -10 -1.33398 -17.334 -4.00098 -22.001
s-6.66699 -8.16699 -12 -10.5s-8.66602 -4.5 -9.99902 -6.5c-2.66699 -3.33301 -8.5 -8.5 -17.5 -15.5s-14.833 -12.5 -17.5 -16.5c-34.667 -45.333 -68.667 -93.666 -102 -144.999l-111 -178.5l-100 -161.5c-41.333 -64 -69.333 -96 -84 -96
c-29.333 0 -49.666 8.33301 -60.999 25c-4 6 -6 14.667 -6 26c0 18 5.33301 29 16 33c7.33301 3.33301 23 23.333 47 60l298 460c20 30.667 40.667 56 62 76c17.333 16.667 33.666 25 48.999 25c12 0 25.667 -5.66699 41 -17c8 -6.66699 12 -18.667 12 -36zM331.999 420.997
c1.33301 5.33301 2 8.33594 2 9.00293c0 1.33301 -0.666992 2 -2 2c-0.666992 0 -4 -3.33301 -10 -10c-17.333 -21.333 -33.166 -40 -47.499 -56l-32.5 -36c-7.33301 -8 -13.666 -14.5 -18.999 -19.5s-9.16602 -8.5 -11.499 -10.5s-4.16602 -4 -5.49902 -6
c-3.33301 -6 -12.333 -9 -27 -9c-14 0 -24.667 3.66699 -32 11c-1.33301 1.33301 -4.16602 3.16602 -8.49902 5.49902s-7.16602 4.5 -8.49902 6.5c-8 10 -12 16.667 -12 20c0 4 4.66699 10.667 14 20c7.33301 7.33301 19.833 17.666 37.5 30.999s29.5 23.333 35.5 30
l135 156c15.333 18 32.666 43.667 51.999 77c3.33301 5.33301 11.333 8 24 8c15.333 0 30.5 -4 45.5 -12s22.5 -17.333 22.5 -28c0 -2.66699 -1.33301 -7.33398 -4 -14.001c-10 -26 -19.833 -54.667 -29.5 -86s-17.334 -58.5 -23.001 -81.5l-22 -90.5
c-9 -37.333 -16.167 -66 -21.5 -86c-2 -6.66699 -3.5 -17 -4.5 -31s-2.83301 -24.333 -5.5 -31c-4.66699 -12 -19.334 -18 -44.001 -18c-20.667 0 -37.334 5.66699 -50.001 17c-4 4 -6 9.66699 -6 17s1.33301 16.333 4 27c1.33301 6.66699 3.66602 14.167 6.99902 22.5
s5.66602 14.5 6.99902 18.5zM777.999 246c6.66699 20 10 32.001 10 36.001c0 2 -0.666992 3 -2 3s-8.66602 -8.33301 -21.999 -25c-44 -56 -66.333 -84.333 -67 -85c-6.66699 -8 -10 -12.667 -10 -14c0 -2.66699 6.33301 -4 19 -4c19.333 0 33 0.666992 41 2
c5.33301 1.33301 8.33301 4 9 8c3.33301 19.333 10.666 45.666 21.999 78.999z" />
    <glyph glyph-name="onehalf" unicode="&#xbd;" horiz-adv-x="998" 
d="M845 388c0 3.33301 -1.33496 4.99707 -4.00195 4.99707c-3.33301 0 -7.66602 -1.33301 -12.999 -4c-14 -7.33301 -30.333 -23.666 -49 -48.999c-0.666992 -1.33301 -3.66699 -4.5 -9 -9.5s-8.66602 -9.16699 -9.99902 -12.5c-5.33301 -11.333 -13.333 -17 -24 -17
c-2 0 -5 -0.333008 -9 -1s-7 -1 -9 -1c-19.333 0 -33.166 5.33301 -41.499 16s-12.5 21.334 -12.5 32.001c0 4 1 8 3 12s4.83301 8.33301 8.5 13s6.16699 8.33398 7.5 11.001c10 16.667 31.667 34 65 52c20.667 10.667 35.5 17.167 44.5 19.5s25.167 3.5 48.5 3.5
c21.333 0 42.166 -8.83301 62.499 -26.5s30.5 -32.5 30.5 -44.5c0 -59.333 -31.333 -122.333 -94 -189c-6.66699 -7.33301 -25.334 -26.166 -56.001 -56.499l-67 -67.5c-9.33301 -9.33301 -14 -15.333 -14 -18s9.33301 -4 28 -4c27.333 0 45.833 2.33301 55.5 7
s17.5 14 23.5 28l3 7c2 5.33301 3.33301 8.5 4 9.5s2.5 3.33301 5.5 7s5.83301 6 8.5 7s6.5 2.16699 11.5 3.5s10.5 2 16.5 2c18.667 0 33.667 -6.66699 45 -20c4 -4.66699 6 -11.667 6 -21c0 -12 -2.83301 -25.667 -8.5 -41s-11.167 -26.333 -16.5 -33
c-13.333 -16 -57.666 -24 -132.999 -24c-76 0 -122 6.66699 -138 20c-20.667 17.333 -31 34.333 -31 51c0 7.33301 8 19.666 24 36.999c14 16 39.5 42.5 76.5 79.5s64.5 65.833 82.5 86.5c52.667 60.667 79 104 79 130zM818.998 619.997
c0 -10 -1.33398 -17.334 -4.00098 -22.001s-6.66699 -8.16699 -12 -10.5s-8.66602 -4.5 -9.99902 -6.5c-2.66699 -3.33301 -8.5 -8.5 -17.5 -15.5s-14.833 -12.5 -17.5 -16.5c-34.667 -45.333 -68.667 -93.666 -102 -144.999l-111 -178.5l-100 -161.5
c-41.333 -64 -69.333 -96 -84 -96c-29.333 0 -49.666 8.33301 -60.999 25c-4 6 -6 14.667 -6 26c0 18 5.33301 29 16 33c7.33301 3.33301 23 23.333 47 60l298 460c20 30.667 40.667 56 62 76c17.333 16.667 33.666 25 48.999 25c12 0 25.667 -5.66699 41 -17
c8 -6.66699 12 -18.667 12 -36zM331.997 420.996c1.33301 5.33301 2 8.33594 2 9.00293c0 1.33301 -0.666992 2 -2 2c-0.666992 0 -4 -3.33301 -10 -10c-17.333 -21.333 -33.166 -40 -47.499 -56l-32.5 -36c-7.33301 -8 -13.666 -14.5 -18.999 -19.5
s-9.16602 -8.5 -11.499 -10.5s-4.16602 -4 -5.49902 -6c-3.33301 -6 -12.333 -9 -27 -9c-14 0 -24.667 3.66699 -32 11c-1.33301 1.33301 -4.16602 3.16602 -8.49902 5.49902s-7.16602 4.5 -8.49902 6.5c-8 10 -12 16.667 -12 20c0 4 4.66699 10.667 14 20
c7.33301 7.33301 19.833 17.666 37.5 30.999s29.5 23.333 35.5 30l135 156c15.333 18 32.666 43.667 51.999 77c3.33301 5.33301 11.333 8 24 8c15.333 0 30.5 -4 45.5 -12s22.5 -17.333 22.5 -28c0 -2.66699 -1.33301 -7.33398 -4 -14.001
c-10 -26 -19.833 -54.667 -29.5 -86s-17.334 -58.5 -23.001 -81.5l-22 -90.5c-9 -37.333 -16.167 -66 -21.5 -86c-2 -6.66699 -3.5 -17 -4.5 -31s-2.83301 -24.333 -5.5 -31c-4.66699 -12 -19.334 -18 -44.001 -18c-20.667 0 -37.334 5.66699 -50.001 17
c-4 4 -6 9.66699 -6 17s1.33301 16.333 4 27c1.33301 6.66699 3.66602 14.167 6.99902 22.5s5.66602 14.5 6.99902 18.5z" />
    <glyph glyph-name="threequarters" unicode="&#xbe;" horiz-adv-x="998" 
d="M359 553c2.66699 4.66699 3.99805 8.66602 3.99805 11.999c0 2.66699 -1.33301 4 -4 4c-1.33301 0 -4.66602 -1.33301 -9.99902 -4c-12 -6 -22 -12.5 -30 -19.5s-12 -12.167 -12 -15.5c0 -4.66699 -1 -8.16699 -3 -10.5s-4.66699 -4.5 -8 -6.5s-6 -4.33301 -8 -7
c-4 -5.33301 -14.333 -8 -31 -8c-15.333 0 -26.333 3.33301 -33 10c-4 4 -8 9.66699 -12 17s-6 12.666 -6 15.999c0 6.66699 1.5 12.834 4.5 18.501s6.16699 10.167 9.5 13.5s8.5 7.83301 15.5 13.5s12.167 10.167 15.5 13.5c2 2 6.83301 4 14.5 6s12.167 3.33301 13.5 4
c35.333 22 66.333 33 93 33c10 0 17.833 -0.666992 23.5 -2s10.334 -3.16602 14.001 -5.49902s6.16699 -3.83301 7.5 -4.5l13 -4c8 -2.66699 14 -5.66699 18 -9s7.66699 -8.33301 11 -15s5 -12.667 5 -18c0 -10.667 -1.66699 -19.334 -5 -26.001
c-1.33301 -2 -2.83301 -5.83301 -4.5 -11.5s-3.5 -9.83398 -5.5 -12.501c-18 -28.667 -38 -52.334 -60 -71.001c-6.66699 -6 -10 -10 -10 -12s3 -4 9 -6c34.667 -13.333 52 -40 52 -80c0 -26 -8.33301 -56.667 -25 -92c-15.333 -32 -33.166 -57.833 -53.499 -77.5
s-47.833 -29.5 -82.5 -29.5c-45.333 0 -93 29 -143 87c-8 9.33301 -12 18 -12 26c0 13.333 9.66699 20 29 20c3.33301 0 8.33301 0.333008 15 1s12 1 16 1c12.667 0 22.667 -4 30 -12c2 -2.66699 5.5 -6.16699 10.5 -10.5s8.66699 -8.33301 11 -12s3.5 -7.5 3.5 -11.5
c0 -2 3.5 -5.83301 10.5 -11.5s12.833 -8.5 17.5 -8.5c6.66699 0 16.5 6.66699 29.5 20s24.5 32 34.5 56c12 28.667 18 49.667 18 63c0 11.333 -2.66699 17 -8 17c-4.66699 0 -8.33398 -0.666992 -11.001 -2s-6.16699 -2.66602 -10.5 -3.99902
s-7.83301 -2.66602 -10.5 -3.99902c-28 -16.667 -50 -25 -66 -25c-16.667 0 -29.334 4 -38.001 12s-13 17.333 -13 28c0 4.66699 1.33301 8.33398 4 11.001c7.33301 6 17.333 12.667 30 20c4 2 9 5.5 15 10.5s10.667 8.5 14 10.5c46.667 32 81.334 66.667 104.001 104z
M829.998 619.999c0 -10 -1.33398 -17.334 -4.00098 -22.001s-6.66699 -8.16699 -12 -10.5s-8.66602 -4.5 -9.99902 -6.5c-2.66699 -3.33301 -8.5 -8.5 -17.5 -15.5s-14.833 -12.5 -17.5 -16.5c-34.667 -45.333 -68.667 -93.666 -102 -144.999l-111 -178.5l-100 -161.5
c-41.333 -64 -69.333 -96 -84 -96c-29.333 0 -49.666 8.33301 -60.999 25c-4 6 -6 14.667 -6 26c0 18 5.33301 29 16 33c7.33301 3.33301 23 23.333 47 60l298 460c20 30.667 40.667 56 62 76c17.333 16.667 33.666 25 48.999 25c12 0 25.667 -5.66699 41 -17
c8 -6.66699 12 -18.667 12 -36zM726.997 91.998c-37.333 0 -68.666 5.33105 -93.999 15.998c-11.333 4.66699 -21.833 14.667 -31.5 30s-14.5 25.333 -14.5 30c0 10.667 3 19.334 9 26.001l41 47l52.5 59.5c11.667 13 28.167 30.167 49.5 51.5s41.666 40.333 60.999 57
c7.33301 6 12 10.667 14 14c8.66699 12.667 20 19 34 19c8 0 16.333 -1.66699 25 -5c24 -9.33301 36 -21 36 -35c0 -5.33301 -1.83301 -13 -5.5 -23s-5.5 -17 -5.5 -21c0 -10.667 -2 -23 -6 -37c-15.333 -50.667 -26 -87 -32 -109c-5.33301 -18.667 -8 -29.334 -8 -32.001
s1.33301 -4 4 -4l9 1c6 0.666992 11.333 1 16 1c22.667 0 38.667 -5 48 -15c10 -11.333 15 -22.333 15 -33c0 -9.33301 -7.33301 -14.666 -22 -15.999c-35.333 -4 -59.666 -7.33301 -72.999 -10c-7.33301 -1.33301 -12 -6 -14 -14c-3.33301 -12 -6.33301 -29.5 -9 -52.5
s-4.33398 -36.5 -5.00098 -40.5c-2 -12 -8.33301 -18 -19 -18c-18.667 0 -39 7.33301 -61 22c-8.66699 6 -13 14 -13 24c0 4.66699 1.66699 16.334 5 35.001l5 27c0 3.33301 -3.66699 5 -11 5zM777.997 245.996c6.66699 20 10 32.001 10 36.001c0 2 -0.666992 3 -2 3
s-8.66602 -8.33301 -21.999 -25c-44 -56 -66.333 -84.333 -67 -85c-6.66699 -8 -10 -12.667 -10 -14c0 -2.66699 6.33301 -4 19 -4c19.333 0 33 0.666992 41 2c5.33301 1.33301 8.33301 4 9 8c3.33301 19.333 10.666 45.666 21.999 78.999z" />
    <glyph glyph-name="questiondown" unicode="&#xbf;" horiz-adv-x="360" 
d="M94 -153c-36 20 -54.001 45.333 -54.001 76c0 26.667 13.667 56.334 41 89.001c6.66699 8 18.334 20.5 35.001 37.5s27.334 27.5 32.001 31.5c59.333 55.333 89 91.666 89 108.999c0 8.66699 -7.66699 13 -23 13c-13.333 0 -25 -3 -35 -9s-20.333 -9 -31 -9
c-6.66699 0 -14.667 1.66699 -24 5s-15.333 8.66602 -18 15.999c-0.666992 1.33301 -2.33398 4.5 -5.00098 9.5s-4 8.83301 -4 11.5c0 12.667 7.83301 24.667 23.5 36s41.167 17 76.5 17c36 0 68 -7.66699 96 -23c32.667 -18 49 -40.667 49 -68
c0 -24.667 -7.33301 -47.167 -22 -67.5s-51.334 -57.166 -110.001 -110.499c-44.667 -40 -67 -70.667 -67 -92c0 -6 3.16699 -11 9.5 -15s11.5 -6 15.5 -6c24 0 36 11.333 36 34c0 2.66699 -0.166992 6.16699 -0.5 10.5s-0.5 7.5 -0.5 9.5c0 17.333 11.333 26 34 26
c20.667 0 37.334 -7.66699 50.001 -23c8.66699 -11.333 13 -23.333 13 -36c0 -22 -8.66699 -43.5 -26 -64.5s-46.666 -31.5 -87.999 -31.5c-32.667 0 -63.334 8 -92.001 24zM289.999 480c12.667 0 30 -7.66602 52 -22.999s33 -27.333 33 -36
c0 -16.667 -3.33301 -28.667 -10 -36c-16.667 -18 -34.667 -27 -54 -27c-10.667 0 -21 2.16699 -31 6.5s-16.667 9.16602 -20 14.499c-1.33301 2 -4 4.83301 -8 8.5s-7.16699 7.33398 -9.5 11.001s-3.5 7.16699 -3.5 10.5c0 7.33301 1.66699 16.666 5 27.999
c8 28.667 23.333 43 46 43z" />
    <glyph glyph-name="Agrave" unicode="&#xc0;" horiz-adv-x="510" 
d="M325 167c-52 -20 -103.672 -35.6709 -155.005 -47.0039c-6 -1.33301 -10.333 -5 -13 -11c-11.333 -30 -17 -62 -17 -96c0 -4 0.333008 -9.5 1 -16.5s1 -11.167 1 -12.5c0 -4 -2.33301 -7.33301 -7 -10c-2 -1.33301 -5.33301 -4.16602 -10 -8.49902
s-9.66699 -7.83301 -15 -10.5s-10.666 -4 -15.999 -4c-6 0 -12.333 1.66699 -19 5l-12 6c-10.667 5.33301 -18.667 12.333 -24 21s-8.33301 16.334 -9 23.001s-1 16.667 -1 30c0 20 3 43.667 9 71c1.33301 6 2 10 2 12c0 1.33301 -2 3.33301 -6 6
c-20 11.333 -30 22.333 -30 33c0 20 5 38.333 15 55c4 6 10 9 18 9c8.66699 0 19.334 -3.33301 32.001 -10c4 -2 6.66699 -3 8 -3c2 0 5 3.66699 9 11c100 180.667 191.333 331 274 451c7.33301 11.333 22 18 44 20c1.33301 0 4.83301 0.666992 10.5 2s11.5 2.33301 17.5 3
s11.667 1 17 1c17.333 0 30.666 -3.66699 39.999 -11c2.66699 -2 5.33398 -5.83301 8.00098 -11.5s4 -9.5 4 -11.5c0 -5.33301 -2.33301 -21.333 -7 -48s-7 -42 -7 -46c0 -9.33301 -1 -20 -3 -32c-3.33301 -19.333 -6.66602 -47.166 -9.99902 -83.499s-6 -68 -8 -95
s-3 -42.5 -3 -46.5c0 -6 1.66699 -9 5 -9l5 1c3.33301 0 7.33301 0.333008 12 1s9.33398 1 14.001 1c37.333 0 63.333 -8.33301 78 -25c5.33301 -6 8 -11.333 8 -16c0 -4 -1.66699 -8.33301 -5 -13c-14.667 -19.333 -38 -29 -70 -29c-24 0 -40 -4 -48 -12
c-2.66699 -2.66699 -4.66699 -10 -6 -22c-4 -44 -6 -98.333 -6 -163c0 -18 1.66699 -33.667 5 -47s6.5 -23.333 9.5 -30s4.5 -10.667 4.5 -12c0 -9.33301 -4 -18 -12 -26s-16.667 -12 -26 -12c-29.333 0 -51.333 7.33301 -66 22c-5.33301 5.33301 -10 20.833 -14 46.5
s-6 50.834 -6 75.501c0 16 0.833008 39.667 2.5 71s2.5 48 2.5 50c0 6 -1 9 -3 9c-5.33301 0 -12.666 -2 -21.999 -6zM368.995 520.996c-56 -94 -107.334 -187.668 -154.001 -281.001c-4.66699 -9.33301 -7 -15 -7 -17s1.66699 -3 5 -3c12 0 34.667 6.33301 68 19
c0.666992 0 5.33398 1.66699 14.001 5l26.5 10l23.5 9c5.33301 2 8 6 8 12c0 5.33301 4.66699 46.333 14 123s14 117.334 14 122.001c0 8 -0.666992 12 -2 12c-2 0 -5.33301 -3.66699 -10 -11zM417.994 867.995c6 -5.33301 21.666 -17.001 46.999 -35.001l85 -59
c19.333 -13.333 29 -23.333 29 -30c0 -2 -1 -6.66699 -3 -14s-3 -13 -3 -17c0 -4.66699 -2.5 -8.66699 -7.5 -12s-10.167 -5 -15.5 -5c-14 0 -28.333 4.66699 -43 14l-100 64c-17.333 10.667 -34 19.334 -50 26.001c-6 2.66699 -10.667 6.16699 -14 10.5
s-5.16602 8.33301 -5.49902 12s-0.5 9.5 -0.5 17.5c0 8.66699 4 18.5 12 29.5s18 16.5 30 16.5c4.66699 0 9 -1 13 -3l7 -3c2.66699 0 9 -4 19 -12z" />
    <glyph glyph-name="Aacute" unicode="&#xc1;" horiz-adv-x="510" 
d="M325 167c-52 -20 -103.672 -35.6709 -155.005 -47.0039c-6 -1.33301 -10.333 -5 -13 -11c-11.333 -30 -17 -62 -17 -96c0 -4 0.333008 -9.5 1 -16.5s1 -11.167 1 -12.5c0 -4 -2.33301 -7.33301 -7 -10c-2 -1.33301 -5.33301 -4.16602 -10 -8.49902
s-9.66699 -7.83301 -15 -10.5s-10.666 -4 -15.999 -4c-6 0 -12.333 1.66699 -19 5l-12 6c-10.667 5.33301 -18.667 12.333 -24 21s-8.33301 16.334 -9 23.001s-1 16.667 -1 30c0 20 3 43.667 9 71c1.33301 6 2 10 2 12c0 1.33301 -2 3.33301 -6 6
c-20 11.333 -30 22.333 -30 33c0 20 5 38.333 15 55c4 6 10 9 18 9c8.66699 0 19.334 -3.33301 32.001 -10c4 -2 6.66699 -3 8 -3c2 0 5 3.66699 9 11c100 180.667 191.333 331 274 451c7.33301 11.333 22 18 44 20c1.33301 0 4.83301 0.666992 10.5 2s11.5 2.33301 17.5 3
s11.667 1 17 1c17.333 0 30.666 -3.66699 39.999 -11c2.66699 -2 5.33398 -5.83301 8.00098 -11.5s4 -9.5 4 -11.5c0 -5.33301 -2.33301 -21.333 -7 -48s-7 -42 -7 -46c0 -9.33301 -1 -20 -3 -32c-3.33301 -19.333 -6.66602 -47.166 -9.99902 -83.499s-6 -68 -8 -95
s-3 -42.5 -3 -46.5c0 -6 1.66699 -9 5 -9l5 1c3.33301 0 7.33301 0.333008 12 1s9.33398 1 14.001 1c37.333 0 63.333 -8.33301 78 -25c5.33301 -6 8 -11.333 8 -16c0 -4 -1.66699 -8.33301 -5 -13c-14.667 -19.333 -38 -29 -70 -29c-24 0 -40 -4 -48 -12
c-2.66699 -2.66699 -4.66699 -10 -6 -22c-4 -44 -6 -98.333 -6 -163c0 -18 1.66699 -33.667 5 -47s6.5 -23.333 9.5 -30s4.5 -10.667 4.5 -12c0 -9.33301 -4 -18 -12 -26s-16.667 -12 -26 -12c-29.333 0 -51.333 7.33301 -66 22c-5.33301 5.33301 -10 20.833 -14 46.5
s-6 50.834 -6 75.501c0 16 0.833008 39.667 2.5 71s2.5 48 2.5 50c0 6 -1 9 -3 9c-5.33301 0 -12.666 -2 -21.999 -6zM368.995 520.996c-56 -94 -107.334 -187.668 -154.001 -281.001c-4.66699 -9.33301 -7 -15 -7 -17s1.66699 -3 5 -3c12 0 34.667 6.33301 68 19
c0.666992 0 5.33398 1.66699 14.001 5l26.5 10l23.5 9c5.33301 2 8 6 8 12c0 5.33301 4.66699 46.333 14 123s14 117.334 14 122.001c0 8 -0.666992 12 -2 12c-2 0 -5.33301 -3.66699 -10 -11zM347.994 806.995l61 23.999c49.333 20 79 34.333 89 43c4 4 10.667 6 20 6
c14 0 25.667 -4.66699 35 -14c8.66699 -8.66699 13 -20.667 13 -36c0 -10 -1.66699 -18.333 -5 -25c-6.66699 -11.333 -33.334 -24 -80.001 -38l-99 -30c-8.66699 -2.66699 -17.334 -4 -26.001 -4c-9.33301 0 -16.666 1.66699 -21.999 5c-6 4 -12.5 10.167 -19.5 18.5
s-10.5 14.833 -10.5 19.5c0 6.66699 2 12.334 6 17.001s9 7 15 7c2.66699 0 10.334 2.33301 23.001 7z" />
    </font>
</defs>
</svg>
